AnekTamil-ExpandedExtraBold.ufo
<glyph name="B" format="2">
  <advance width="1612"/>
  <unicode hex="0042"/>
  <anchor x="806" y="0" name="bottom"/>
  <anchor x="806" y="1278" name="top"/>
  <outline>
    <contour>
      <point x="428" y="0" type="line"/>
      <point x="1017" y="0" type="line" smooth="yes"/>
      <point x="1376" y="0"/>
      <point x="1538" y="130"/>
      <point x="1538" y="376" type="curve" smooth="yes"/>
      <point x="1538" y="389" type="line" smooth="yes"/>
      <point x="1538" y="589"/>
      <point x="1416" y="701"/>
      <point x="1205" y="717" type="curve"/>
      <point x="1205" y="730" type="line"/>
      <point x="1402" y="732"/>
      <point x="1499" y="815"/>
      <point x="1499" y="965" type="curve" smooth="yes"/>
      <point x="1499" y="975" type="line" smooth="yes"/>
      <point x="1499" y="1181"/>
      <point x="1357" y="1278"/>
      <point x="987" y="1278" type="curve" smooth="yes"/>
      <point x="428" y="1278" type="line"/>
      <point x="428" y="988" type="line"/>
      <point x="956" y="988" type="line" smooth="yes"/>
      <point x="1052" y="988"/>
      <point x="1091" y="954"/>
      <point x="1091" y="890" type="curve" smooth="yes"/>
      <point x="1091" y="882" type="line" smooth="yes"/>
      <point x="1091" y="819"/>
      <point x="1052" y="785"/>
      <point x="956" y="785" type="curve" smooth="yes"/>
      <point x="428" y="785" type="line"/>
      <point x="428" y="519" type="line"/>
      <point x="974" y="519" type="line" smooth="yes"/>
      <point x="1073" y="519"/>
      <point x="1118" y="485"/>
      <point x="1118" y="415" type="curve" smooth="yes"/>
      <point x="1118" y="407" type="line" smooth="yes"/>
      <point x="1118" y="337"/>
      <point x="1073" y="303"/>
      <point x="974" y="303" type="curve" smooth="yes"/>
      <point x="428" y="303" type="line"/>
    </contour>
    <contour>
      <point x="134" y="0" type="line"/>
      <point x="524" y="0" type="line"/>
      <point x="524" y="1278" type="line"/>
      <point x="134" y="1278" type="line"/>
    </contour>
  </outline>
</glyph>
<glyph name="k" format="2">
  <advance width="1396"/>
  <unicode hex="006B"/>
  <anchor x="698" y="0" name="bottom"/>
  <anchor x="698" y="1314" name="top"/>
  <outline>
    <contour>
      <point x="910" y="0" type="line"/>
      <point x="1414" y="0" type="line"/>
      <point x="880" y="550" type="line"/>
      <point x="880" y="486" type="line"/>
      <point x="1395" y="963" type="line"/>
      <point x="899" y="963" type="line"/>
      <point x="526" y="602" type="line"/>
      <point x="485" y="602" type="line"/>
      <point x="485" y="411" type="line"/>
      <point x="526" y="411" type="line"/>
    </contour>
    <contour>
      <point x="118" y="0" type="line"/>
      <point x="515" y="0" type="line"/>
      <point x="515" y="1314" type="line"/>
      <point x="118" y="1314" type="line"/>
    </contour>
  </outline>
</glyph>
<glyph name="r" format="2">
  <advance width="1008"/>
  <unicode hex="0072"/>
  <anchor x="317" y="0" name="bottom"/>
  <anchor x="522" y="963" name="top"/>
  <outline>
    <contour>
      <point x="506" y="495" type="line"/>
      <point x="555" y="573"/>
      <point x="661" y="627"/>
      <point x="827" y="627" type="curve" smooth="yes"/>
      <point x="877" y="627"/>
      <point x="934" y="621"/>
      <point x="978" y="612" type="curve"/>
      <point x="950" y="974" type="line"/>
      <point x="921" y="982"/>
      <point x="882" y="988"/>
      <point x="838" y="988" type="curve" smooth="yes"/>
      <point x="643" y="988"/>
      <point x="532" y="871"/>
      <point x="498" y="694" type="curve"/>
      <point x="419" y="694" type="line"/>
    </contour>
    <contour>
      <point x="118" y="0" type="line"/>
      <point x="515" y="0" type="line"/>
      <point x="515" y="618" type="line"/>
      <point x="481" y="618" type="line"/>
      <point x="498" y="963" type="line"/>
      <point x="118" y="963" type="line"/>
    </contour>
  </outline>
</glyph>
<glyph name="cent" format="2">
  <advance width="1212"/>
  <unicode hex="00A2"/>
  <anchor x="646" y="0" name="bottom"/>
  <anchor x="646" y="963" name="top"/>
  <outline>
    <contour>
      <point x="870" y="805" type="line"/>
      <point x="870" y="1207" type="line"/>
      <point x="542" y="1207" type="line"/>
      <point x="542" y="805" type="line"/>
    </contour>
    <contour>
      <point x="870" y="-235" type="line"/>
      <point x="870" y="141" type="line"/>
      <point x="542" y="141" type="line"/>
      <point x="542" y="-235" type="line"/>
    </contour>
    <component base="c"/>
  </outline>
</glyph>
<glyph name="Thorn" format="2">
  <advance width="1537"/>
  <unicode hex="00DE"/>
  <anchor x="769" y="0" name="bottom"/>
  <anchor x="769" y="1278" name="top"/>
  <outline>
    <contour>
      <point x="427" y="179" type="line"/>
      <point x="888" y="179" type="line" smooth="yes"/>
      <point x="1291" y="179"/>
      <point x="1477" y="347"/>
      <point x="1477" y="634" type="curve" smooth="yes"/>
      <point x="1477" y="647" type="line" smooth="yes"/>
      <point x="1477" y="940"/>
      <point x="1291" y="1104"/>
      <point x="888" y="1104" type="curve" smooth="yes"/>
      <point x="427" y="1104" type="line"/>
      <point x="427" y="796" type="line"/>
      <point x="868" y="796" type="line" smooth="yes"/>
      <point x="1007" y="796"/>
      <point x="1071" y="749"/>
      <point x="1071" y="648" type="curve" smooth="yes"/>
      <point x="1071" y="635" type="line" smooth="yes"/>
      <point x="1071" y="534"/>
      <point x="1007" y="487"/>
      <point x="868" y="487" type="curve" smooth="yes"/>
      <point x="427" y="487" type="line"/>
    </contour>
    <contour>
      <point x="134" y="0" type="line"/>
      <point x="534" y="0" type="line"/>
      <point x="534" y="265" type="line"/>
      <point x="533" y="392" type="line"/>
      <point x="533" y="873" type="line"/>
      <point x="534" y="1013" type="line"/>
      <point x="534" y="1278" type="line"/>
      <point x="134" y="1278" type="line"/>
    </contour>
  </outline>
</glyph>
<glyph name="Anusvara.tm" format="2">
  <unicode hex="0B82"/>
  <note>
Anusvara.tm
</note>
  <outline>
    <contour>
      <point x="452" y="1887" type="curve" smooth="yes"/>
      <point x="136" y="1887"/>
      <point x="0" y="1762"/>
      <point x="0" y="1547" type="curve" smooth="yes"/>
      <point x="0" y="1547" type="line" smooth="yes"/>
      <point x="0" y="1332"/>
      <point x="136" y="1207"/>
      <point x="452" y="1207" type="curve" smooth="yes"/>
      <point x="769" y="1207"/>
      <point x="905" y="1332"/>
      <point x="905" y="1547" type="curve" smooth="yes"/>
      <point x="905" y="1547" type="line" smooth="yes"/>
      <point x="905" y="1762"/>
      <point x="769" y="1887"/>
    </contour>
    <contour>
      <point x="452" y="1639" type="curve" smooth="yes"/>
      <point x="542" y="1639"/>
      <point x="579" y="1603"/>
      <point x="579" y="1547" type="curve" smooth="yes"/>
      <point x="579" y="1547" type="line" smooth="yes"/>
      <point x="579" y="1489"/>
      <point x="546" y="1456"/>
      <point x="452" y="1456" type="curve" smooth="yes"/>
      <point x="359" y="1456"/>
      <point x="326" y="1489"/>
      <point x="326" y="1547" type="curve" smooth="yes"/>
      <point x="326" y="1547" type="line" smooth="yes"/>
      <point x="326" y="1603"/>
      <point x="363" y="1639"/>
    </contour>
  </outline>
</glyph>
<glyph name="Aaytam.tm" format="2">
  <advance width="2090"/>
  <unicode hex="0B83"/>
  <note>
Aaytam.tm
</note>
  <outline>
    <contour>
      <point x="526" y="681" type="curve" smooth="yes"/>
      <point x="214" y="681"/>
      <point x="56" y="549"/>
      <point x="56" y="324" type="curve" smooth="yes"/>
      <point x="56" y="324" type="line" smooth="yes"/>
      <point x="56" y="99"/>
      <point x="214" y="-33"/>
      <point x="526" y="-33" type="curve" smooth="yes"/>
      <point x="837" y="-33"/>
      <point x="996" y="99"/>
      <point x="996" y="324" type="curve" smooth="yes"/>
      <point x="996" y="324" type="line" smooth="yes"/>
      <point x="996" y="549"/>
      <point x="837" y="681"/>
    </contour>
    <contour>
      <point x="526" y="433" type="curve" smooth="yes"/>
      <point x="626" y="433"/>
      <point x="670" y="389"/>
      <point x="670" y="324" type="curve" smooth="yes"/>
      <point x="670" y="324" type="line" smooth="yes"/>
      <point x="670" y="257"/>
      <point x="626" y="215"/>
      <point x="526" y="215" type="curve" smooth="yes"/>
      <point x="425" y="215"/>
      <point x="381" y="257"/>
      <point x="381" y="324" type="curve" smooth="yes"/>
      <point x="381" y="324" type="line" smooth="yes"/>
      <point x="381" y="389"/>
      <point x="425" y="433"/>
    </contour>
    <contour>
      <point x="1564" y="681" type="curve" smooth="yes"/>
      <point x="1253" y="681"/>
      <point x="1094" y="549"/>
      <point x="1094" y="324" type="curve" smooth="yes"/>
      <point x="1094" y="324" type="line" smooth="yes"/>
      <point x="1094" y="99"/>
      <point x="1253" y="-33"/>
      <point x="1564" y="-33" type="curve" smooth="yes"/>
      <point x="1876" y="-33"/>
      <point x="2034" y="99"/>
      <point x="2034" y="324" type="curve" smooth="yes"/>
      <point x="2034" y="324" type="line" smooth="yes"/>
      <point x="2034" y="549"/>
      <point x="1876" y="681"/>
    </contour>
    <contour>
      <point x="1564" y="433" type="curve" smooth="yes"/>
      <point x="1664" y="433"/>
      <point x="1708" y="389"/>
      <point x="1708" y="324" type="curve" smooth="yes"/>
      <point x="1708" y="324" type="line" smooth="yes"/>
      <point x="1708" y="257"/>
      <point x="1664" y="215"/>
      <point x="1564" y="215" type="curve" smooth="yes"/>
      <point x="1464" y="215"/>
      <point x="1420" y="257"/>
      <point x="1420" y="324" type="curve" smooth="yes"/>
      <point x="1420" y="324" type="line" smooth="yes"/>
      <point x="1420" y="389"/>
      <point x="1464" y="433"/>
    </contour>
    <contour>
      <point x="1045" y="1406" type="curve" smooth="yes"/>
      <point x="733" y="1406"/>
      <point x="575" y="1274"/>
      <point x="575" y="1049" type="curve" smooth="yes"/>
      <point x="575" y="1049" type="line" smooth="yes"/>
      <point x="575" y="824"/>
      <point x="733" y="692"/>
      <point x="1045" y="692" type="curve" smooth="yes"/>
      <point x="1356" y="692"/>
      <point x="1515" y="824"/>
      <point x="1515" y="1049" type="curve" smooth="yes"/>
      <point x="1515" y="1049" type="line" smooth="yes"/>
      <point x="1515" y="1274"/>
      <point x="1356" y="1406"/>
    </contour>
    <contour>
      <point x="1045" y="1158" type="curve" smooth="yes"/>
      <point x="1145" y="1158"/>
      <point x="1189" y="1114"/>
      <point x="1189" y="1049" type="curve" smooth="yes"/>
      <point x="1189" y="1049" type="line" smooth="yes"/>
      <point x="1189" y="982"/>
      <point x="1145" y="940"/>
      <point x="1045" y="940" type="curve" smooth="yes"/>
      <point x="945" y="940"/>
      <point x="901" y="982"/>
      <point x="901" y="1049" type="curve" smooth="yes"/>
      <point x="901" y="1049" type="line" smooth="yes"/>
      <point x="901" y="1114"/>
      <point x="945" y="1158"/>
    </contour>
  </outline>
</glyph>
<glyph name="VowelA.tm" format="2">
  <advance width="2723"/>
  <unicode hex="0B85"/>
  <note>
vowelA.tm
</note>
  <outline>
    <contour>
      <point x="1291" y="1200" type="curve" smooth="yes"/>
      <point x="787" y="1200"/>
      <point x="572" y="968"/>
      <point x="572" y="641" type="curve" smooth="yes"/>
      <point x="572" y="605" type="line" smooth="yes"/>
      <point x="572" y="384"/>
      <point x="745" y="232"/>
      <point x="1074" y="232" type="curve" smooth="yes"/>
      <point x="1382" y="232"/>
      <point x="1512" y="363"/>
      <point x="1512" y="547" type="curve" smooth="yes"/>
      <point x="1512" y="607" type="line" smooth="yes"/>
      <point x="1512" y="778"/>
      <point x="1400" y="882"/>
      <point x="1190" y="882" type="curve" smooth="yes"/>
      <point x="1017" y="882"/>
      <point x="928" y="804"/>
      <point x="906" y="690" type="curve"/>
      <point x="884" y="690" type="line"/>
      <point x="896" y="604" type="line"/>
      <point x="924" y="637"/>
      <point x="979" y="656"/>
      <point x="1051" y="656" type="curve" smooth="yes"/>
      <point x="1136" y="656"/>
      <point x="1176" y="627"/>
      <point x="1176" y="570" type="curve" smooth="yes"/>
      <point x="1176" y="570" type="line" smooth="yes"/>
      <point x="1176" y="514"/>
      <point x="1134" y="482"/>
      <point x="1053" y="482" type="curve" smooth="yes"/>
      <point x="951" y="482"/>
      <point x="907" y="533"/>
      <point x="907" y="611" type="curve"/>
      <point x="907" y="690" type="line"/>
      <point x="895" y="690" type="line"/>
      <point x="898" y="827"/>
      <point x="995" y="949"/>
      <point x="1291" y="949" type="curve" smooth="yes"/>
      <point x="1612" y="949"/>
      <point x="1714" y="829"/>
      <point x="1714" y="598" type="curve" smooth="yes"/>
      <point x="1714" y="558" type="line" smooth="yes"/>
      <point x="1714" y="273"/>
      <point x="1508" y="155"/>
      <point x="1075" y="155" type="curve" smooth="yes"/>
      <point x="1072" y="155" type="line" smooth="yes"/>
      <point x="673" y="155"/>
      <point x="402" y="268"/>
      <point x="402" y="456" type="curve" smooth="yes"/>
      <point x="402" y="456" type="line"/>
      <point x="402" y="456"/>
      <point x="402" y="458"/>
      <point x="402" y="458" type="curve"/>
      <point x="796" y="458" type="line"/>
      <point x="780" y="695" type="line"/>
      <point x="58" y="695" type="line"/>
      <point x="53" y="655"/>
      <point x="50" y="618"/>
      <point x="50" y="586" type="curve" smooth="yes"/>
      <point x="50" y="586" type="line" smooth="yes"/>
      <point x="50" y="102"/>
      <point x="442" y="-118"/>
      <point x="1072" y="-118" type="curve" smooth="yes"/>
      <point x="1077" y="-118" type="line" smooth="yes"/>
      <point x="1758" y="-118"/>
      <point x="2074" y="99"/>
      <point x="2074" y="560" type="curve" smooth="yes"/>
      <point x="2074" y="593" type="line" smooth="yes"/>
      <point x="2074" y="968"/>
      <point x="1841" y="1200"/>
    </contour>
    <contour>
      <point x="1241" y="695" type="line"/>
      <point x="1241" y="436" type="line"/>
      <point x="1784" y="436" type="line"/>
      <point x="1784" y="695" type="line"/>
    </contour>
    <contour>
      <point x="1853" y="695" type="line"/>
      <point x="1853" y="436" type="line"/>
      <point x="2221" y="436" type="line"/>
      <point x="2221" y="695" type="line"/>
    </contour>
    <contour>
      <point x="2202" y="1135" type="line"/>
      <point x="2202" y="-84" type="line"/>
      <point x="2577" y="-84" type="line"/>
      <point x="2577" y="1135" type="line"/>
    </contour>
  </outline>
</glyph>
<glyph name="VowelAa.tm" format="2">
  <advance width="3316"/>
  <unicode hex="0B86"/>
  <note>
vowelAa.tm
</note>
  <outline>
    <contour>
      <point x="2892" y="632" type="curve" smooth="yes"/>
      <point x="2709" y="632"/>
      <point x="2608" y="533"/>
      <point x="2587" y="396" type="curve"/>
      <point x="2533" y="396" type="line"/>
      <point x="2533" y="225" type="line"/>
      <point x="2556" y="225" type="line"/>
      <point x="2582" y="285"/>
      <point x="2642" y="324"/>
      <point x="2724" y="324" type="curve" smooth="yes"/>
      <point x="2834" y="324"/>
      <point x="2878" y="259"/>
      <point x="2878" y="123" type="curve" smooth="yes"/>
      <point x="2878" y="118" type="line" smooth="yes"/>
      <point x="2878" y="-104"/>
      <point x="2793" y="-192"/>
      <point x="2550" y="-192" type="curve" smooth="yes"/>
      <point x="2401" y="-192"/>
      <point x="2255" y="-176"/>
      <point x="2108" y="-153" type="curve"/>
      <point x="2165" y="-461" type="line"/>
      <point x="2307" y="-486"/>
      <point x="2436" y="-502"/>
      <point x="2603" y="-502" type="curve" smooth="yes"/>
      <point x="3069" y="-502"/>
      <point x="3256" y="-310"/>
      <point x="3256" y="127" type="curve" smooth="yes"/>
      <point x="3256" y="139" type="line" smooth="yes"/>
      <point x="3256" y="461"/>
      <point x="3145" y="632"/>
    </contour>
    <component base="VowelA.tm"/>
  </outline>
</glyph>
<glyph name="VowelI.tm" format="2">
  <advance width="2770"/>
  <unicode hex="0B87"/>
  <note>
vowelI.tm
</note>
  <outline>
    <contour>
      <point x="1346" y="1169" type="curve" smooth="yes"/>
      <point x="864" y="1169"/>
      <point x="657" y="949"/>
      <point x="657" y="641" type="curve" smooth="yes"/>
      <point x="657" y="605" type="line" smooth="yes"/>
      <point x="657" y="400"/>
      <point x="818" y="264"/>
      <point x="1132" y="264" type="curve" smooth="yes"/>
      <point x="1420" y="264"/>
      <point x="1549" y="392"/>
      <point x="1549" y="579" type="curve" smooth="yes"/>
      <point x="1549" y="584" type="line" smooth="yes"/>
      <point x="1549" y="757"/>
      <point x="1440" y="862"/>
      <point x="1232" y="862" type="curve" smooth="yes"/>
      <point x="1070" y="862"/>
      <point x="989" y="784"/>
      <point x="974" y="672" type="curve"/>
      <point x="955" y="672" type="line"/>
      <point x="965" y="602" type="line"/>
      <point x="991" y="634"/>
      <point x="1047" y="655"/>
      <point x="1116" y="655" type="curve" smooth="yes"/>
      <point x="1200" y="655"/>
      <point x="1237" y="623"/>
      <point x="1237" y="570" type="curve" smooth="yes"/>
      <point x="1237" y="570" type="line" smooth="yes"/>
      <point x="1237" y="519"/>
      <point x="1199" y="486"/>
      <point x="1114" y="486" type="curve" smooth="yes"/>
      <point x="1021" y="486"/>
      <point x="975" y="533"/>
      <point x="975" y="605" type="curve" smooth="yes"/>
      <point x="975" y="672" type="line"/>
      <point x="963" y="672" type="line"/>
      <point x="963" y="806"/>
      <point x="1053" y="924"/>
      <point x="1320" y="924" type="curve" smooth="yes"/>
      <point x="1593" y="924"/>
      <point x="1693" y="811"/>
      <point x="1693" y="605" type="curve" smooth="yes"/>
      <point x="1693" y="560" type="line" smooth="yes"/>
      <point x="1693" y="273"/>
      <point x="1528" y="164"/>
      <point x="1101" y="164" type="curve" smooth="yes"/>
      <point x="703" y="164"/>
      <point x="448" y="257"/>
      <point x="448" y="436" type="curve" smooth="yes"/>
      <point x="448" y="442" type="line" smooth="yes"/>
      <point x="448" y="442"/>
      <point x="448" y="445"/>
      <point x="448" y="447" type="curve"/>
      <point x="864" y="447" type="line"/>
      <point x="848" y="722" type="line"/>
      <point x="94" y="722" type="line"/>
      <point x="89" y="672"/>
      <point x="85" y="607"/>
      <point x="85" y="565" type="curve" smooth="yes"/>
      <point x="85" y="556" type="line" smooth="yes"/>
      <point x="85" y="72"/>
      <point x="466" y="-127"/>
      <point x="1108" y="-127" type="curve" smooth="yes"/>
      <point x="1427" y="-127"/>
      <point x="1671" y="-70"/>
      <point x="1812" y="37" type="curve"/>
      <point x="1868" y="97" type="line"/>
      <point x="1998" y="201"/>
      <point x="2056" y="364"/>
      <point x="2056" y="577" type="curve"/>
      <point x="2070" y="593" type="line"/>
      <point x="2070" y="947"/>
      <point x="1853" y="1169"/>
    </contour>
    <contour>
      <point x="2688" y="730" type="curve"/>
      <point x="1300" y="729" type="line"/>
      <point x="1300" y="442" type="line"/>
      <point x="2341" y="442" type="line"/>
      <point x="2341" y="435"/>
      <point x="2341" y="431"/>
      <point x="2341" y="426" type="curve" smooth="yes"/>
      <point x="2341" y="422" type="line" smooth="yes"/>
      <point x="2341" y="255"/>
      <point x="2262" y="164"/>
      <point x="2066" y="164" type="curve" smooth="yes"/>
      <point x="1962" y="164"/>
      <point x="1869" y="194"/>
      <point x="1770" y="269" type="curve"/>
      <point x="1611" y="32" type="line"/>
      <point x="1711" y="-63"/>
      <point x="1893" y="-123"/>
      <point x="2096" y="-123" type="curve"/>
      <point x="2520" y="-123"/>
      <point x="2700" y="60"/>
      <point x="2700" y="521" type="curve" smooth="yes"/>
      <point x="2700" y="530" type="line" smooth="yes"/>
      <point x="2700" y="586"/>
      <point x="2695" y="671"/>
    </contour>
    <contour>
      <point x="1375" y="1664" type="curve" smooth="yes"/>
      <point x="587" y="1664"/>
      <point x="161" y="1384"/>
      <point x="161" y="885" type="curve" smooth="yes"/>
      <point x="161" y="882" type="line" smooth="yes"/>
      <point x="161" y="873"/>
      <point x="161" y="868"/>
      <point x="163" y="850" type="curve"/>
      <point x="527" y="762" type="line"/>
      <point x="522" y="787"/>
      <point x="518" y="825"/>
      <point x="518" y="854" type="curve" smooth="yes"/>
      <point x="518" y="859" type="line" smooth="yes"/>
      <point x="518" y="1171"/>
      <point x="819" y="1355"/>
      <point x="1375" y="1355" type="curve" smooth="yes"/>
      <point x="1936" y="1355"/>
      <point x="2235" y="1168"/>
      <point x="2235" y="854" type="curve" smooth="yes"/>
      <point x="2235" y="834"/>
      <point x="2235" y="824"/>
      <point x="2235" y="799" type="curve"/>
      <point x="2587" y="799" type="line"/>
      <point x="2590" y="840"/>
      <point x="2592" y="862"/>
      <point x="2592" y="899" type="curve" smooth="yes"/>
      <point x="2592" y="1382"/>
      <point x="2164" y="1664"/>
    </contour>
  </outline>
</glyph>
<glyph name="VowelIi.tm" format="2">
  <advance width="1771"/>
  <unicode hex="0B88"/>
  <note>
vowelIi.tm
</note>
  <outline>
    <contour>
      <point x="992" y="0" type="line"/>
      <point x="1368" y="0" type="line"/>
      <point x="1368" y="1054" type="line"/>
      <point x="992" y="1054" type="line"/>
    </contour>
    <contour>
      <point x="758" y="287" type="curve" smooth="yes"/>
      <point x="887" y="287"/>
      <point x="931" y="352"/>
      <point x="931" y="491" type="curve" smooth="yes"/>
      <point x="931" y="505" type="line" smooth="yes"/>
      <point x="931" y="642"/>
      <point x="883" y="706"/>
      <point x="758" y="706" type="curve" smooth="yes"/>
      <point x="635" y="706"/>
      <point x="586" y="642"/>
      <point x="586" y="505" type="curve" smooth="yes"/>
      <point x="586" y="491" type="line" smooth="yes"/>
      <point x="586" y="352"/>
      <point x="631" y="287"/>
    </contour>
    <contour>
      <point x="1598" y="287" type="curve" smooth="yes"/>
      <point x="1725" y="287"/>
      <point x="1771" y="352"/>
      <point x="1771" y="491" type="curve" smooth="yes"/>
      <point x="1771" y="505" type="line" smooth="yes"/>
      <point x="1771" y="642"/>
      <point x="1723" y="706"/>
      <point x="1598" y="706" type="curve" smooth="yes"/>
      <point x="1473" y="706"/>
      <point x="1426" y="642"/>
      <point x="1426" y="505" type="curve" smooth="yes"/>
      <point x="1426" y="491" type="line" smooth="yes"/>
      <point x="1426" y="352"/>
      <point x="1472" y="287"/>
    </contour>
    <contour>
      <point x="1393" y="1137" type="line"/>
      <point x="146" y="1137" type="line"/>
      <point x="146" y="0" type="line"/>
      <point x="521" y="0" type="line"/>
      <point x="521" y="845" type="line"/>
      <point x="1393" y="845" type="line"/>
    </contour>
    <component base="RaBeak_Nonexporting" xOffset="1093"/>
  </outline>
</glyph>
<glyph name="VowelU.tm" format="2">
  <advance width="2561"/>
  <unicode hex="0B89"/>
  <note>
vowelU.tm
</note>
  <outline>
    <contour>
      <point x="892" y="1209" type="curve" smooth="yes"/>
      <point x="396" y="1209"/>
      <point x="148" y="1019"/>
      <point x="148" y="708" type="curve" smooth="yes"/>
      <point x="148" y="706" type="line" smooth="yes"/>
      <point x="148" y="502"/>
      <point x="285" y="350"/>
      <point x="623" y="350" type="curve" smooth="yes"/>
      <point x="948" y="350"/>
      <point x="1045" y="489"/>
      <point x="1045" y="655" type="curve" smooth="yes"/>
      <point x="1045" y="655" type="line" smooth="yes"/>
      <point x="1045" y="803"/>
      <point x="954" y="891"/>
      <point x="774" y="891" type="curve" smooth="yes"/>
      <point x="601" y="891"/>
      <point x="510" y="816"/>
      <point x="488" y="713" type="curve"/>
      <point x="471" y="713" type="line"/>
      <point x="478" y="628" type="line"/>
      <point x="507" y="662"/>
      <point x="556" y="683"/>
      <point x="623" y="683" type="curve" smooth="yes"/>
      <point x="697" y="683"/>
      <point x="735" y="658"/>
      <point x="735" y="611" type="curve" smooth="yes"/>
      <point x="735" y="611" type="line" smooth="yes"/>
      <point x="735" y="563"/>
      <point x="695" y="537"/>
      <point x="623" y="537" type="curve" smooth="yes"/>
      <point x="533" y="537"/>
      <point x="489" y="576"/>
      <point x="489" y="632" type="curve" smooth="yes"/>
      <point x="489" y="713" type="line"/>
      <point x="477" y="713" type="line"/>
      <point x="485" y="862"/>
      <point x="609" y="947"/>
      <point x="892" y="947" type="curve" smooth="yes"/>
      <point x="1170" y="947"/>
      <point x="1286" y="869"/>
      <point x="1286" y="748" type="curve" smooth="yes"/>
      <point x="1286" y="748" type="line" smooth="yes"/>
      <point x="1286" y="639"/>
      <point x="1239" y="566"/>
      <point x="1013" y="553" type="curve" smooth="yes"/>
      <point x="336" y="514" type="line" smooth="yes"/>
      <point x="188" y="505"/>
      <point x="100" y="426"/>
      <point x="100" y="260" type="curve" smooth="yes"/>
      <point x="100" y="171"/>
      <point x="121" y="76"/>
      <point x="163" y="0" type="curve"/>
      <point x="2509" y="0" type="line"/>
      <point x="2561" y="264" type="line"/>
      <point x="406" y="264" type="line"/>
      <point x="405" y="268"/>
      <point x="403" y="273"/>
      <point x="403" y="278" type="curve" smooth="yes"/>
      <point x="403" y="289"/>
      <point x="406" y="293"/>
      <point x="420" y="294" type="curve" smooth="yes"/>
      <point x="1056" y="322" type="line" smooth="yes"/>
      <point x="1513" y="342"/>
      <point x="1645" y="472"/>
      <point x="1645" y="746" type="curve" smooth="yes"/>
      <point x="1645" y="746" type="line" smooth="yes"/>
      <point x="1645" y="1038"/>
      <point x="1399" y="1209"/>
    </contour>
  </outline>
</glyph>
<glyph name="VowelEe.tm" format="2">
  <advance width="1891"/>
  <unicode hex="0B8F"/>
  <note>
vowelEe.tm
</note>
  <outline>
    <contour>
      <point x="1302" y="1052" type="line"/>
      <point x="1302" y="-62" type="line"/>
      <point x="707" y="-178" type="line"/>
      <point x="707" y="-468" type="line"/>
      <point x="1677" y="-324" type="line"/>
      <point x="1677" y="1052" type="line"/>
    </contour>
    <contour>
      <point x="948" y="845" type="line"/>
      <point x="1919" y="845" type="line"/>
      <point x="1881" y="1137" type="line"/>
      <point x="948" y="1137" type="line"/>
    </contour>
    <component base="VowelE_NonExporting" xOffset="28"/>
  </outline>
</glyph>
<glyph name="VowelAi.tm" format="2">
  <advance width="2425"/>
  <unicode hex="0B90"/>
  <note>
vowelAi.tm
</note>
  <outline>
    <contour>
      <point x="824" y="1179" type="curve" smooth="yes"/>
      <point x="350" y="1179"/>
      <point x="100" y="970"/>
      <point x="100" y="616" type="curve" smooth="yes"/>
      <point x="100" y="598" type="line" smooth="yes"/>
      <point x="100" y="283"/>
      <point x="262" y="83"/>
      <point x="621" y="83" type="curve" smooth="yes"/>
      <point x="943" y="83"/>
      <point x="1092" y="222"/>
      <point x="1092" y="484" type="curve" smooth="yes"/>
      <point x="1092" y="484" type="line" smooth="yes"/>
      <point x="1092" y="679"/>
      <point x="992" y="796"/>
      <point x="767" y="796" type="curve" smooth="yes"/>
      <point x="575" y="796"/>
      <point x="463" y="703"/>
      <point x="453" y="576" type="curve"/>
      <point x="433" y="576" type="line"/>
      <point x="450" y="479" type="line"/>
      <point x="473" y="509"/>
      <point x="529" y="533"/>
      <point x="603" y="533" type="curve" smooth="yes"/>
      <point x="696" y="533"/>
      <point x="735" y="500"/>
      <point x="735" y="440" type="curve" smooth="yes"/>
      <point x="735" y="440" type="line" smooth="yes"/>
      <point x="735" y="387"/>
      <point x="700" y="347"/>
      <point x="612" y="347" type="curve" smooth="yes"/>
      <point x="504" y="347"/>
      <point x="459" y="396"/>
      <point x="459" y="479" type="curve" smooth="yes"/>
      <point x="459" y="576" type="line"/>
      <point x="441" y="576" type="line"/>
      <point x="439" y="767"/>
      <point x="563" y="891"/>
      <point x="847" y="891" type="curve" smooth="yes"/>
      <point x="1134" y="891"/>
      <point x="1238" y="770"/>
      <point x="1238" y="539" type="curve" smooth="yes"/>
      <point x="1238" y="417" type="line"/>
      <point x="1599" y="417" type="line"/>
      <point x="1599" y="662" type="line" smooth="yes"/>
      <point x="1599" y="824"/>
      <point x="1681" y="882"/>
      <point x="1794" y="882" type="curve" smooth="yes"/>
      <point x="1923" y="882"/>
      <point x="1972" y="801"/>
      <point x="1972" y="672" type="curve" smooth="yes"/>
      <point x="1972" y="672" type="line" smooth="yes"/>
      <point x="1972" y="479"/>
      <point x="1891" y="374"/>
      <point x="1636" y="368" type="curve" smooth="yes"/>
      <point x="700" y="345" type="line" smooth="yes"/>
      <point x="323" y="336"/>
      <point x="115" y="202"/>
      <point x="112" y="-125" type="curve" smooth="yes"/>
      <point x="112" y="-125" type="line" smooth="yes"/>
      <point x="112" y="-414"/>
      <point x="319" y="-597"/>
      <point x="762" y="-597" type="curve" smooth="yes"/>
      <point x="1098" y="-597"/>
      <point x="1264" y="-479"/>
      <point x="1293" y="-268" type="curve"/>
      <point x="1304" y="-268" type="line"/>
      <point x="1334" y="-477"/>
      <point x="1478" y="-597"/>
      <point x="1783" y="-597" type="curve" smooth="yes"/>
      <point x="2183" y="-597"/>
      <point x="2319" y="-412"/>
      <point x="2319" y="-113" type="curve" smooth="yes"/>
      <point x="2319" y="-49"/>
      <point x="2311" y="14"/>
      <point x="2297" y="72" type="curve"/>
      <point x="1954" y="72" type="line"/>
      <point x="1967" y="23"/>
      <point x="1974" y="-28"/>
      <point x="1974" y="-74" type="curve" smooth="yes"/>
      <point x="1974" y="-218"/>
      <point x="1914" y="-304"/>
      <point x="1739" y="-304" type="curve" smooth="yes"/>
      <point x="1571" y="-304"/>
      <point x="1488" y="-238"/>
      <point x="1488" y="-62" type="curve" smooth="yes"/>
      <point x="1488" y="14" type="line"/>
      <point x="1115" y="14" type="line"/>
      <point x="1115" y="-67" type="line" smooth="yes"/>
      <point x="1115" y="-231"/>
      <point x="1019" y="-304"/>
      <point x="799" y="-304" type="curve" smooth="yes"/>
      <point x="577" y="-304"/>
      <point x="476" y="-232"/>
      <point x="476" y="-121" type="curve" smooth="yes"/>
      <point x="476" y="-121" type="line" smooth="yes"/>
      <point x="478" y="-5"/>
      <point x="555" y="39"/>
      <point x="774" y="49" type="curve" smooth="yes"/>
      <point x="1755" y="92" type="line" smooth="yes"/>
      <point x="2199" y="111"/>
      <point x="2331" y="315"/>
      <point x="2333" y="692" type="curve" smooth="yes"/>
      <point x="2333" y="692" type="line"/>
      <point x="2333" y="991"/>
      <point x="2195" y="1172"/>
      <point x="1852" y="1172" type="curve" smooth="yes"/>
      <point x="1563" y="1172"/>
      <point x="1443" y="1035"/>
      <point x="1413" y="817" type="curve"/>
      <point x="1404" y="817" type="line"/>
      <point x="1365" y="1019"/>
      <point x="1224" y="1179"/>
    </contour>
  </outline>
</glyph>
<glyph name="Ka.tm" format="2">
  <advance width="2025"/>
  <unicode hex="0B95"/>
  <note>
Ka.tm
</note>
  <anchor x="1128" y="1218" name="top"/>
  <outline>
    <contour>
      <point x="1158" y="454" type="line"/>
      <point x="1447" y="454" type="line" smooth="yes"/>
      <point x="1545" y="454"/>
      <point x="1588" y="426"/>
      <point x="1588" y="363" type="curve"/>
      <point x="1588" y="363" type="line" smooth="yes"/>
      <point x="1588" y="303"/>
      <point x="1552" y="268"/>
      <point x="1442" y="268" type="curve" smooth="yes"/>
      <point x="1364" y="268"/>
      <point x="1310" y="275"/>
      <point x="1243" y="290" type="curve"/>
      <point x="1239" y="268" type="line"/>
      <point x="1308" y="-16" type="line"/>
      <point x="1375" y="-25"/>
      <point x="1470" y="-26"/>
      <point x="1533" y="-26" type="curve" smooth="yes"/>
      <point x="1823" y="-26"/>
      <point x="1961" y="97"/>
      <point x="1961" y="357" type="curve"/>
      <point x="1961" y="357" type="line" smooth="yes"/>
      <point x="1961" y="609"/>
      <point x="1830" y="732"/>
      <point x="1475" y="732" type="curve" smooth="yes"/>
      <point x="1158" y="732" type="line"/>
    </contour>
    <component base="KaComponent_Nonexporting" xOffset="30"/>
    <component base="KaBeak_Nonexporting" xOffset="1371"/>
  </outline>
</glyph>
<glyph name="Ca.tm" format="2">
  <advance width="1768"/>
  <unicode hex="0B9A"/>
  <note>
Ca.tm
</note>
  <anchor x="1128" y="1218" name="top"/>
  <outline>
    <contour>
      <point x="1250" y="445" type="line"/>
      <point x="1748" y="445" type="line"/>
      <point x="1711" y="732" type="line"/>
      <point x="1250" y="732" type="line"/>
    </contour>
    <component base="KaComponent_Nonexporting" xOffset="30"/>
    <component base="KaBeak_Nonexporting" xOffset="1251"/>
  </outline>
</glyph>
<glyph name="Nya.tm" format="2">
  <advance width="3109"/>
  <unicode hex="0B9E"/>
  <note>
Nya.tm
</note>
  <guideline x="3672" y="-1022" angle="180"/>
  <anchor x="1576" y="1218" name="top"/>
  <outline>
    <contour>
      <point x="1953" y="1054" type="line"/>
      <point x="1953" y="0" type="line"/>
      <point x="2328" y="0" type="line"/>
      <point x="2328" y="1054" type="line"/>
    </contour>
    <contour>
      <point x="2657" y="716" type="curve" smooth="yes"/>
      <point x="2467" y="716"/>
      <point x="2361" y="621"/>
      <point x="2338" y="488" type="curve"/>
      <point x="2284" y="488" type="line"/>
      <point x="2284" y="312" type="line"/>
      <point x="2308" y="312" type="line"/>
      <point x="2335" y="370"/>
      <point x="2400" y="410"/>
      <point x="2488" y="410" type="curve" smooth="yes"/>
      <point x="2604" y="410"/>
      <point x="2653" y="341"/>
      <point x="2653" y="202" type="curve" smooth="yes"/>
      <point x="2653" y="195" type="line" smooth="yes"/>
      <point x="2653" y="-136"/>
      <point x="2355" y="-315"/>
      <point x="1676" y="-315" type="curve" smooth="yes"/>
      <point x="1667" y="-315" type="line" smooth="yes"/>
      <point x="831" y="-315"/>
      <point x="500" y="-35"/>
      <point x="500" y="540" type="curve" smooth="yes"/>
      <point x="500" y="780"/>
      <point x="533" y="940"/>
      <point x="602" y="1137" type="curve"/>
      <point x="209" y="1137" type="line"/>
      <point x="156" y="998"/>
      <point x="116" y="799"/>
      <point x="116" y="537" type="curve" smooth="yes"/>
      <point x="116" y="-236"/>
      <point x="601" y="-628"/>
      <point x="1667" y="-628" type="curve" smooth="yes"/>
      <point x="1676" y="-628" type="line" smooth="yes"/>
      <point x="2609" y="-628"/>
      <point x="3035" y="-327"/>
      <point x="3035" y="213" type="curve" smooth="yes"/>
      <point x="3035" y="224" type="line" smooth="yes"/>
      <point x="3035" y="546"/>
      <point x="2919" y="716"/>
    </contour>
    <contour>
      <point x="2368" y="1137" type="line"/>
      <point x="1612" y="1137" type="line"/>
      <point x="1612" y="845" type="line"/>
      <point x="2368" y="845" type="line"/>
    </contour>
    <component base="VowelE_NonExporting" xOffset="683"/>
    <component base="RaBeak_Nonexporting" xOffset="2225"/>
  </outline>
</glyph>
<glyph name="Ta.tm" format="2">
  <advance width="2009"/>
  <unicode hex="0BA4"/>
  <note>
Ta.tm
</note>
  <anchor x="1128" y="1218" name="top"/>
  <outline>
    <contour>
      <point x="1185" y="444" type="line"/>
      <point x="1295" y="444" type="line" smooth="yes"/>
      <point x="1489" y="444"/>
      <point x="1572" y="368"/>
      <point x="1572" y="197" type="curve" smooth="yes"/>
      <point x="1572" y="194" type="line" smooth="yes"/>
      <point x="1572" y="-42"/>
      <point x="1434" y="-139"/>
      <point x="1070" y="-139" type="curve" smooth="yes"/>
      <point x="576" y="-139" type="line"/>
      <point x="627" y="-444" type="line"/>
      <point x="1091" y="-444" type="line" smooth="yes"/>
      <point x="1727" y="-444"/>
      <point x="1947" y="-252"/>
      <point x="1947" y="190" type="curve" smooth="yes"/>
      <point x="1947" y="195" type="line" smooth="yes"/>
      <point x="1947" y="561"/>
      <point x="1753" y="732"/>
      <point x="1308" y="732" type="curve" smooth="yes"/>
      <point x="1185" y="732" type="line"/>
    </contour>
    <component base="Tail_NonExporting" xOffset="-78"/>
    <component base="KaComponent_Nonexporting" xOffset="30"/>
    <component base="KaBeak_Nonexporting" xOffset="1371"/>
  </outline>
</glyph>
<glyph name="Na.tm" format="2">
  <advance width="2017"/>
  <unicode hex="0BA8"/>
  <note>
Na.tm
</note>
  <anchor x="1027" y="1218" name="top"/>
  <outline>
    <contour>
      <point x="839" y="1054" type="line"/>
      <point x="839" y="0" type="line"/>
      <point x="1214" y="0" type="line"/>
      <point x="1214" y="1054" type="line"/>
    </contour>
    <contour>
      <point x="1552" y="716" type="curve" smooth="yes"/>
      <point x="1357" y="716"/>
      <point x="1248" y="621"/>
      <point x="1225" y="488" type="curve"/>
      <point x="1170" y="488" type="line"/>
      <point x="1170" y="312" type="line"/>
      <point x="1195" y="312" type="line"/>
      <point x="1223" y="370"/>
      <point x="1292" y="410"/>
      <point x="1383" y="410" type="curve" smooth="yes"/>
      <point x="1503" y="410"/>
      <point x="1554" y="340"/>
      <point x="1554" y="197" type="curve" smooth="yes"/>
      <point x="1554" y="194" type="line" smooth="yes"/>
      <point x="1554" y="-46"/>
      <point x="1446" y="-139"/>
      <point x="1114" y="-139" type="curve" smooth="yes"/>
      <point x="484" y="-139" type="line"/>
      <point x="535" y="-444" type="line"/>
      <point x="1131" y="-444" type="line" smooth="yes"/>
      <point x="1726" y="-444"/>
      <point x="1943" y="-231"/>
      <point x="1943" y="213" type="curve" smooth="yes"/>
      <point x="1943" y="220" type="line" smooth="yes"/>
      <point x="1943" y="544"/>
      <point x="1823" y="716"/>
    </contour>
    <contour>
      <point x="1300" y="1137" type="line"/>
      <point x="146" y="1137" type="line"/>
      <point x="146" y="0" type="line"/>
      <point x="521" y="0" type="line"/>
      <point x="521" y="845" type="line"/>
      <point x="1300" y="845" type="line"/>
    </contour>
    <component base="Tail_NonExporting" xOffset="-132"/>
    <component base="RaBeak_Nonexporting" xOffset="1096"/>
  </outline>
</glyph>
<glyph name="Nnna.tm" format="2">
  <advance width="3059"/>
  <unicode hex="0BA9"/>
  <note>
Nnna.tm
</note>
  <anchor x="1760" y="1218" name="top"/>
  <outline>
    <contour>
      <point x="2470" y="869" type="line"/>
      <point x="2470" y="0" type="line"/>
      <point x="2845" y="0" type="line"/>
      <point x="2845" y="869" type="line"/>
    </contour>
    <contour>
      <point x="2726" y="1137" type="line"/>
      <point x="2226" y="1137" type="line"/>
      <point x="2121" y="1137"/>
      <point x="2024" y="1137"/>
      <point x="1917" y="1137" type="curve"/>
      <point x="1816" y="845" type="line"/>
      <point x="1932" y="845"/>
      <point x="2043" y="845"/>
      <point x="2159" y="845" type="curve"/>
      <point x="2726" y="845" type="line"/>
    </contour>
    <contour>
      <point x="1116" y="1177" type="curve" smooth="yes"/>
      <point x="434" y="1177"/>
      <point x="102" y="913"/>
      <point x="102" y="503" type="curve" smooth="yes"/>
      <point x="102" y="495" type="line" smooth="yes"/>
      <point x="102" y="192"/>
      <point x="251" y="-26"/>
      <point x="631" y="-26" type="curve" smooth="yes"/>
      <point x="980" y="-26"/>
      <point x="1103" y="141"/>
      <point x="1103" y="377" type="curve" smooth="yes"/>
      <point x="1103" y="377" type="line" smooth="yes"/>
      <point x="1103" y="598"/>
      <point x="992" y="716"/>
      <point x="776" y="716" type="curve" smooth="yes"/>
      <point x="585" y="716"/>
      <point x="485" y="627"/>
      <point x="464" y="512" type="curve"/>
      <point x="451" y="512" type="line"/>
      <point x="455" y="391" type="line"/>
      <point x="478" y="419"/>
      <point x="535" y="445"/>
      <point x="610" y="445" type="curve" smooth="yes"/>
      <point x="704" y="445"/>
      <point x="744" y="412"/>
      <point x="744" y="350" type="curve" smooth="yes"/>
      <point x="744" y="350" type="line" smooth="yes"/>
      <point x="744" y="296"/>
      <point x="707" y="255"/>
      <point x="619" y="255" type="curve" smooth="yes"/>
      <point x="510" y="255"/>
      <point x="466" y="304"/>
      <point x="466" y="389" type="curve"/>
      <point x="466" y="512" type="line"/>
      <point x="454" y="512" type="line"/>
      <point x="454" y="512"/>
      <point x="454" y="512"/>
      <point x="454" y="512" type="curve"/>
      <point x="471" y="752"/>
      <point x="682" y="882"/>
      <point x="1132" y="882" type="curve" smooth="yes"/>
      <point x="1408" y="882"/>
      <point x="1593" y="850"/>
      <point x="1705" y="806" type="curve"/>
      <point x="1718" y="803" type="line"/>
      <point x="1844" y="766"/>
      <point x="1895" y="658"/>
      <point x="1895" y="512" type="curve" smooth="yes"/>
      <point x="1895" y="502" type="line" smooth="yes"/>
      <point x="1895" y="359"/>
      <point x="1862" y="275"/>
      <point x="1760" y="275" type="curve" smooth="yes"/>
      <point x="1658" y="275"/>
      <point x="1617" y="359"/>
      <point x="1617" y="502" type="curve" smooth="yes"/>
      <point x="1617" y="514" type="line" smooth="yes"/>
      <point x="1617" y="658"/>
      <point x="1668" y="766"/>
      <point x="1800" y="803" type="curve"/>
      <point x="1668" y="996" type="line"/>
      <point x="1364" y="949"/>
      <point x="1242" y="729"/>
      <point x="1242" y="489" type="curve" smooth="yes"/>
      <point x="1242" y="479" type="line" smooth="yes"/>
      <point x="1242" y="183"/>
      <point x="1392" y="-26"/>
      <point x="1763" y="-26" type="curve" smooth="yes"/>
      <point x="2133" y="-26"/>
      <point x="2268" y="183"/>
      <point x="2268" y="479" type="curve" smooth="yes"/>
      <point x="2268" y="489" type="line" smooth="yes"/>
      <point x="2268" y="729"/>
      <point x="2154" y="908"/>
      <point x="1906" y="1019" type="curve"/>
      <point x="1902" y="1021" type="line"/>
      <point x="1748" y="1107"/>
      <point x="1513" y="1177"/>
    </contour>
    <component base="RaBeak_Nonexporting" xOffset="2481"/>
  </outline>
</glyph>
<glyph name="Pa.tm" format="2">
  <advance width="1954"/>
  <unicode hex="0BAA"/>
  <note>
Pa.tm
</note>
  <anchor x="977" y="1218" name="top"/>
  <outline>
    <contour>
      <point x="1422" y="1137" type="line"/>
      <point x="1422" y="306" type="line"/>
      <point x="769" y="306" type="line"/>
      <point x="769" y="0" type="line"/>
      <point x="1808" y="0" type="line"/>
      <point x="1808" y="1137" type="line"/>
    </contour>
    <contour>
      <point x="532" y="1137" type="line"/>
      <point x="146" y="1137" type="line"/>
      <point x="146" y="0" type="line"/>
      <point x="1132" y="0" type="line"/>
      <point x="1132" y="306" type="line"/>
      <point x="532" y="306" type="line"/>
    </contour>
  </outline>
</glyph>
<glyph name="Ma.tm" format="2">
  <advance width="2114"/>
  <unicode hex="0BAE"/>
  <note>
Ma.tm
</note>
  <anchor x="1121" y="1218" name="top"/>
  <outline>
    <contour>
      <point x="146" y="1137" type="line"/>
      <point x="146" y="0" type="line"/>
      <point x="1267" y="0" type="line" smooth="yes"/>
      <point x="1786" y="0"/>
      <point x="2014" y="180"/>
      <point x="2014" y="579" type="curve" smooth="yes"/>
      <point x="2014" y="586" type="line" smooth="yes"/>
      <point x="2014" y="954"/>
      <point x="1811" y="1137"/>
      <point x="1287" y="1137" type="curve" smooth="yes"/>
      <point x="881" y="1137" type="line"/>
      <point x="881" y="81" type="line"/>
      <point x="1256" y="81" type="line"/>
      <point x="1256" y="845" type="line"/>
      <point x="1318" y="845" type="line" smooth="yes"/>
      <point x="1562" y="845"/>
      <point x="1632" y="757"/>
      <point x="1632" y="588" type="curve" smooth="yes"/>
      <point x="1632" y="577" type="line" smooth="yes"/>
      <point x="1632" y="377"/>
      <point x="1568" y="292"/>
      <point x="1306" y="292" type="curve" smooth="yes"/>
      <point x="521" y="292" type="line"/>
      <point x="521" y="1137" type="line"/>
    </contour>
  </outline>
</glyph>
<glyph name="Rra.tm" format="2">
  <advance width="2093"/>
  <unicode hex="0BB1"/>
  <note>
Rra.tm
</note>
  <anchor x="1037" y="1218" name="top"/>
  <outline>
    <contour>
      <point x="620" y="1160" type="curve" smooth="yes"/>
      <point x="307" y="1160"/>
      <point x="140" y="1006"/>
      <point x="140" y="647" type="curve" smooth="yes"/>
      <point x="140" y="0" type="line"/>
      <point x="515" y="0" type="line"/>
      <point x="515" y="672" type="line" smooth="yes"/>
      <point x="515" y="804"/>
      <point x="579" y="857"/>
      <point x="674" y="857" type="curve" smooth="yes"/>
      <point x="779" y="857"/>
      <point x="827" y="804"/>
      <point x="827" y="672" type="curve" smooth="yes"/>
      <point x="827" y="0" type="line"/>
      <point x="1201" y="0" type="line"/>
      <point x="1201" y="648" type="line" smooth="yes"/>
      <point x="1201" y="793"/>
      <point x="1279" y="861"/>
      <point x="1435" y="861" type="curve" smooth="yes"/>
      <point x="1578" y="861"/>
      <point x="1631" y="815"/>
      <point x="1631" y="723" type="curve" smooth="yes"/>
      <point x="1631" y="723" type="line" smooth="yes"/>
      <point x="1631" y="637"/>
      <point x="1569" y="593"/>
      <point x="1423" y="586" type="curve" smooth="yes"/>
      <point x="1321" y="581" type="line"/>
      <point x="1321" y="303" type="line"/>
      <point x="1409" y="296" type="line" smooth="yes"/>
      <point x="1580" y="282"/>
      <point x="1631" y="231"/>
      <point x="1631" y="102" type="curve" smooth="yes"/>
      <point x="1631" y="102" type="line" smooth="yes"/>
      <point x="1631" y="-63"/>
      <point x="1554" y="-139"/>
      <point x="1228" y="-139" type="curve" smooth="yes"/>
      <point x="478" y="-139" type="line"/>
      <point x="529" y="-444" type="line"/>
      <point x="1246" y="-444" type="line" smooth="yes"/>
      <point x="1837" y="-444"/>
      <point x="2013" y="-280"/>
      <point x="2013" y="77" type="curve" smooth="yes"/>
      <point x="2013" y="77" type="line" smooth="yes"/>
      <point x="2013" y="287"/>
      <point x="1928" y="426"/>
      <point x="1703" y="445" type="curve"/>
      <point x="1703" y="454" type="line"/>
      <point x="1911" y="479"/>
      <point x="1979" y="602"/>
      <point x="1979" y="787" type="curve"/>
      <point x="1979" y="787" type="line" smooth="yes"/>
      <point x="1979" y="1035"/>
      <point x="1834" y="1163"/>
      <point x="1514" y="1163" type="curve" smooth="yes"/>
      <point x="1223" y="1163"/>
      <point x="1066" y="1060"/>
      <point x="1028" y="854" type="curve"/>
      <point x="1019" y="854" type="line"/>
      <point x="992" y="1051"/>
      <point x="865" y="1160"/>
    </contour>
    <component base="Tail_NonExporting" xOffset="-138"/>
  </outline>
</glyph>
<glyph name="Lla.tm" format="2">
  <advance width="2623"/>
  <unicode hex="0BB3"/>
  <note>
Lla.tm
</note>
  <anchor x="1513" y="1218" name="top"/>
  <outline>
    <contour>
      <point x="2034" y="1054" type="line"/>
      <point x="2034" y="0" type="line"/>
      <point x="2409" y="0" type="line"/>
      <point x="2409" y="1054" type="line"/>
    </contour>
    <contour>
      <point x="857" y="1172" type="curve" smooth="yes"/>
      <point x="348" y="1172"/>
      <point x="108" y="912"/>
      <point x="108" y="507" type="curve" smooth="yes"/>
      <point x="108" y="495" type="line" smooth="yes"/>
      <point x="108" y="192"/>
      <point x="257" y="-26"/>
      <point x="637" y="-26" type="curve" smooth="yes"/>
      <point x="986" y="-26"/>
      <point x="1109" y="141"/>
      <point x="1109" y="377" type="curve" smooth="yes"/>
      <point x="1109" y="377" type="line" smooth="yes"/>
      <point x="1109" y="598"/>
      <point x="998" y="716"/>
      <point x="782" y="716" type="curve" smooth="yes"/>
      <point x="591" y="716"/>
      <point x="491" y="627"/>
      <point x="470" y="512" type="curve"/>
      <point x="457" y="512" type="line"/>
      <point x="461" y="391" type="line"/>
      <point x="484" y="419"/>
      <point x="541" y="445"/>
      <point x="616" y="445" type="curve" smooth="yes"/>
      <point x="710" y="445"/>
      <point x="750" y="412"/>
      <point x="750" y="350" type="curve" smooth="yes"/>
      <point x="750" y="350" type="line" smooth="yes"/>
      <point x="750" y="296"/>
      <point x="713" y="255"/>
      <point x="625" y="255" type="curve" smooth="yes"/>
      <point x="516" y="255"/>
      <point x="472" y="304"/>
      <point x="472" y="389" type="curve"/>
      <point x="472" y="512" type="line"/>
      <point x="460" y="512" type="line"/>
      <point x="460" y="514"/>
      <point x="460" y="514"/>
      <point x="460" y="516" type="curve"/>
      <point x="470" y="743"/>
      <point x="596" y="866"/>
      <point x="889" y="866" type="curve" smooth="yes"/>
      <point x="1207" y="866"/>
      <point x="1326" y="729"/>
      <point x="1326" y="424" type="curve" smooth="yes"/>
      <point x="1326" y="0" type="line"/>
      <point x="1701" y="0" type="line"/>
      <point x="1701" y="845" type="line"/>
      <point x="2346" y="845" type="line"/>
      <point x="2346" y="1137" type="line"/>
      <point x="1448" y="1137" type="line"/>
      <point x="1448" y="871" type="line"/>
      <point x="1439" y="871" type="line"/>
      <point x="1378" y="1054"/>
      <point x="1205" y="1172"/>
    </contour>
    <component base="RaBeak_Nonexporting" xOffset="2045"/>
  </outline>
</glyph>
<glyph name="Sha.tm" format="2">
  <advance width="2574"/>
  <unicode hex="0BB6"/>
  <note>
Sha.tm
</note>
  <anchor x="1290" y="1218" name="top"/>
  <outline>
    <contour>
      <point x="106" y="1137" type="line"/>
      <point x="106" y="473" type="line" smooth="yes"/>
      <point x="106" y="139"/>
      <point x="241" y="-30"/>
      <point x="637" y="-30" type="curve" smooth="yes"/>
      <point x="1035" y="-30"/>
      <point x="1169" y="139"/>
      <point x="1169" y="473" type="curve" smooth="yes"/>
      <point x="1169" y="1137" type="line"/>
      <point x="790" y="1137" type="line"/>
      <point x="790" y="458" type="line" smooth="yes"/>
      <point x="790" y="331"/>
      <point x="744" y="278"/>
      <point x="637" y="278" type="curve" smooth="yes"/>
      <point x="530" y="278"/>
      <point x="484" y="331"/>
      <point x="484" y="458" type="curve" smooth="yes"/>
      <point x="484" y="1137" type="line"/>
    </contour>
    <contour>
      <point x="1412" y="1137" type="line"/>
      <point x="1412" y="473" type="line" smooth="yes"/>
      <point x="1412" y="139"/>
      <point x="1545" y="-30"/>
      <point x="1940" y="-30" type="curve" smooth="yes"/>
      <point x="2336" y="-30"/>
      <point x="2468" y="139"/>
      <point x="2468" y="473" type="curve" smooth="yes"/>
      <point x="2468" y="1137" type="line"/>
      <point x="2089" y="1137" type="line"/>
      <point x="2089" y="458" type="line" smooth="yes"/>
      <point x="2089" y="331"/>
      <point x="2043" y="278"/>
      <point x="1940" y="278" type="curve" smooth="yes"/>
      <point x="1836" y="278"/>
      <point x="1790" y="331"/>
      <point x="1790" y="458" type="curve" smooth="yes"/>
      <point x="1790" y="1137" type="line"/>
    </contour>
    <contour>
      <point x="873" y="1137" type="line"/>
      <point x="873" y="845" type="line"/>
      <point x="2351" y="845" type="line"/>
      <point x="2351" y="1137" type="line"/>
    </contour>
  </outline>
</glyph>
<glyph name="Ha.tm" format="2">
  <advance width="3916"/>
  <unicode hex="0BB9"/>
  <note>
Ha.tm
</note>
  <anchor x="1797" y="1218" name="top"/>
  <outline>
    <contour>
      <point x="1756" y="292" type="line"/>
      <point x="1756" y="0" type="line"/>
      <point x="2160" y="0" type="line"/>
      <point x="2160" y="292" type="line"/>
    </contour>
    <contour>
      <point x="2424" y="-139" type="line"/>
      <point x="568" y="-139" type="line"/>
      <point x="620" y="-444" type="line"/>
      <point x="2424" y="-444" type="line"/>
    </contour>
    <component base="Va_NonExporting"/>
    <component base="Rra_Simple.tm" xOffset="1823"/>
    <component base="Tail_NonExporting" xOffset="-55"/>
  </outline>
</glyph>
<glyph name="MatraIDflt.tm" format="2">
  <advance width="1243"/>
  <unicode hex="0BBF"/>
  <note>
MatraIDflt.tm
</note>
  <outline>
    <contour>
      <point x="550" y="1790" type="curve" smooth="yes"/>
      <point x="199" y="1790"/>
      <point x="0" y="1616"/>
      <point x="0" y="1318" type="curve" smooth="yes"/>
      <point x="0" y="1318" type="line" smooth="yes"/>
      <point x="0" y="1252"/>
      <point x="15" y="1173"/>
      <point x="38" y="1123" type="curve"/>
      <point x="390" y="1123" type="line"/>
      <point x="376" y="1163"/>
      <point x="366" y="1224"/>
      <point x="366" y="1283" type="curve" smooth="yes"/>
      <point x="366" y="1283" type="line" smooth="yes"/>
      <point x="366" y="1421"/>
      <point x="427" y="1490"/>
      <point x="543" y="1490" type="curve" smooth="yes"/>
      <point x="678" y="1490"/>
      <point x="722" y="1410"/>
      <point x="722" y="1214" type="curve" smooth="yes"/>
      <point x="722" y="0" type="line"/>
      <point x="1097" y="0" type="line"/>
      <point x="1097" y="1192" type="line" smooth="yes"/>
      <point x="1097" y="1609"/>
      <point x="946" y="1790"/>
    </contour>
  </outline>
</glyph>
<glyph name="MatraIiDflt.tm" format="2">
  <unicode hex="0BC0"/>
  <note>
MatraIiDflt.tm
</note>
  <outline>
    <contour>
      <point x="632" y="1938" type="curve" smooth="yes"/>
      <point x="214" y="1938"/>
      <point x="0" y="1758"/>
      <point x="0" y="1444" type="curve" smooth="yes"/>
      <point x="0" y="1444" type="line" smooth="yes"/>
      <point x="0" y="1294"/>
      <point x="38" y="1190"/>
      <point x="81" y="1123" type="curve"/>
      <point x="435" y="1123" type="line"/>
      <point x="387" y="1195"/>
      <point x="347" y="1303"/>
      <point x="347" y="1417" type="curve" smooth="yes"/>
      <point x="347" y="1417" type="line" smooth="yes"/>
      <point x="347" y="1587"/>
      <point x="446" y="1677"/>
      <point x="604" y="1684" type="curve"/>
      <point x="604" y="1670" type="line"/>
      <point x="635" y="1677"/>
      <point x="676" y="1681"/>
      <point x="716" y="1681" type="curve" smooth="yes"/>
      <point x="831" y="1681"/>
      <point x="871" y="1637"/>
      <point x="871" y="1565" type="curve" smooth="yes"/>
      <point x="871" y="1565" type="line" smooth="yes"/>
      <point x="871" y="1500"/>
      <point x="843" y="1464"/>
      <point x="785" y="1464" type="curve" smooth="yes"/>
      <point x="715" y="1464"/>
      <point x="685" y="1505"/>
      <point x="685" y="1580" type="curve" smooth="yes"/>
      <point x="685" y="1580" type="line" smooth="yes"/>
      <point x="685" y="1621"/>
      <point x="692" y="1651"/>
      <point x="702" y="1683" type="curve"/>
      <point x="604" y="1695" type="line"/>
      <point x="604" y="1675" type="line"/>
      <point x="514" y="1663"/>
      <point x="431" y="1610"/>
      <point x="429" y="1484" type="curve" smooth="yes"/>
      <point x="429" y="1484" type="line" smooth="yes"/>
      <point x="429" y="1334"/>
      <point x="539" y="1227"/>
      <point x="788" y="1227" type="curve" smooth="yes"/>
      <point x="1045" y="1227"/>
      <point x="1179" y="1348"/>
      <point x="1179" y="1568" type="curve" smooth="yes"/>
      <point x="1179" y="1568" type="line" smooth="yes"/>
      <point x="1179" y="1799"/>
      <point x="993" y="1938"/>
    </contour>
  </outline>
</glyph>
<glyph name="MatraUDflt.tm" format="2">
  <advance width="1430"/>
  <unicode hex="0BC1"/>
  <note>
MatraUDflt.tm
</note>
  <outline>
    <contour>
      <point x="0" y="843" type="line"/>
      <point x="823" y="843" type="line" smooth="yes"/>
      <point x="959" y="843"/>
      <point x="1003" y="791"/>
      <point x="1003" y="687" type="curve" smooth="yes"/>
      <point x="1003" y="687" type="line" smooth="yes"/>
      <point x="1003" y="600"/>
      <point x="972" y="552"/>
      <point x="895" y="552" type="curve" smooth="yes"/>
      <point x="808" y="552"/>
      <point x="776" y="604"/>
      <point x="776" y="703" type="curve" smooth="yes"/>
      <point x="776" y="703" type="line" smooth="yes"/>
      <point x="776" y="760"/>
      <point x="781" y="805"/>
      <point x="788" y="845" type="curve"/>
      <point x="736" y="845" type="line"/>
      <point x="442" y="801" type="line"/>
      <point x="436" y="770"/>
      <point x="433" y="728"/>
      <point x="433" y="683" type="curve" smooth="yes"/>
      <point x="433" y="683" type="line" smooth="yes"/>
      <point x="433" y="450"/>
      <point x="569" y="270"/>
      <point x="898" y="270" type="curve" smooth="yes"/>
      <point x="1217" y="270"/>
      <point x="1364" y="429"/>
      <point x="1364" y="696" type="curve" smooth="yes"/>
      <point x="1364" y="696" type="line" smooth="yes"/>
      <point x="1364" y="976"/>
      <point x="1202" y="1137"/>
      <point x="786" y="1137" type="curve" smooth="yes"/>
      <point x="0" y="1137" type="line"/>
    </contour>
  </outline>
</glyph>
<glyph name="MatraEe.tm" format="2">
  <advance width="1197"/>
  <unicode hex="0BC7"/>
  <note>
MatraEe.tm
</note>
  <outline>
    <contour>
      <point x="664" y="1484" type="curve" smooth="yes"/>
      <point x="270" y="1484"/>
      <point x="108" y="1253"/>
      <point x="108" y="898" type="curve"/>
      <point x="108" y="558" type="line"/>
      <point x="108" y="204"/>
      <point x="270" y="-26"/>
      <point x="664" y="-26" type="curve" smooth="yes"/>
      <point x="1009" y="-26"/>
      <point x="1131" y="139"/>
      <point x="1131" y="371" type="curve" smooth="yes"/>
      <point x="1131" y="371" type="line" smooth="yes"/>
      <point x="1131" y="595"/>
      <point x="1016" y="713"/>
      <point x="791" y="713" type="curve" smooth="yes"/>
      <point x="598" y="713"/>
      <point x="496" y="621"/>
      <point x="471" y="503" type="curve"/>
      <point x="455" y="503" type="line"/>
      <point x="464" y="377" type="line"/>
      <point x="490" y="412"/>
      <point x="552" y="444"/>
      <point x="632" y="444" type="curve" smooth="yes"/>
      <point x="733" y="444"/>
      <point x="773" y="410"/>
      <point x="773" y="350" type="curve" smooth="yes"/>
      <point x="773" y="350" type="line" smooth="yes"/>
      <point x="773" y="296"/>
      <point x="735" y="255"/>
      <point x="643" y="255" type="curve" smooth="yes"/>
      <point x="527" y="255"/>
      <point x="472" y="326"/>
      <point x="472" y="442" type="curve"/>
      <point x="472" y="503" type="line"/>
      <point x="462" y="503" type="line"/>
      <point x="462" y="964" type="line"/>
      <point x="472" y="964" type="line"/>
      <point x="472" y="1016" type="line"/>
      <point x="472" y="1132"/>
      <point x="527" y="1202"/>
      <point x="643" y="1202" type="curve" smooth="yes"/>
      <point x="735" y="1202"/>
      <point x="773" y="1162"/>
      <point x="773" y="1107" type="curve" smooth="yes"/>
      <point x="773" y="1107" type="line" smooth="yes"/>
      <point x="773" y="1047"/>
      <point x="733" y="1014"/>
      <point x="632" y="1014" type="curve" smooth="yes"/>
      <point x="552" y="1014"/>
      <point x="490" y="1045"/>
      <point x="464" y="1081" type="curve"/>
      <point x="456" y="964" type="line"/>
      <point x="470" y="964" type="line"/>
      <point x="492" y="840"/>
      <point x="594" y="744"/>
      <point x="791" y="744" type="curve" smooth="yes"/>
      <point x="1016" y="744"/>
      <point x="1131" y="862"/>
      <point x="1131" y="1086" type="curve" smooth="yes"/>
      <point x="1131" y="1086" type="line" smooth="yes"/>
      <point x="1131" y="1318"/>
      <point x="1009" y="1484"/>
    </contour>
  </outline>
</glyph>
<glyph name="MatraAi.tm" format="2">
  <advance width="3040"/>
  <unicode hex="0BC8"/>
  <note>
MatraAi.tm
</note>
  <guideline x="2897" y="440" angle="0"/>
  <outline>
    <contour>
      <point x="2358" y="-20" type="line"/>
      <point x="2384" y="-24"/>
      <point x="2414" y="-26"/>
      <point x="2442" y="-26" type="curve" smooth="yes"/>
      <point x="2791" y="-26"/>
      <point x="2946" y="176"/>
      <point x="2946" y="568" type="curve" smooth="yes"/>
      <point x="2946" y="583" type="line" smooth="yes"/>
      <point x="2946" y="972"/>
      <point x="2730" y="1170"/>
      <point x="2258" y="1170" type="curve" smooth="yes"/>
      <point x="1962" y="1170"/>
      <point x="1757" y="1105"/>
      <point x="1638" y="1026" type="curve"/>
      <point x="1811" y="806" type="line"/>
      <point x="1916" y="847"/>
      <point x="2059" y="878"/>
      <point x="2214" y="878" type="curve" smooth="yes"/>
      <point x="2456" y="878"/>
      <point x="2562" y="801"/>
      <point x="2562" y="581" type="curve" smooth="yes"/>
      <point x="2562" y="567" type="line" smooth="yes"/>
      <point x="2562" y="378"/>
      <point x="2513" y="268"/>
      <point x="2351" y="268" type="curve" smooth="yes"/>
      <point x="2334" y="268"/>
      <point x="2317" y="269"/>
      <point x="2302" y="271" type="curve"/>
    </contour>
    <contour>
      <point x="1126" y="1177" type="curve" smooth="yes"/>
      <point x="437" y="1177"/>
      <point x="102" y="913"/>
      <point x="102" y="503" type="curve" smooth="yes"/>
      <point x="102" y="495" type="line" smooth="yes"/>
      <point x="102" y="192"/>
      <point x="251" y="-26"/>
      <point x="631" y="-26" type="curve" smooth="yes"/>
      <point x="980" y="-26"/>
      <point x="1103" y="141"/>
      <point x="1103" y="377" type="curve" smooth="yes"/>
      <point x="1103" y="377" type="line" smooth="yes"/>
      <point x="1103" y="598"/>
      <point x="992" y="716"/>
      <point x="776" y="716" type="curve" smooth="yes"/>
      <point x="585" y="716"/>
      <point x="485" y="627"/>
      <point x="464" y="512" type="curve"/>
      <point x="451" y="512" type="line"/>
      <point x="455" y="391" type="line"/>
      <point x="478" y="419"/>
      <point x="535" y="445"/>
      <point x="610" y="445" type="curve" smooth="yes"/>
      <point x="704" y="445"/>
      <point x="744" y="412"/>
      <point x="744" y="350" type="curve" smooth="yes"/>
      <point x="744" y="350" type="line" smooth="yes"/>
      <point x="744" y="296"/>
      <point x="707" y="255"/>
      <point x="619" y="255" type="curve" smooth="yes"/>
      <point x="510" y="255"/>
      <point x="466" y="304"/>
      <point x="466" y="389" type="curve"/>
      <point x="466" y="512" type="line"/>
      <point x="454" y="512" type="line"/>
      <point x="454" y="512"/>
      <point x="454" y="512"/>
      <point x="454" y="512" type="curve"/>
      <point x="471" y="752"/>
      <point x="685" y="882"/>
      <point x="1142" y="882" type="curve" smooth="yes"/>
      <point x="1413" y="882"/>
      <point x="1595" y="850"/>
      <point x="1705" y="806" type="curve"/>
      <point x="1718" y="803" type="line"/>
      <point x="1844" y="766"/>
      <point x="1895" y="658"/>
      <point x="1895" y="512" type="curve" smooth="yes"/>
      <point x="1895" y="502" type="line" smooth="yes"/>
      <point x="1895" y="359"/>
      <point x="1862" y="275"/>
      <point x="1760" y="275" type="curve" smooth="yes"/>
      <point x="1658" y="275"/>
      <point x="1617" y="359"/>
      <point x="1617" y="502" type="curve" smooth="yes"/>
      <point x="1617" y="514" type="line" smooth="yes"/>
      <point x="1617" y="658"/>
      <point x="1668" y="766"/>
      <point x="1800" y="803" type="curve"/>
      <point x="1668" y="996" type="line"/>
      <point x="1364" y="949"/>
      <point x="1242" y="729"/>
      <point x="1242" y="489" type="curve" smooth="yes"/>
      <point x="1242" y="479" type="line" smooth="yes"/>
      <point x="1242" y="183"/>
      <point x="1392" y="-26"/>
      <point x="1763" y="-26" type="curve" smooth="yes"/>
      <point x="2133" y="-26"/>
      <point x="2268" y="183"/>
      <point x="2268" y="479" type="curve" smooth="yes"/>
      <point x="2268" y="489" type="line" smooth="yes"/>
      <point x="2268" y="729"/>
      <point x="2154" y="908"/>
      <point x="1906" y="1019" type="curve"/>
      <point x="1902" y="1021" type="line"/>
      <point x="1750" y="1107"/>
      <point x="1518" y="1177"/>
    </contour>
  </outline>
</glyph>
<glyph name="Om.tm" format="2">
  <advance width="2778"/>
  <unicode hex="0BD0"/>
  <note>
Om.tm
</note>
  <outline>
    <contour>
      <point x="1367" y="1329" type="curve" smooth="yes"/>
      <point x="508" y="1329"/>
      <point x="80" y="1026"/>
      <point x="80" y="563" type="curve" smooth="yes"/>
      <point x="80" y="554" type="line" smooth="yes"/>
      <point x="80" y="271"/>
      <point x="230" y="67"/>
      <point x="610" y="67" type="curve" smooth="yes"/>
      <point x="951" y="67"/>
      <point x="1071" y="224"/>
      <point x="1071" y="444" type="curve" smooth="yes"/>
      <point x="1071" y="444" type="line" smooth="yes"/>
      <point x="1071" y="655"/>
      <point x="962" y="766"/>
      <point x="749" y="766" type="curve" smooth="yes"/>
      <point x="563" y="766"/>
      <point x="463" y="683"/>
      <point x="441" y="574" type="curve"/>
      <point x="427" y="574" type="line"/>
      <point x="434" y="451" type="line"/>
      <point x="457" y="479"/>
      <point x="513" y="505"/>
      <point x="589" y="505" type="curve" smooth="yes"/>
      <point x="682" y="505"/>
      <point x="722" y="475"/>
      <point x="722" y="417" type="curve" smooth="yes"/>
      <point x="722" y="417" type="line" smooth="yes"/>
      <point x="722" y="368"/>
      <point x="686" y="331"/>
      <point x="598" y="331" type="curve" smooth="yes"/>
      <point x="488" y="331"/>
      <point x="444" y="378"/>
      <point x="444" y="458" type="curve"/>
      <point x="444" y="574" type="line"/>
      <point x="432" y="574" type="line"/>
      <point x="432" y="868"/>
      <point x="764" y="1028"/>
      <point x="1367" y="1028" type="curve" smooth="yes"/>
      <point x="2032" y="1028"/>
      <point x="2284" y="863"/>
      <point x="2284" y="528" type="curve" smooth="yes"/>
      <point x="2284" y="528" type="line" smooth="yes"/>
      <point x="2284" y="392"/>
      <point x="2259" y="340"/>
      <point x="2166" y="340" type="curve" smooth="yes"/>
      <point x="2067" y="340"/>
      <point x="2034" y="400"/>
      <point x="2034" y="528" type="curve" smooth="yes"/>
      <point x="2034" y="605"/>
      <point x="2042" y="660"/>
      <point x="2062" y="741" type="curve"/>
      <point x="1734" y="741" type="line"/>
      <point x="1719" y="686"/>
      <point x="1701" y="602"/>
      <point x="1701" y="524" type="curve" smooth="yes"/>
      <point x="1701" y="241"/>
      <point x="1810" y="107"/>
      <point x="2167" y="107" type="curve"/>
      <point x="2292" y="107"/>
      <point x="2387" y="132"/>
      <point x="2460" y="172" type="curve"/>
      <point x="2593" y="243"/>
      <point x="2643" y="392"/>
      <point x="2643" y="570" type="curve" smooth="yes"/>
      <point x="2643" y="570" type="line" smooth="yes"/>
      <point x="2643" y="1015"/>
      <point x="2289" y="1329"/>
    </contour>
    <contour>
      <point x="2702" y="280" type="line"/>
      <point x="2335" y="280" type="line"/>
      <point x="2194" y="116" type="line"/>
      <point x="2194" y="97" type="line"/>
      <point x="2067" y="97"/>
      <point x="2026" y="50"/>
      <point x="1997" y="-79" type="curve" smooth="yes"/>
      <point x="1991" y="-106" type="line" smooth="yes"/>
      <point x="1933" y="-367"/>
      <point x="1815" y="-482"/>
      <point x="1404" y="-482" type="curve" smooth="yes"/>
      <point x="942" y="-482"/>
      <point x="775" y="-324"/>
      <point x="775" y="16" type="curve" smooth="yes"/>
      <point x="775" y="51"/>
      <point x="779" y="88"/>
      <point x="784" y="121" type="curve"/>
      <point x="434" y="121" type="line"/>
      <point x="427" y="95"/>
      <point x="423" y="49"/>
      <point x="423" y="-11" type="curve" smooth="yes"/>
      <point x="423" y="-477"/>
      <point x="752" y="-764"/>
      <point x="1416" y="-764" type="curve" smooth="yes"/>
      <point x="2048" y="-764"/>
      <point x="2244" y="-537"/>
      <point x="2343" y="-116" type="curve" smooth="yes"/>
      <point x="2347" y="-99" type="line" smooth="yes"/>
      <point x="2362" y="-34"/>
      <point x="2373" y="-5"/>
      <point x="2460" y="-4" type="curve" smooth="yes"/>
      <point x="2669" y="-2" type="line"/>
    </contour>
    <contour>
      <point x="1007" y="99" type="line"/>
      <point x="1007" y="-348" type="line"/>
      <point x="1536" y="-348" type="line" smooth="yes"/>
      <point x="1773" y="-348"/>
      <point x="1875" y="-264"/>
      <point x="1875" y="-77" type="curve" smooth="yes"/>
      <point x="1875" y="-74" type="line" smooth="yes"/>
      <point x="1875" y="99"/>
      <point x="1784" y="185"/>
      <point x="1544" y="185" type="curve" smooth="yes"/>
      <point x="1344" y="185" type="line"/>
      <point x="1344" y="-310" type="line"/>
      <point x="1532" y="-310" type="line"/>
      <point x="1532" y="30" type="line"/>
      <point x="1555" y="30" type="line" smooth="yes"/>
      <point x="1655" y="30"/>
      <point x="1685" y="-5"/>
      <point x="1685" y="-72" type="curve" smooth="yes"/>
      <point x="1685" y="-77" type="line" smooth="yes"/>
      <point x="1685" y="-160"/>
      <point x="1659" y="-194"/>
      <point x="1548" y="-194" type="curve" smooth="yes"/>
      <point x="1215" y="-194" type="line"/>
      <point x="1215" y="99" type="line"/>
    </contour>
    <contour>
      <point x="1409" y="252" type="curve" smooth="yes"/>
      <point x="1504" y="252"/>
      <point x="1544" y="296"/>
      <point x="1544" y="370" type="curve" smooth="yes"/>
      <point x="1544" y="370" type="line" smooth="yes"/>
      <point x="1544" y="442"/>
      <point x="1500" y="484"/>
      <point x="1409" y="484" type="curve" smooth="yes"/>
      <point x="1317" y="484"/>
      <point x="1273" y="442"/>
      <point x="1273" y="370" type="curve" smooth="yes"/>
      <point x="1273" y="370" type="line" smooth="yes"/>
      <point x="1273" y="296"/>
      <point x="1314" y="252"/>
    </contour>
    <contour>
      <point x="1215" y="93" type="line"/>
      <point x="1215" y="120" type="line" smooth="yes"/>
      <point x="1215" y="280"/>
      <point x="1147" y="350"/>
      <point x="1014" y="367" type="curve"/>
      <point x="952" y="170" type="line"/>
      <point x="990" y="167"/>
      <point x="1007" y="148"/>
      <point x="1007" y="93" type="curve"/>
    </contour>
  </outline>
</glyph>
<glyph name="Two.tm" format="2">
  <advance width="2490"/>
  <unicode hex="0BE8"/>
  <note>
Two.tm
</note>
  <outline>
    <contour>
      <point x="705" y="419" type="curve"/>
      <point x="938" y="524" type="line"/>
      <point x="658" y="528"/>
      <point x="512" y="597"/>
      <point x="512" y="736" type="curve"/>
      <point x="512" y="737" type="line"/>
      <point x="512" y="855"/>
      <point x="623" y="929"/>
      <point x="859" y="929" type="curve" smooth="yes"/>
      <point x="1110" y="929"/>
      <point x="1216" y="854"/>
      <point x="1216" y="743" type="curve" smooth="yes"/>
      <point x="1216" y="743" type="line" smooth="yes"/>
      <point x="1216" y="630"/>
      <point x="1151" y="561"/>
      <point x="899" y="547" type="curve" smooth="yes"/>
      <point x="371" y="517" type="line" smooth="yes"/>
      <point x="200" y="509"/>
      <point x="100" y="426"/>
      <point x="100" y="260" type="curve" smooth="yes"/>
      <point x="100" y="171"/>
      <point x="121" y="76"/>
      <point x="163" y="0" type="curve"/>
      <point x="2439" y="0" type="line"/>
      <point x="2490" y="264" type="line"/>
      <point x="406" y="264" type="line"/>
      <point x="405" y="268"/>
      <point x="403" y="273"/>
      <point x="403" y="278" type="curve" smooth="yes"/>
      <point x="403" y="289"/>
      <point x="406" y="294"/>
      <point x="420" y="294" type="curve" smooth="yes"/>
      <point x="941" y="312" type="line" smooth="yes"/>
      <point x="1422" y="327"/>
      <point x="1575" y="465"/>
      <point x="1575" y="748" type="curve" smooth="yes"/>
      <point x="1575" y="748" type="line" smooth="yes"/>
      <point x="1575" y="1038"/>
      <point x="1341" y="1209"/>
      <point x="859" y="1209" type="curve" smooth="yes"/>
      <point x="399" y="1209"/>
      <point x="148" y="1054"/>
      <point x="148" y="790" type="curve" smooth="yes"/>
      <point x="148" y="788" type="line" smooth="yes"/>
      <point x="148" y="568"/>
      <point x="309" y="433"/>
    </contour>
  </outline>
</glyph>
<glyph name="Three.tm" format="2">
  <advance width="2428"/>
  <unicode hex="0BE9"/>
  <note>
Three.tm
</note>
  <outline>
    <contour>
      <point x="854" y="1037" type="line"/>
      <point x="854" y="0" type="line"/>
      <point x="1229" y="0" type="line"/>
      <point x="1229" y="1037" type="line"/>
    </contour>
    <contour>
      <point x="1599" y="743" type="curve" smooth="yes"/>
      <point x="1352" y="743"/>
      <point x="1252" y="627"/>
      <point x="1238" y="491" type="curve"/>
      <point x="1206" y="491" type="line"/>
      <point x="1206" y="356" type="line"/>
      <point x="1215" y="356" type="line"/>
      <point x="1249" y="401"/>
      <point x="1317" y="440"/>
      <point x="1400" y="440" type="curve" smooth="yes"/>
      <point x="1525" y="440"/>
      <point x="1565" y="373"/>
      <point x="1565" y="255" type="curve" smooth="yes"/>
      <point x="1565" y="255" type="line" smooth="yes"/>
      <point x="1565" y="146"/>
      <point x="1539" y="79"/>
      <point x="1484" y="19" type="curve"/>
      <point x="1484" y="0" type="line"/>
      <point x="2371" y="0" type="line"/>
      <point x="2428" y="292" type="line"/>
      <point x="1747" y="292" type="line"/>
      <point x="1875" y="215" type="line"/>
      <point x="1903" y="268"/>
      <point x="1926" y="343"/>
      <point x="1926" y="440" type="curve" smooth="yes"/>
      <point x="1926" y="445" type="line" smooth="yes"/>
      <point x="1926" y="632"/>
      <point x="1822" y="743"/>
    </contour>
    <contour>
      <point x="1278" y="1135" type="line"/>
      <point x="146" y="1135" type="line"/>
      <point x="146" y="0" type="line"/>
      <point x="521" y="0" type="line"/>
      <point x="521" y="845" type="line"/>
      <point x="1278" y="845" type="line"/>
    </contour>
    <component base="RaBeak_Nonexporting" xOffset="1211"/>
  </outline>
</glyph>
<glyph name="Four.tm" format="2">
  <advance width="2123"/>
  <unicode hex="0BEA"/>
  <note>
Four.tm
</note>
  <outline>
    <contour>
      <point x="1262" y="445" type="line"/>
      <point x="1897" y="445" type="line"/>
      <point x="1887" y="732" type="line"/>
      <point x="1262" y="732" type="line"/>
    </contour>
    <contour>
      <point x="1686" y="1135" type="line"/>
      <point x="1686" y="445" type="line"/>
      <point x="2035" y="445" type="line"/>
      <point x="2035" y="1135" type="line"/>
    </contour>
    <component base="KaComponent_Nonexporting" xOffset="30"/>
    <component base="KaBeak_Nonexporting" xOffset="1180"/>
  </outline>
</glyph>
<glyph name="Ten.tm" format="2">
  <advance width="2069"/>
  <unicode hex="0BF0"/>
  <note>
Ten.tm
</note>
  <outline>
    <contour>
      <point x="946" y="1700" type="curve" smooth="yes"/>
      <point x="614" y="1700"/>
      <point x="307" y="1626"/>
      <point x="100" y="1542" type="curve"/>
      <point x="33" y="1228" type="line"/>
      <point x="314" y="1325"/>
      <point x="630" y="1396"/>
      <point x="929" y="1396" type="curve" smooth="yes"/>
      <point x="1462" y="1396"/>
      <point x="1589" y="1216"/>
      <point x="1589" y="820" type="curve" smooth="yes"/>
      <point x="1589" y="780" type="line"/>
      <point x="1589" y="442"/>
      <point x="1531" y="273"/>
      <point x="1372" y="273" type="curve" smooth="yes"/>
      <point x="1238" y="273"/>
      <point x="1172" y="348"/>
      <point x="1172" y="510" type="curve" smooth="yes"/>
      <point x="1172" y="1135" type="line"/>
      <point x="797" y="1135" type="line"/>
      <point x="797" y="442" type="line" smooth="yes"/>
      <point x="797" y="324"/>
      <point x="754" y="276"/>
      <point x="659" y="276" type="curve" smooth="yes"/>
      <point x="573" y="276"/>
      <point x="515" y="324"/>
      <point x="515" y="442" type="curve" smooth="yes"/>
      <point x="515" y="1135" type="line"/>
      <point x="140" y="1135" type="line"/>
      <point x="140" y="466" type="line" smooth="yes"/>
      <point x="140" y="121"/>
      <point x="302" y="-26"/>
      <point x="605" y="-26" type="curve" smooth="yes"/>
      <point x="841" y="-26"/>
      <point x="962" y="83"/>
      <point x="988" y="280" type="curve"/>
      <point x="999" y="280" type="line"/>
      <point x="1035" y="74"/>
      <point x="1180" y="-30"/>
      <point x="1451" y="-30" type="curve" smooth="yes"/>
      <point x="1809" y="-30"/>
      <point x="1971" y="246"/>
      <point x="1971" y="780" type="curve" smooth="yes"/>
      <point x="1971" y="820" type="line" smooth="yes"/>
      <point x="1971" y="1424"/>
      <point x="1717" y="1700"/>
    </contour>
  </outline>
</glyph>
<glyph name="Hundred.tm" format="2">
  <advance width="2093"/>
  <unicode hex="0BF1"/>
  <note>
Hundred.tm
</note>
  <outline>
    <contour>
      <point x="1504" y="1054" type="line"/>
      <point x="1504" y="0" type="line"/>
      <point x="1879" y="0" type="line"/>
      <point x="1879" y="1054" type="line"/>
    </contour>
    <contour>
      <point x="1720" y="1137" type="line"/>
      <point x="939" y="1137" type="line"/>
      <point x="939" y="954" type="line"/>
      <point x="929" y="954" type="line"/>
      <point x="902" y="1086"/>
      <point x="798" y="1162"/>
      <point x="587" y="1162" type="curve" smooth="yes"/>
      <point x="296" y="1162"/>
      <point x="140" y="1014"/>
      <point x="140" y="669" type="curve" smooth="yes"/>
      <point x="140" y="0" type="line"/>
      <point x="515" y="0" type="line"/>
      <point x="515" y="694" type="line" smooth="yes"/>
      <point x="515" y="812"/>
      <point x="573" y="859"/>
      <point x="659" y="859" type="curve" smooth="yes"/>
      <point x="754" y="859"/>
      <point x="796" y="806"/>
      <point x="796" y="676" type="curve" smooth="yes"/>
      <point x="796" y="0" type="line"/>
      <point x="1171" y="0" type="line"/>
      <point x="1171" y="845" type="line"/>
      <point x="1720" y="845" type="line"/>
    </contour>
    <component base="RaBeak_Nonexporting" xOffset="1515"/>
  </outline>
</glyph>
<glyph name="MonthSign.tm" format="2">
  <advance width="2114"/>
  <unicode hex="0BF4"/>
  <note>
MonthSign.tm
</note>
  <anchor x="1121" y="1218" name="top"/>
  <outline>
    <contour>
      <point x="2313" y="2001" type="curve" smooth="yes"/>
      <point x="2003" y="2001"/>
      <point x="1858" y="1844"/>
      <point x="1858" y="1603" type="curve" smooth="yes"/>
      <point x="1858" y="1603" type="line"/>
      <point x="1845" y="1603" type="line"/>
      <point x="1810" y="1751"/>
      <point x="1689" y="1813"/>
      <point x="1514" y="1813" type="curve" smooth="yes"/>
      <point x="1270" y="1813"/>
      <point x="1105" y="1679"/>
      <point x="1105" y="1452" type="curve"/>
      <point x="1105" y="1452" type="line" smooth="yes"/>
      <point x="1105" y="1292"/>
      <point x="1153" y="1186"/>
      <point x="1209" y="1119" type="curve"/>
      <point x="1570" y="1109" type="line"/>
      <point x="1507" y="1169"/>
      <point x="1455" y="1263"/>
      <point x="1455" y="1366" type="curve" smooth="yes"/>
      <point x="1455" y="1366" type="line"/>
      <point x="1455" y="1457"/>
      <point x="1492" y="1510"/>
      <point x="1575" y="1510" type="curve" smooth="yes"/>
      <point x="1653" y="1510"/>
      <point x="1688" y="1459"/>
      <point x="1688" y="1376" type="curve" smooth="yes"/>
      <point x="1688" y="1331" type="line"/>
      <point x="2044" y="1331" type="line"/>
      <point x="2044" y="1505" type="line" smooth="yes"/>
      <point x="2044" y="1639"/>
      <point x="2100" y="1695"/>
      <point x="2206" y="1695" type="curve" smooth="yes"/>
      <point x="2315" y="1695"/>
      <point x="2352" y="1630"/>
      <point x="2352" y="1519" type="curve" smooth="yes"/>
      <point x="2352" y="1519" type="line" smooth="yes"/>
      <point x="2352" y="1422"/>
      <point x="2327" y="1357"/>
      <point x="2281" y="1304" type="curve"/>
      <point x="2281" y="1278" type="line"/>
      <point x="3022" y="1278" type="line"/>
      <point x="3056" y="1559" type="line"/>
      <point x="2549" y="1559" type="line"/>
      <point x="2665" y="1470" type="line"/>
      <point x="2690" y="1521"/>
      <point x="2711" y="1589"/>
      <point x="2711" y="1677" type="curve" smooth="yes"/>
      <point x="2711" y="1683" type="line" smooth="yes"/>
      <point x="2711" y="1881"/>
      <point x="2588" y="2001"/>
    </contour>
    <component base="Ma.tm"/>
  </outline>
</glyph>
<glyph name="YearSign.tm" format="2">
  <advance width="5866"/>
  <unicode hex="0BF5"/>
  <note>
YearSign.tm
</note>
  <outline>
    <contour>
      <point x="3326" y="1052" type="line"/>
      <point x="3326" y="0" type="line"/>
      <point x="3701" y="0" type="line"/>
      <point x="3701" y="1052" type="line"/>
    </contour>
    <contour>
      <point x="2417" y="0" type="line"/>
      <point x="2772" y="0" type="line"/>
      <point x="2772" y="292" type="line"/>
      <point x="2399" y="292" type="line"/>
    </contour>
    <contour>
      <point x="2429" y="1816" type="line" smooth="yes"/>
      <point x="855" y="1816"/>
      <point x="110" y="1392"/>
      <point x="110" y="565" type="curve" smooth="yes"/>
      <point x="110" y="554" type="line" smooth="yes"/>
      <point x="110" y="-327"/>
      <point x="829" y="-750"/>
      <point x="2412" y="-750" type="curve" smooth="yes"/>
      <point x="2480" y="-750" type="line" smooth="yes"/>
      <point x="3823" y="-750"/>
      <point x="4411" y="-410"/>
      <point x="4411" y="224" type="curve" smooth="yes"/>
      <point x="4411" y="224" type="line" smooth="yes"/>
      <point x="4411" y="546"/>
      <point x="4293" y="716"/>
      <point x="4030" y="716" type="curve" smooth="yes"/>
      <point x="3839" y="716"/>
      <point x="3733" y="621"/>
      <point x="3710" y="488" type="curve"/>
      <point x="3656" y="488" type="line"/>
      <point x="3656" y="312" type="line"/>
      <point x="3680" y="312" type="line"/>
      <point x="3708" y="370"/>
      <point x="3772" y="410"/>
      <point x="3861" y="410" type="curve" smooth="yes"/>
      <point x="3979" y="410"/>
      <point x="4029" y="343"/>
      <point x="4029" y="206" type="curve"/>
      <point x="4029" y="206" type="line" smooth="yes"/>
      <point x="4029" y="-202"/>
      <point x="3588" y="-440"/>
      <point x="2486" y="-440" type="curve" smooth="yes"/>
      <point x="2401" y="-440" type="line" smooth="yes"/>
      <point x="1044" y="-440"/>
      <point x="494" y="-121"/>
      <point x="494" y="554" type="curve" smooth="yes"/>
      <point x="494" y="565" type="line" smooth="yes"/>
      <point x="494" y="1188"/>
      <point x="1065" y="1507"/>
      <point x="2419" y="1507" type="curve" smooth="yes"/>
      <point x="2503" y="1507" type="line" smooth="yes"/>
      <point x="3994" y="1507"/>
      <point x="4565" y="1174"/>
      <point x="4645" y="533" type="curve" smooth="yes"/>
      <point x="4650" y="493" type="line" smooth="yes"/>
      <point x="4694" y="144"/>
      <point x="4824" y="-26"/>
      <point x="5216" y="-26" type="curve" smooth="yes"/>
      <point x="5624" y="-26"/>
      <point x="5766" y="171"/>
      <point x="5766" y="567" type="curve" smooth="yes"/>
      <point x="5766" y="576" type="line" smooth="yes"/>
      <point x="5766" y="952"/>
      <point x="5636" y="1172"/>
      <point x="5212" y="1172" type="curve" smooth="yes"/>
      <point x="5174" y="1172"/>
      <point x="5132" y="1168"/>
      <point x="5105" y="1163" type="curve"/>
      <point x="5041" y="855" type="line"/>
      <point x="5066" y="859"/>
      <point x="5095" y="861"/>
      <point x="5128" y="861" type="curve" smooth="yes"/>
      <point x="5323" y="861"/>
      <point x="5384" y="764"/>
      <point x="5384" y="558" type="curve" smooth="yes"/>
      <point x="5384" y="551" type="line" smooth="yes"/>
      <point x="5384" y="366"/>
      <point x="5344" y="278"/>
      <point x="5216" y="278" type="curve" smooth="yes"/>
      <point x="5077" y="278"/>
      <point x="5049" y="355"/>
      <point x="5020" y="523" type="curve" smooth="yes"/>
      <point x="5014" y="558" type="line" smooth="yes"/>
      <point x="4867" y="1414"/>
      <point x="4174" y="1816"/>
      <point x="2498" y="1816" type="curve" smooth="yes"/>
    </contour>
    <contour>
      <point x="3757" y="1137" type="line"/>
      <point x="2637" y="1137" type="line"/>
      <point x="2637" y="0" type="line"/>
      <point x="3012" y="0" type="line"/>
      <point x="3012" y="845" type="line"/>
      <point x="3757" y="845" type="line"/>
    </contour>
    <component base="Va_NonExporting" xOffset="691"/>
    <component base="RaBeak_Nonexporting" xOffset="3499"/>
  </outline>
</glyph>
<glyph name="CreditSign.tm" format="2">
  <advance width="3521"/>
  <unicode hex="0BF7"/>
  <note>
CreditSign.tm
</note>
  <outline>
    <contour>
      <point x="2604" y="769" type="curve" smooth="yes"/>
      <point x="2308" y="769"/>
      <point x="2167" y="649"/>
      <point x="2167" y="482" type="curve" smooth="yes"/>
      <point x="2167" y="482" type="line"/>
      <point x="2157" y="482" type="line"/>
      <point x="2125" y="665"/>
      <point x="2024" y="732"/>
      <point x="1792" y="732" type="curve" smooth="yes"/>
      <point x="1548" y="732" type="line"/>
      <point x="1548" y="444" type="line"/>
      <point x="1750" y="444" type="line" smooth="yes"/>
      <point x="1910" y="444"/>
      <point x="1956" y="389"/>
      <point x="1956" y="215" type="curve" smooth="yes"/>
      <point x="1956" y="0" type="line"/>
      <point x="2331" y="0" type="line"/>
      <point x="2331" y="260" type="line" smooth="yes"/>
      <point x="2331" y="391"/>
      <point x="2392" y="466"/>
      <point x="2503" y="466" type="curve" smooth="yes"/>
      <point x="2618" y="466"/>
      <point x="2658" y="396"/>
      <point x="2658" y="273" type="curve" smooth="yes"/>
      <point x="2658" y="273" type="line" smooth="yes"/>
      <point x="2658" y="155"/>
      <point x="2632" y="84"/>
      <point x="2577" y="19" type="curve"/>
      <point x="2577" y="0" type="line"/>
      <point x="3464" y="0" type="line"/>
      <point x="3521" y="292" type="line"/>
      <point x="2840" y="292" type="line"/>
      <point x="2968" y="215" type="line"/>
      <point x="2996" y="268"/>
      <point x="3019" y="343"/>
      <point x="3019" y="440" type="curve" smooth="yes"/>
      <point x="3019" y="445" type="line" smooth="yes"/>
      <point x="3019" y="648"/>
      <point x="2889" y="769"/>
    </contour>
    <component base="VowelE.tm"/>
  </outline>
</glyph>
<glyph name="RupeeSign.tm" format="2">
  <advance width="4145"/>
  <unicode hex="0BF9"/>
  <note>
RupeeSign.tm
</note>
  <outline>
    <contour>
      <point x="1538" y="1054" type="line"/>
      <point x="1538" y="0" type="line"/>
      <point x="1913" y="0" type="line"/>
      <point x="1913" y="1054" type="line"/>
    </contour>
    <contour>
      <point x="2242" y="716" type="curve" smooth="yes"/>
      <point x="2052" y="716"/>
      <point x="1946" y="621"/>
      <point x="1924" y="488" type="curve"/>
      <point x="1869" y="488" type="line"/>
      <point x="1869" y="312" type="line"/>
      <point x="1894" y="312" type="line"/>
      <point x="1920" y="370"/>
      <point x="1985" y="410"/>
      <point x="2073" y="410" type="curve" smooth="yes"/>
      <point x="2189" y="410"/>
      <point x="2239" y="343"/>
      <point x="2239" y="206" type="curve" smooth="yes"/>
      <point x="2239" y="206" type="line" smooth="yes"/>
      <point x="2239" y="-97"/>
      <point x="2015" y="-275"/>
      <point x="1477" y="-275" type="curve" smooth="yes"/>
      <point x="1471" y="-275" type="line" smooth="yes"/>
      <point x="785" y="-275"/>
      <point x="498" y="2"/>
      <point x="498" y="595" type="curve" smooth="yes"/>
      <point x="498" y="609" type="line"/>
      <point x="498" y="1193"/>
      <point x="834" y="1464"/>
      <point x="1610" y="1464" type="curve" smooth="yes"/>
      <point x="1619" y="1464" type="line" smooth="yes"/>
      <point x="2408" y="1464"/>
      <point x="2738" y="1193"/>
      <point x="2738" y="656" type="curve"/>
      <point x="2738" y="642" type="line"/>
      <point x="3106" y="642" type="line"/>
      <point x="3106" y="746" type="line" smooth="yes"/>
      <point x="3106" y="884"/>
      <point x="3168" y="950"/>
      <point x="3284" y="950" type="curve" smooth="yes"/>
      <point x="3405" y="950"/>
      <point x="3448" y="878"/>
      <point x="3448" y="760" type="curve" smooth="yes"/>
      <point x="3448" y="760" type="line" smooth="yes"/>
      <point x="3448" y="653"/>
      <point x="3425" y="588"/>
      <point x="3377" y="528" type="curve"/>
      <point x="3377" y="502" type="line"/>
      <point x="4111" y="502" type="line"/>
      <point x="4145" y="781" type="line"/>
      <point x="3643" y="781" type="line"/>
      <point x="3757" y="692" type="line"/>
      <point x="3782" y="746"/>
      <point x="3803" y="822"/>
      <point x="3803" y="917" type="curve" smooth="yes"/>
      <point x="3803" y="922" type="line" smooth="yes"/>
      <point x="3803" y="1132"/>
      <point x="3671" y="1260"/>
      <point x="3379" y="1260" type="curve" smooth="yes"/>
      <point x="3110" y="1260"/>
      <point x="2981" y="1130"/>
      <point x="2978" y="947" type="curve" smooth="yes"/>
      <point x="2978" y="947" type="line"/>
      <point x="2965" y="947" type="line"/>
      <point x="2925" y="1452"/>
      <point x="2429" y="1778"/>
      <point x="1619" y="1778" type="curve" smooth="yes"/>
      <point x="1610" y="1778" type="line" smooth="yes"/>
      <point x="619" y="1778"/>
      <point x="116" y="1390"/>
      <point x="116" y="612" type="curve"/>
      <point x="116" y="591" type="line" smooth="yes"/>
      <point x="116" y="-195"/>
      <point x="565" y="-588"/>
      <point x="1471" y="-588" type="curve" smooth="yes"/>
      <point x="1478" y="-588" type="line" smooth="yes"/>
      <point x="2246" y="-588"/>
      <point x="2621" y="-297"/>
      <point x="2621" y="224" type="curve" smooth="yes"/>
      <point x="2621" y="224" type="line" smooth="yes"/>
      <point x="2621" y="546"/>
      <point x="2504" y="716"/>
    </contour>
    <contour>
      <point x="1990" y="1137" type="line"/>
      <point x="849" y="1137" type="line"/>
      <point x="849" y="2" type="line"/>
      <point x="1224" y="2" type="line"/>
      <point x="1224" y="845" type="line"/>
      <point x="1990" y="845" type="line"/>
    </contour>
    <component base="RaBeak_Nonexporting" xOffset="1784"/>
  </outline>
</glyph>
<glyph name="NumberSign.tm" format="2">
  <advance width="2017"/>
  <unicode hex="0BFA"/>
  <note>
NumberSign.tm
</note>
  <anchor x="1027" y="1218" name="top"/>
  <outline>
    <contour>
      <point x="1953" y="2001" type="curve" smooth="yes"/>
      <point x="1643" y="2001"/>
      <point x="1498" y="1844"/>
      <point x="1498" y="1603" type="curve" smooth="yes"/>
      <point x="1498" y="1603" type="line"/>
      <point x="1486" y="1603" type="line"/>
      <point x="1450" y="1751"/>
      <point x="1329" y="1813"/>
      <point x="1154" y="1813" type="curve" smooth="yes"/>
      <point x="910" y="1813"/>
      <point x="745" y="1679"/>
      <point x="745" y="1452" type="curve" smooth="yes"/>
      <point x="745" y="1451" type="line"/>
      <point x="745" y="1298"/>
      <point x="789" y="1191"/>
      <point x="840" y="1123" type="curve"/>
      <point x="1194" y="1123" type="line"/>
      <point x="1140" y="1182"/>
      <point x="1095" y="1271"/>
      <point x="1095" y="1366" type="curve" smooth="yes"/>
      <point x="1095" y="1366" type="line"/>
      <point x="1095" y="1457"/>
      <point x="1132" y="1510"/>
      <point x="1215" y="1510" type="curve" smooth="yes"/>
      <point x="1293" y="1510"/>
      <point x="1328" y="1459"/>
      <point x="1328" y="1376" type="curve" smooth="yes"/>
      <point x="1328" y="1331" type="line"/>
      <point x="1684" y="1331" type="line"/>
      <point x="1684" y="1505" type="line" smooth="yes"/>
      <point x="1684" y="1639"/>
      <point x="1740" y="1695"/>
      <point x="1846" y="1695" type="curve" smooth="yes"/>
      <point x="1955" y="1695"/>
      <point x="1992" y="1630"/>
      <point x="1992" y="1519" type="curve" smooth="yes"/>
      <point x="1992" y="1519" type="line" smooth="yes"/>
      <point x="1992" y="1422"/>
      <point x="1967" y="1357"/>
      <point x="1922" y="1304" type="curve"/>
      <point x="1922" y="1278" type="line"/>
      <point x="2663" y="1278" type="line"/>
      <point x="2696" y="1559" type="line"/>
      <point x="2189" y="1559" type="line"/>
      <point x="2305" y="1470" type="line"/>
      <point x="2330" y="1521"/>
      <point x="2351" y="1589"/>
      <point x="2351" y="1677" type="curve" smooth="yes"/>
      <point x="2351" y="1683" type="line" smooth="yes"/>
      <point x="2351" y="1881"/>
      <point x="2228" y="2001"/>
    </contour>
    <component base="Na.tm"/>
  </outline>
</glyph>
<glyph name="AsAboveSign_Simple.tm" format="2">
  <advance width="4460"/>
  <note>
AsAboveSign.tm
</note>
  <outline>
    <contour>
      <point x="900" y="1329" type="curve" smooth="yes"/>
      <point x="374" y="1329"/>
      <point x="112" y="1042"/>
      <point x="112" y="567" type="curve" smooth="yes"/>
      <point x="112" y="555" type="line" smooth="yes"/>
      <point x="112" y="217"/>
      <point x="267" y="-26"/>
      <point x="661" y="-26" type="curve" smooth="yes"/>
      <point x="1024" y="-26"/>
      <point x="1152" y="145"/>
      <point x="1152" y="387" type="curve" smooth="yes"/>
      <point x="1152" y="387" type="line" smooth="yes"/>
      <point x="1152" y="616"/>
      <point x="1034" y="739"/>
      <point x="806" y="739" type="curve" smooth="yes"/>
      <point x="603" y="739"/>
      <point x="496" y="646"/>
      <point x="474" y="526" type="curve"/>
      <point x="461" y="526" type="line"/>
      <point x="465" y="401" type="line"/>
      <point x="492" y="436"/>
      <point x="558" y="468"/>
      <point x="645" y="468" type="curve" smooth="yes"/>
      <point x="749" y="468"/>
      <point x="793" y="430"/>
      <point x="793" y="360" type="curve" smooth="yes"/>
      <point x="793" y="360" type="line" smooth="yes"/>
      <point x="793" y="300"/>
      <point x="752" y="255"/>
      <point x="654" y="255" type="curve" smooth="yes"/>
      <point x="533" y="255"/>
      <point x="476" y="326"/>
      <point x="476" y="449" type="curve"/>
      <point x="476" y="526" type="line"/>
      <point x="466" y="526" type="line"/>
      <point x="466" y="547"/>
      <point x="466" y="547"/>
      <point x="466" y="567" type="curve" smooth="yes"/>
      <point x="466" y="842"/>
      <point x="614" y="1016"/>
      <point x="911" y="1016" type="curve" smooth="yes"/>
      <point x="1186" y="1016"/>
      <point x="1328" y="862"/>
      <point x="1339" y="623" type="curve"/>
      <point x="1594" y="873" type="line"/>
      <point x="1543" y="1114"/>
      <point x="1293" y="1329"/>
    </contour>
    <contour>
      <point x="1303" y="503" type="curve" smooth="yes"/>
      <point x="1303" y="495" type="line" smooth="yes"/>
      <point x="1303" y="192"/>
      <point x="1452" y="-26"/>
      <point x="1832" y="-26" type="curve" smooth="yes"/>
      <point x="2181" y="-26"/>
      <point x="2304" y="141"/>
      <point x="2304" y="377" type="curve" smooth="yes"/>
      <point x="2304" y="377" type="line" smooth="yes"/>
      <point x="2304" y="598"/>
      <point x="2193" y="716"/>
      <point x="1977" y="716" type="curve" smooth="yes"/>
      <point x="1786" y="716"/>
      <point x="1686" y="627"/>
      <point x="1665" y="512" type="curve"/>
      <point x="1652" y="512" type="line"/>
      <point x="1656" y="391" type="line"/>
      <point x="1679" y="419"/>
      <point x="1736" y="445"/>
      <point x="1811" y="445" type="curve" smooth="yes"/>
      <point x="1905" y="445"/>
      <point x="1945" y="412"/>
      <point x="1945" y="350" type="curve" smooth="yes"/>
      <point x="1945" y="350" type="line" smooth="yes"/>
      <point x="1945" y="296"/>
      <point x="1908" y="255"/>
      <point x="1820" y="255" type="curve" smooth="yes"/>
      <point x="1711" y="255"/>
      <point x="1667" y="304"/>
      <point x="1667" y="389" type="curve"/>
      <point x="1667" y="512" type="line"/>
      <point x="1655" y="512" type="line"/>
      <point x="1655" y="512"/>
      <point x="1655" y="512"/>
      <point x="1655" y="512" type="curve"/>
      <point x="1666" y="739"/>
      <point x="1805" y="862"/>
      <point x="2103" y="862" type="curve" smooth="yes"/>
      <point x="2400" y="862"/>
      <point x="2528" y="739"/>
      <point x="2528" y="477" type="curve" smooth="yes"/>
      <point x="2528" y="463" type="line" smooth="yes"/>
      <point x="2528" y="294"/>
      <point x="2495" y="150"/>
      <point x="2409" y="19" type="curve"/>
      <point x="2409" y="0" type="line"/>
      <point x="3185" y="0" type="line"/>
      <point x="3185" y="292" type="line"/>
      <point x="2675" y="292" type="line"/>
      <point x="2734" y="100" type="line"/>
      <point x="2863" y="216"/>
      <point x="2910" y="359"/>
      <point x="2910" y="546" type="curve" smooth="yes"/>
      <point x="2910" y="558" type="line" smooth="yes"/>
      <point x="2910" y="947"/>
      <point x="2690" y="1172"/>
      <point x="2136" y="1172" type="curve" smooth="yes"/>
      <point x="1810" y="1172"/>
      <point x="1557" y="1052"/>
      <point x="1499" y="875" type="curve"/>
      <point x="1457" y="891" type="line"/>
      <point x="1338" y="796"/>
      <point x="1303" y="655"/>
    </contour>
    <component base="Ssa_Above_NonExporting" xOffset="2782"/>
    <component base="Ssa_Below_Simple_NonExporting" xOffset="3230"/>
  </outline>
</glyph>
<glyph name="CaMatraI.tm" format="2">
  <advance width="2285"/>
  <note>
CaMatraI.tm
</note>
  <outline>
    <contour>
      <point x="1290" y="445" type="line"/>
      <point x="1665" y="445" type="line"/>
      <point x="1628" y="732" type="line"/>
      <point x="1290" y="732" type="line"/>
    </contour>
    <contour>
      <point x="1527" y="1790" type="curve" smooth="yes"/>
      <point x="1134" y="1790"/>
      <point x="912" y="1612"/>
      <point x="912" y="1308" type="curve" smooth="yes"/>
      <point x="912" y="1308" type="line" smooth="yes"/>
      <point x="912" y="1249"/>
      <point x="926" y="1170"/>
      <point x="945" y="1123" type="curve"/>
      <point x="1297" y="1123" type="line"/>
      <point x="1287" y="1161"/>
      <point x="1278" y="1221"/>
      <point x="1278" y="1273" type="curve" smooth="yes"/>
      <point x="1278" y="1273" type="line" smooth="yes"/>
      <point x="1278" y="1418"/>
      <point x="1362" y="1490"/>
      <point x="1520" y="1490" type="curve" smooth="yes"/>
      <point x="1703" y="1490"/>
      <point x="1764" y="1407"/>
      <point x="1764" y="1204" type="curve" smooth="yes"/>
      <point x="1764" y="0" type="line"/>
      <point x="2139" y="0" type="line"/>
      <point x="2139" y="1182" type="line" smooth="yes"/>
      <point x="2139" y="1606"/>
      <point x="1970" y="1790"/>
    </contour>
    <component base="KaComponent_Nonexporting" xOffset="30"/>
    <component base="KaBeak_Nonexporting" xOffset="1207"/>
  </outline>
</glyph>
<glyph name="DebitSign_Simple.tm" format="2">
  <advance width="2661"/>
  <note>
DebitSign.tm
</note>
  <anchor x="977" y="1218" name="top"/>
  <outline>
    <contour>
      <point x="2515" y="-139" type="line"/>
      <point x="21" y="-139" type="line"/>
      <point x="72" y="-444" type="line"/>
      <point x="2515" y="-444" type="line"/>
    </contour>
    <contour>
      <point x="2140" y="1135" type="line"/>
      <point x="2140" y="-444" type="line"/>
      <point x="2515" y="-444" type="line"/>
      <point x="2515" y="1135" type="line"/>
    </contour>
    <contour>
      <point x="1433" y="79" type="line"/>
      <point x="1433" y="-268" type="line"/>
      <point x="1808" y="-268" type="line"/>
      <point x="1808" y="79" type="line"/>
    </contour>
    <component base="Pa.tm"/>
  </outline>
</glyph>
<glyph name="HaMatraI_Simple.tm" format="2">
  <advance width="4572"/>
  <note>
HaMatraI.tm
</note>
  <anchor x="1797" y="1218" name="top"/>
  <outline>
    <contour>
      <point x="3809" y="1790" type="curve" smooth="yes"/>
      <point x="3430" y="1790"/>
      <point x="3207" y="1604"/>
      <point x="3207" y="1281" type="curve" smooth="yes"/>
      <point x="3207" y="1281" type="line" smooth="yes"/>
      <point x="3207" y="1206"/>
      <point x="3229" y="1108"/>
      <point x="3260" y="1049" type="curve"/>
      <point x="3613" y="1049" type="line"/>
      <point x="3590" y="1092"/>
      <point x="3573" y="1167"/>
      <point x="3573" y="1235" type="curve" smooth="yes"/>
      <point x="3573" y="1235" type="line" smooth="yes"/>
      <point x="3573" y="1400"/>
      <point x="3661" y="1484"/>
      <point x="3809" y="1484" type="curve" smooth="yes"/>
      <point x="3981" y="1484"/>
      <point x="4051" y="1393"/>
      <point x="4051" y="1173" type="curve" smooth="yes"/>
      <point x="4051" y="0" type="line"/>
      <point x="4426" y="0" type="line"/>
      <point x="4426" y="1150" type="line" smooth="yes"/>
      <point x="4426" y="1594"/>
      <point x="4249" y="1790"/>
    </contour>
    <component base="Ha_Simple.tm"/>
  </outline>
</glyph>
<glyph name="HaMatraI_Simple_Fly.tm" format="2">
  <advance width="3916"/>
  <note>
HaMatraI.tm
</note>
  <anchor x="2860" y="1218" name="top"/>
  <outline>
    <contour>
      <point x="1806" y="292" type="line"/>
      <point x="1806" y="0" type="line"/>
      <point x="2133" y="0" type="line"/>
      <point x="2133" y="292" type="line"/>
    </contour>
    <contour>
      <point x="2098" y="-139" type="line"/>
      <point x="14" y="-139" type="line"/>
      <point x="65" y="-444" type="line"/>
      <point x="2098" y="-444" type="line"/>
    </contour>
    <component base="Va_NonExporting"/>
    <component base="RraMatraI_Simple_Fly.tm" xOffset="1823"/>
  </outline>
</glyph>
<glyph name="HaMatraIi.tm" format="2">
  <advance width="3916"/>
  <note>
HaMatraIi.tm
</note>
  <anchor x="1797" y="1218" name="top"/>
  <outline>
    <contour>
      <point x="3705" y="1938" type="curve" smooth="yes"/>
      <point x="3287" y="1938"/>
      <point x="3073" y="1758"/>
      <point x="3073" y="1444" type="curve" smooth="yes"/>
      <point x="3073" y="1444" type="line" smooth="yes"/>
      <point x="3073" y="1300"/>
      <point x="3116" y="1201"/>
      <point x="3164" y="1137" type="curve"/>
      <point x="3528" y="1127" type="line"/>
      <point x="3467" y="1194"/>
      <point x="3420" y="1301"/>
      <point x="3420" y="1417" type="curve" smooth="yes"/>
      <point x="3420" y="1417" type="line" smooth="yes"/>
      <point x="3420" y="1587"/>
      <point x="3519" y="1677"/>
      <point x="3677" y="1684" type="curve"/>
      <point x="3677" y="1670" type="line"/>
      <point x="3708" y="1677"/>
      <point x="3749" y="1681"/>
      <point x="3789" y="1681" type="curve" smooth="yes"/>
      <point x="3904" y="1681"/>
      <point x="3944" y="1637"/>
      <point x="3944" y="1565" type="curve" smooth="yes"/>
      <point x="3944" y="1565" type="line" smooth="yes"/>
      <point x="3944" y="1500"/>
      <point x="3916" y="1464"/>
      <point x="3858" y="1464" type="curve" smooth="yes"/>
      <point x="3788" y="1464"/>
      <point x="3758" y="1505"/>
      <point x="3758" y="1580" type="curve" smooth="yes"/>
      <point x="3758" y="1580" type="line" smooth="yes"/>
      <point x="3758" y="1621"/>
      <point x="3765" y="1651"/>
      <point x="3775" y="1683" type="curve"/>
      <point x="3677" y="1695" type="line"/>
      <point x="3677" y="1675" type="line"/>
      <point x="3587" y="1663"/>
      <point x="3504" y="1610"/>
      <point x="3502" y="1484" type="curve" smooth="yes"/>
      <point x="3502" y="1484" type="line" smooth="yes"/>
      <point x="3502" y="1334"/>
      <point x="3612" y="1227"/>
      <point x="3861" y="1227" type="curve" smooth="yes"/>
      <point x="4118" y="1227"/>
      <point x="4252" y="1348"/>
      <point x="4252" y="1568" type="curve" smooth="yes"/>
      <point x="4252" y="1568" type="line" smooth="yes"/>
      <point x="4252" y="1799"/>
      <point x="4066" y="1938"/>
    </contour>
    <component base="Ha.tm"/>
  </outline>
</glyph>
<glyph name="HaMatraIi_Simple.tm" format="2">
  <advance width="3879"/>
  <note>
HaMatraIi.tm
</note>
  <anchor x="2823" y="1218" name="top"/>
  <outline>
    <contour>
      <point x="1756" y="292" type="line"/>
      <point x="1756" y="0" type="line"/>
      <point x="2160" y="0" type="line"/>
      <point x="2160" y="292" type="line"/>
    </contour>
    <contour>
      <point x="2094" y="-139" type="line"/>
      <point x="14" y="-139" type="line"/>
      <point x="65" y="-444" type="line"/>
      <point x="2094" y="-444" type="line"/>
    </contour>
    <component base="Va_NonExporting"/>
    <component base="RraMatraIi_Simple.tm" xOffset="1786"/>
  </outline>
</glyph>
<glyph name="HaMatraUu_Simple_SimpleUu.tm" format="2">
  <advance width="5650"/>
  <note>
HaMatraUu.tm
</note>
  <outline>
    <contour>
      <point x="2443" y="1160" type="curve" smooth="yes"/>
      <point x="2130" y="1160"/>
      <point x="1963" y="1006"/>
      <point x="1963" y="647" type="curve" smooth="yes"/>
      <point x="1963" y="0" type="line"/>
      <point x="2338" y="0" type="line"/>
      <point x="2338" y="672" type="line" smooth="yes"/>
      <point x="2338" y="804"/>
      <point x="2402" y="857"/>
      <point x="2497" y="857" type="curve" smooth="yes"/>
      <point x="2602" y="857"/>
      <point x="2650" y="804"/>
      <point x="2650" y="672" type="curve" smooth="yes"/>
      <point x="2650" y="0" type="line"/>
      <point x="3024" y="0" type="line"/>
      <point x="3024" y="648" type="line" smooth="yes"/>
      <point x="3024" y="793"/>
      <point x="3102" y="861"/>
      <point x="3258" y="861" type="curve" smooth="yes"/>
      <point x="3401" y="861"/>
      <point x="3454" y="815"/>
      <point x="3454" y="723" type="curve" smooth="yes"/>
      <point x="3454" y="723" type="line" smooth="yes"/>
      <point x="3454" y="637"/>
      <point x="3392" y="593"/>
      <point x="3246" y="586" type="curve" smooth="yes"/>
      <point x="3144" y="581" type="line"/>
      <point x="3144" y="303" type="line"/>
      <point x="3232" y="296" type="line" smooth="yes"/>
      <point x="3403" y="282"/>
      <point x="3454" y="231"/>
      <point x="3454" y="102" type="curve" smooth="yes"/>
      <point x="3454" y="102" type="line" smooth="yes"/>
      <point x="3454" y="-63"/>
      <point x="3377" y="-139"/>
      <point x="3051" y="-139" type="curve" smooth="yes"/>
      <point x="14" y="-139" type="line"/>
      <point x="65" y="-444" type="line"/>
      <point x="3069" y="-444" type="line" smooth="yes"/>
      <point x="3660" y="-444"/>
      <point x="3836" y="-280"/>
      <point x="3836" y="77" type="curve" smooth="yes"/>
      <point x="3836" y="77" type="line" smooth="yes"/>
      <point x="3836" y="287"/>
      <point x="3751" y="426"/>
      <point x="3526" y="445" type="curve"/>
      <point x="3526" y="454" type="line"/>
      <point x="3734" y="477"/>
      <point x="3802" y="589"/>
      <point x="3802" y="759" type="curve" smooth="yes"/>
      <point x="3802" y="759" type="line" smooth="yes"/>
      <point x="3802" y="836"/>
      <point x="3781" y="906"/>
      <point x="3732" y="957" type="curve"/>
      <point x="3734" y="1028" type="line"/>
      <point x="3659" y="1118"/>
      <point x="3529" y="1163"/>
      <point x="3337" y="1163" type="curve" smooth="yes"/>
      <point x="3046" y="1163"/>
      <point x="2889" y="1060"/>
      <point x="2851" y="854" type="curve"/>
      <point x="2842" y="854" type="line"/>
      <point x="2815" y="1051"/>
      <point x="2688" y="1160"/>
    </contour>
    <contour>
      <point x="1756" y="292" type="line"/>
      <point x="1756" y="0" type="line"/>
      <point x="2160" y="0" type="line"/>
      <point x="2160" y="292" type="line"/>
    </contour>
    <contour>
      <point x="3772" y="1137" type="line"/>
      <point x="3486" y="1137" type="line"/>
      <point x="3486" y="843" type="line"/>
      <point x="3772" y="843" type="line"/>
    </contour>
    <component base="Va_NonExporting"/>
    <component base="MatraUuDflt_Simple.tm" xOffset="3572"/>
  </outline>
</glyph>
<glyph name="Ha_Simple.tm" format="2">
  <advance width="3916"/>
  <note>
Ha.tm
</note>
  <guideline x="4225" y="1341" angle="90"/>
  <anchor x="1797" y="1218" name="top"/>
  <outline>
    <contour>
      <point x="1806" y="292" type="line"/>
      <point x="1806" y="0" type="line"/>
      <point x="2133" y="0" type="line"/>
      <point x="2133" y="292" type="line"/>
    </contour>
    <contour>
      <point x="2098" y="-139" type="line"/>
      <point x="14" y="-139" type="line"/>
      <point x="65" y="-444" type="line"/>
      <point x="2098" y="-444" type="line"/>
    </contour>
    <component base="Va_NonExporting"/>
    <component base="Rra_Simple.tm" xOffset="1823"/>
  </outline>
</glyph>
<glyph name="JaMatraI_Fused.tm" format="2">
  <advance width="3088"/>
  <note>
JaMatraI.tm
</note>
  <anchor x="1398" y="1218" name="top"/>
  <outline>
    <contour>
      <point x="2329" y="1790" type="curve" smooth="yes"/>
      <point x="1943" y="1790"/>
      <point x="1725" y="1605"/>
      <point x="1725" y="1308" type="curve" smooth="yes"/>
      <point x="1725" y="1308" type="line" smooth="yes"/>
      <point x="1725" y="1241"/>
      <point x="1740" y="1161"/>
      <point x="1765" y="1113" type="curve"/>
      <point x="2122" y="1113" type="line"/>
      <point x="2101" y="1149"/>
      <point x="2091" y="1205"/>
      <point x="2091" y="1253" type="curve" smooth="yes"/>
      <point x="2091" y="1253" type="line" smooth="yes"/>
      <point x="2091" y="1407"/>
      <point x="2171" y="1484"/>
      <point x="2322" y="1484" type="curve" smooth="yes"/>
      <point x="2506" y="1484"/>
      <point x="2567" y="1394"/>
      <point x="2567" y="1174" type="curve" smooth="yes"/>
      <point x="2567" y="0" type="line"/>
      <point x="2942" y="0" type="line"/>
      <point x="2942" y="1152" type="line" smooth="yes"/>
      <point x="2942" y="1597"/>
      <point x="2773" y="1790"/>
    </contour>
    <component base="Ja_Fused.tm"/>
  </outline>
</glyph>
<glyph name="JaMatraIi.tm" format="2">
  <advance width="2441"/>
  <note>
JaMatraIi.tm
</note>
  <anchor x="1398" y="1218" name="top"/>
  <outline>
    <contour>
      <point x="2234" y="1938" type="curve" smooth="yes"/>
      <point x="1816" y="1938"/>
      <point x="1602" y="1758"/>
      <point x="1602" y="1444" type="curve" smooth="yes"/>
      <point x="1602" y="1444" type="line" smooth="yes"/>
      <point x="1602" y="1301"/>
      <point x="1645" y="1203"/>
      <point x="1693" y="1139" type="curve"/>
      <point x="2057" y="1129" type="line"/>
      <point x="1996" y="1196"/>
      <point x="1949" y="1302"/>
      <point x="1949" y="1417" type="curve" smooth="yes"/>
      <point x="1949" y="1417" type="line" smooth="yes"/>
      <point x="1949" y="1587"/>
      <point x="2048" y="1677"/>
      <point x="2206" y="1684" type="curve"/>
      <point x="2206" y="1670" type="line"/>
      <point x="2237" y="1677"/>
      <point x="2278" y="1681"/>
      <point x="2318" y="1681" type="curve" smooth="yes"/>
      <point x="2433" y="1681"/>
      <point x="2473" y="1637"/>
      <point x="2473" y="1565" type="curve" smooth="yes"/>
      <point x="2473" y="1565" type="line" smooth="yes"/>
      <point x="2473" y="1500"/>
      <point x="2445" y="1464"/>
      <point x="2387" y="1464" type="curve" smooth="yes"/>
      <point x="2317" y="1464"/>
      <point x="2287" y="1505"/>
      <point x="2287" y="1580" type="curve" smooth="yes"/>
      <point x="2287" y="1580" type="line" smooth="yes"/>
      <point x="2287" y="1621"/>
      <point x="2294" y="1651"/>
      <point x="2304" y="1683" type="curve"/>
      <point x="2206" y="1695" type="line"/>
      <point x="2206" y="1675" type="line"/>
      <point x="2116" y="1663"/>
      <point x="2033" y="1610"/>
      <point x="2031" y="1484" type="curve" smooth="yes"/>
      <point x="2031" y="1484" type="line" smooth="yes"/>
      <point x="2031" y="1334"/>
      <point x="2141" y="1227"/>
      <point x="2390" y="1227" type="curve" smooth="yes"/>
      <point x="2647" y="1227"/>
      <point x="2781" y="1348"/>
      <point x="2781" y="1568" type="curve" smooth="yes"/>
      <point x="2781" y="1568" type="line" smooth="yes"/>
      <point x="2781" y="1799"/>
      <point x="2595" y="1938"/>
    </contour>
    <component base="Ja.tm"/>
  </outline>
</glyph>
<glyph name="KaMatraU_Simple.tm" format="2">
  <advance width="2686"/>
  <note>
KaMatraU.tm
</note>
  <outline>
    <contour>
      <point x="1813" y="454" type="line"/>
      <point x="2000" y="454" type="line" smooth="yes"/>
      <point x="2174" y="454"/>
      <point x="2249" y="377"/>
      <point x="2249" y="204" type="curve"/>
      <point x="2249" y="204" type="line" smooth="yes"/>
      <point x="2249" y="-93"/>
      <point x="2030" y="-257"/>
      <point x="1476" y="-257" type="curve" smooth="yes"/>
      <point x="1471" y="-257" type="line" smooth="yes"/>
      <point x="789" y="-257"/>
      <point x="518" y="-23"/>
      <point x="518" y="486" type="curve"/>
      <point x="518" y="1137" type="line"/>
      <point x="136" y="1137" type="line"/>
      <point x="136" y="482" type="line"/>
      <point x="136" y="-232"/>
      <point x="555" y="-570"/>
      <point x="1471" y="-570" type="curve" smooth="yes"/>
      <point x="1478" y="-570" type="line" smooth="yes"/>
      <point x="2259" y="-570"/>
      <point x="2626" y="-297"/>
      <point x="2626" y="211" type="curve" smooth="yes"/>
      <point x="2626" y="211" type="line"/>
      <point x="2626" y="561"/>
      <point x="2466" y="732"/>
      <point x="2028" y="732" type="curve" smooth="yes"/>
      <point x="1813" y="732" type="line"/>
    </contour>
    <component base="KaComponent_Nonexporting" xOffset="727"/>
    <component base="KaBeak_Nonexporting" xOffset="2032"/>
  </outline>
</glyph>
<glyph name="KaMatraUu.tm" format="2">
  <advance width="3180"/>
  <note>
KaMatraUu.tm
</note>
  <outline>
    <contour>
      <point x="1176" y="444" type="line"/>
      <point x="1355" y="444" type="line" smooth="yes"/>
      <point x="1515" y="444"/>
      <point x="1561" y="389"/>
      <point x="1561" y="215" type="curve" smooth="yes"/>
      <point x="1561" y="0" type="line"/>
      <point x="1936" y="0" type="line"/>
      <point x="1936" y="260" type="line" smooth="yes"/>
      <point x="1936" y="391"/>
      <point x="1998" y="466"/>
      <point x="2109" y="466" type="curve" smooth="yes"/>
      <point x="2223" y="466"/>
      <point x="2263" y="396"/>
      <point x="2263" y="273" type="curve" smooth="yes"/>
      <point x="2263" y="273" type="line" smooth="yes"/>
      <point x="2263" y="155"/>
      <point x="2237" y="84"/>
      <point x="2182" y="19" type="curve"/>
      <point x="2182" y="0" type="line"/>
      <point x="3140" y="0" type="line"/>
      <point x="3180" y="292" type="line"/>
      <point x="2445" y="292" type="line"/>
      <point x="2573" y="215" type="line"/>
      <point x="2601" y="268"/>
      <point x="2624" y="343"/>
      <point x="2624" y="440" type="curve" smooth="yes"/>
      <point x="2624" y="445" type="line" smooth="yes"/>
      <point x="2624" y="648"/>
      <point x="2494" y="769"/>
      <point x="2209" y="769" type="curve" smooth="yes"/>
      <point x="1913" y="769"/>
      <point x="1772" y="649"/>
      <point x="1772" y="482" type="curve" smooth="yes"/>
      <point x="1772" y="482" type="line"/>
      <point x="1762" y="482" type="line"/>
      <point x="1731" y="665"/>
      <point x="1630" y="732"/>
      <point x="1398" y="732" type="curve" smooth="yes"/>
      <point x="1176" y="732" type="line"/>
    </contour>
    <component base="KaComponent_Nonexporting" xOffset="30"/>
    <component base="KaBeak_Nonexporting" xOffset="1371"/>
  </outline>
</glyph>
<glyph name="KssaMatraI.tm" format="2">
  <advance width="4795"/>
  <note>
KshaMatraI.tm
</note>
  <anchor x="2355" y="1218" name="top"/>
  <outline>
    <contour>
      <point x="3972" y="1790" type="curve" smooth="yes"/>
      <point x="3555" y="1790"/>
      <point x="3310" y="1593"/>
      <point x="3310" y="1251" type="curve" smooth="yes"/>
      <point x="3310" y="1251" type="line" smooth="yes"/>
      <point x="3310" y="1196"/>
      <point x="3321" y="1127"/>
      <point x="3342" y="1089" type="curve"/>
      <point x="3699" y="1089" type="line"/>
      <point x="3684" y="1117"/>
      <point x="3676" y="1163"/>
      <point x="3676" y="1205" type="curve" smooth="yes"/>
      <point x="3676" y="1205" type="line" smooth="yes"/>
      <point x="3676" y="1390"/>
      <point x="3786" y="1484"/>
      <point x="3972" y="1484" type="curve" smooth="yes"/>
      <point x="4186" y="1484"/>
      <point x="4274" y="1381"/>
      <point x="4274" y="1133" type="curve" smooth="yes"/>
      <point x="4274" y="0" type="line"/>
      <point x="4649" y="0" type="line"/>
      <point x="4649" y="1110" type="line" smooth="yes"/>
      <point x="4649" y="1582"/>
      <point x="4455" y="1790"/>
    </contour>
    <component base="Kssa.tm"/>
  </outline>
</glyph>
<glyph name="KssaMatraI_Simple_Fly.tm" format="2">
  <advance width="4138"/>
  <note>
KshaMatraI.tm
</note>
  <anchor x="2355" y="1218" name="top"/>
  <outline>
    <contour>
      <point x="3970" y="1646" type="line"/>
      <point x="3460" y="1646" type="line" smooth="yes"/>
      <point x="3228" y="1646"/>
      <point x="3115" y="1575"/>
      <point x="3115" y="1415" type="curve" smooth="yes"/>
      <point x="3115" y="1324"/>
      <point x="3148" y="1242"/>
      <point x="3232" y="1123" type="curve"/>
      <point x="3597" y="1123" type="line"/>
      <point x="3543" y="1196"/>
      <point x="3517" y="1243"/>
      <point x="3517" y="1281" type="curve" smooth="yes"/>
      <point x="3517" y="1327"/>
      <point x="3544" y="1345"/>
      <point x="3605" y="1345" type="curve" smooth="yes"/>
      <point x="4014" y="1345" type="line"/>
    </contour>
    <component base="Kssa_Simple.tm"/>
  </outline>
</glyph>
<glyph name="KssaMatraIi.tm" format="2">
  <advance width="4138"/>
  <note>
KshaMatraIi.tm
</note>
  <anchor x="2355" y="1218" name="top"/>
  <outline>
    <contour>
      <point x="3789" y="1938" type="curve" smooth="yes"/>
      <point x="3371" y="1938"/>
      <point x="3157" y="1758"/>
      <point x="3157" y="1444" type="curve" smooth="yes"/>
      <point x="3157" y="1444" type="line" smooth="yes"/>
      <point x="3157" y="1300"/>
      <point x="3200" y="1201"/>
      <point x="3248" y="1137" type="curve"/>
      <point x="3612" y="1127" type="line"/>
      <point x="3551" y="1194"/>
      <point x="3504" y="1301"/>
      <point x="3504" y="1417" type="curve" smooth="yes"/>
      <point x="3504" y="1417" type="line" smooth="yes"/>
      <point x="3504" y="1587"/>
      <point x="3603" y="1677"/>
      <point x="3761" y="1684" type="curve"/>
      <point x="3761" y="1670" type="line"/>
      <point x="3792" y="1677"/>
      <point x="3833" y="1681"/>
      <point x="3873" y="1681" type="curve" smooth="yes"/>
      <point x="3988" y="1681"/>
      <point x="4028" y="1637"/>
      <point x="4028" y="1565" type="curve" smooth="yes"/>
      <point x="4028" y="1565" type="line" smooth="yes"/>
      <point x="4028" y="1500"/>
      <point x="4000" y="1464"/>
      <point x="3942" y="1464" type="curve" smooth="yes"/>
      <point x="3872" y="1464"/>
      <point x="3842" y="1505"/>
      <point x="3842" y="1580" type="curve" smooth="yes"/>
      <point x="3842" y="1580" type="line" smooth="yes"/>
      <point x="3842" y="1621"/>
      <point x="3849" y="1651"/>
      <point x="3859" y="1683" type="curve"/>
      <point x="3761" y="1695" type="line"/>
      <point x="3761" y="1675" type="line"/>
      <point x="3671" y="1663"/>
      <point x="3588" y="1610"/>
      <point x="3586" y="1484" type="curve" smooth="yes"/>
      <point x="3586" y="1484" type="line" smooth="yes"/>
      <point x="3586" y="1334"/>
      <point x="3696" y="1227"/>
      <point x="3945" y="1227" type="curve" smooth="yes"/>
      <point x="4202" y="1227"/>
      <point x="4336" y="1348"/>
      <point x="4336" y="1568" type="curve" smooth="yes"/>
      <point x="4336" y="1568" type="line" smooth="yes"/>
      <point x="4336" y="1799"/>
      <point x="4150" y="1938"/>
    </contour>
    <component base="Kssa.tm"/>
  </outline>
</glyph>
<glyph name="KssaMatraIi_Simple_SimpleIi.tm" format="2">
  <advance width="4138"/>
  <note>
KshaMatraIi.tm
</note>
  <anchor x="2355" y="1218" name="top"/>
  <outline>
    <contour>
      <point x="3660" y="1869" type="curve" smooth="yes"/>
      <point x="3282" y="1869"/>
      <point x="3157" y="1710"/>
      <point x="3157" y="1445" type="curve" smooth="yes"/>
      <point x="3157" y="1445" type="line" smooth="yes"/>
      <point x="3157" y="1304"/>
      <point x="3198" y="1206"/>
      <point x="3249" y="1143" type="curve"/>
      <point x="3586" y="1143" type="line"/>
      <point x="3532" y="1211"/>
      <point x="3494" y="1313"/>
      <point x="3494" y="1421" type="curve" smooth="yes"/>
      <point x="3494" y="1424" type="line"/>
      <point x="3494" y="1470" type="line" smooth="yes"/>
      <point x="3494" y="1577"/>
      <point x="3538" y="1621"/>
      <point x="3646" y="1621" type="curve" smooth="yes"/>
      <point x="3735" y="1621"/>
      <point x="3774" y="1588"/>
      <point x="3774" y="1529" type="curve" smooth="yes"/>
      <point x="3774" y="1529" type="line" smooth="yes"/>
      <point x="3774" y="1470"/>
      <point x="3743" y="1438"/>
      <point x="3655" y="1438" type="curve" smooth="yes"/>
      <point x="3570" y="1438"/>
      <point x="3530" y="1456"/>
      <point x="3489" y="1471" type="curve"/>
      <point x="3486" y="1471" type="line"/>
      <point x="3486" y="1419" type="line"/>
      <point x="3501" y="1419" type="line"/>
      <point x="3589" y="1241" type="line"/>
      <point x="3637" y="1227"/>
      <point x="3700" y="1218"/>
      <point x="3774" y="1218" type="curve" smooth="yes"/>
      <point x="4003" y="1218"/>
      <point x="4107" y="1320"/>
      <point x="4107" y="1529" type="curve" smooth="yes"/>
      <point x="4107" y="1529" type="line" smooth="yes"/>
      <point x="4107" y="1744"/>
      <point x="3977" y="1869"/>
    </contour>
    <component base="Kssa_Simple.tm"/>
  </outline>
</glyph>
<glyph name="KssaMatraUu_Simple_SimpleUu.tm" format="2">
  <advance width="5794"/>
  <note>
KshaMatraUu.tm
</note>
  <outline>
    <contour>
      <point x="1170" y="444" type="line"/>
      <point x="1355" y="444" type="line" smooth="yes"/>
      <point x="1515" y="444"/>
      <point x="1561" y="389"/>
      <point x="1561" y="215" type="curve" smooth="yes"/>
      <point x="1561" y="0" type="line"/>
      <point x="1936" y="0" type="line"/>
      <point x="1936" y="260" type="line" smooth="yes"/>
      <point x="1936" y="391"/>
      <point x="1998" y="466"/>
      <point x="2109" y="466" type="curve" smooth="yes"/>
      <point x="2223" y="466"/>
      <point x="2263" y="396"/>
      <point x="2263" y="273" type="curve" smooth="yes"/>
      <point x="2263" y="273" type="line" smooth="yes"/>
      <point x="2263" y="155"/>
      <point x="2237" y="84"/>
      <point x="2182" y="19" type="curve"/>
      <point x="2182" y="0" type="line"/>
      <point x="2911" y="0" type="line"/>
      <point x="2911" y="285" type="line"/>
      <point x="2445" y="285" type="line"/>
      <point x="2573" y="215" type="line"/>
      <point x="2601" y="268"/>
      <point x="2624" y="343"/>
      <point x="2624" y="440" type="curve" smooth="yes"/>
      <point x="2624" y="445" type="line" smooth="yes"/>
      <point x="2624" y="648"/>
      <point x="2494" y="769"/>
      <point x="2209" y="769" type="curve" smooth="yes"/>
      <point x="1913" y="769"/>
      <point x="1772" y="649"/>
      <point x="1772" y="482" type="curve" smooth="yes"/>
      <point x="1772" y="482" type="line"/>
      <point x="1762" y="482" type="line"/>
      <point x="1731" y="665"/>
      <point x="1630" y="732"/>
      <point x="1398" y="732" type="curve" smooth="yes"/>
      <point x="1170" y="732" type="line"/>
    </contour>
    <contour>
      <point x="2407" y="285" type="line"/>
      <point x="2407" y="0" type="line"/>
      <point x="4113" y="0" type="line"/>
      <point x="4153" y="292" type="line"/>
      <point x="3484" y="292" type="line"/>
      <point x="3379" y="243" type="line"/>
      <point x="3263" y="285" type="line"/>
    </contour>
    <contour>
      <point x="3379" y="1170" type="curve" smooth="yes"/>
      <point x="2986" y="1170"/>
      <point x="2809" y="973"/>
      <point x="2809" y="664" type="curve" smooth="yes"/>
      <point x="2809" y="651" type="line" smooth="yes"/>
      <point x="2809" y="368"/>
      <point x="2939" y="178"/>
      <point x="3282" y="90" type="curve"/>
      <point x="3416" y="238" type="line"/>
      <point x="3250" y="278"/>
      <point x="3192" y="419"/>
      <point x="3192" y="579" type="curve" smooth="yes"/>
      <point x="3192" y="590" type="line" smooth="yes"/>
      <point x="3192" y="752"/>
      <point x="3234" y="857"/>
      <point x="3379" y="857" type="curve" smooth="yes"/>
      <point x="3525" y="857"/>
      <point x="3567" y="752"/>
      <point x="3567" y="590" type="curve" smooth="yes"/>
      <point x="3567" y="579" type="line" smooth="yes"/>
      <point x="3567" y="419"/>
      <point x="3509" y="278"/>
      <point x="3344" y="238" type="curve"/>
      <point x="3477" y="90" type="line"/>
      <point x="3821" y="174"/>
      <point x="3951" y="373"/>
      <point x="3951" y="627" type="curve" smooth="yes"/>
      <point x="3951" y="635" type="line" smooth="yes"/>
      <point x="3951" y="767"/>
      <point x="3914" y="878"/>
      <point x="3806" y="952" type="curve"/>
      <point x="3824" y="1008" type="line"/>
      <point x="3729" y="1112"/>
      <point x="3583" y="1170"/>
    </contour>
    <contour>
      <point x="3923" y="1137" type="line"/>
      <point x="3565" y="1137" type="line"/>
      <point x="3565" y="843" type="line"/>
      <point x="3923" y="843" type="line"/>
    </contour>
    <component base="MatraUuDflt_Simple.tm" xOffset="3716"/>
    <component base="KaComponent_Nonexporting" xOffset="30"/>
    <component base="KaBeak_Nonexporting" xOffset="1371"/>
    <component base="Ssa_Below_Simple_NonExporting" xOffset="2907"/>
  </outline>
</glyph>
<glyph name="Kssa_Simple.tm" format="2">
  <advance width="4138"/>
  <note>
Ksha.tm
</note>
  <anchor x="2355" y="1218" name="top"/>
  <outline>
    <contour>
      <point x="1165" y="444" type="line"/>
      <point x="1355" y="444" type="line" smooth="yes"/>
      <point x="1515" y="444"/>
      <point x="1561" y="389"/>
      <point x="1561" y="215" type="curve" smooth="yes"/>
      <point x="1561" y="0" type="line"/>
      <point x="1936" y="0" type="line"/>
      <point x="1936" y="260" type="line" smooth="yes"/>
      <point x="1936" y="391"/>
      <point x="1998" y="466"/>
      <point x="2109" y="466" type="curve" smooth="yes"/>
      <point x="2223" y="466"/>
      <point x="2263" y="396"/>
      <point x="2263" y="273" type="curve" smooth="yes"/>
      <point x="2263" y="273" type="line" smooth="yes"/>
      <point x="2263" y="155"/>
      <point x="2237" y="84"/>
      <point x="2182" y="19" type="curve"/>
      <point x="2182" y="0" type="line"/>
      <point x="2911" y="0" type="line"/>
      <point x="2911" y="285" type="line"/>
      <point x="2445" y="285" type="line"/>
      <point x="2573" y="215" type="line"/>
      <point x="2601" y="268"/>
      <point x="2624" y="343"/>
      <point x="2624" y="440" type="curve" smooth="yes"/>
      <point x="2624" y="445" type="line" smooth="yes"/>
      <point x="2624" y="648"/>
      <point x="2494" y="769"/>
      <point x="2209" y="769" type="curve" smooth="yes"/>
      <point x="1913" y="769"/>
      <point x="1772" y="649"/>
      <point x="1772" y="482" type="curve" smooth="yes"/>
      <point x="1772" y="482" type="line"/>
      <point x="1762" y="482" type="line"/>
      <point x="1731" y="665"/>
      <point x="1630" y="732"/>
      <point x="1398" y="732" type="curve" smooth="yes"/>
      <point x="1165" y="732" type="line"/>
    </contour>
    <component base="KaComponent_Nonexporting" xOffset="30"/>
    <component base="Ssa_Above_NonExporting" xOffset="2460"/>
    <component base="KaBeak_Nonexporting" xOffset="1371"/>
    <component base="Ssa_Below_Simple_NonExporting" xOffset="2907"/>
  </outline>
</glyph>
<glyph name="LaMatraI.tm" format="2">
  <advance width="3161"/>
  <note>
LaMatraI.tm
</note>
  <outline>
    <contour>
      <point x="892" y="1172" type="curve" smooth="yes"/>
      <point x="359" y="1172"/>
      <point x="108" y="912"/>
      <point x="108" y="507" type="curve" smooth="yes"/>
      <point x="108" y="495" type="line" smooth="yes"/>
      <point x="108" y="192"/>
      <point x="257" y="-26"/>
      <point x="637" y="-26" type="curve" smooth="yes"/>
      <point x="986" y="-26"/>
      <point x="1109" y="141"/>
      <point x="1109" y="377" type="curve" smooth="yes"/>
      <point x="1109" y="377" type="line" smooth="yes"/>
      <point x="1109" y="598"/>
      <point x="998" y="716"/>
      <point x="782" y="716" type="curve" smooth="yes"/>
      <point x="591" y="716"/>
      <point x="491" y="627"/>
      <point x="470" y="512" type="curve"/>
      <point x="457" y="512" type="line"/>
      <point x="461" y="391" type="line"/>
      <point x="484" y="419"/>
      <point x="541" y="445"/>
      <point x="616" y="445" type="curve" smooth="yes"/>
      <point x="710" y="445"/>
      <point x="750" y="412"/>
      <point x="750" y="350" type="curve" smooth="yes"/>
      <point x="750" y="350" type="line" smooth="yes"/>
      <point x="750" y="296"/>
      <point x="713" y="255"/>
      <point x="625" y="255" type="curve" smooth="yes"/>
      <point x="516" y="255"/>
      <point x="472" y="304"/>
      <point x="472" y="389" type="curve"/>
      <point x="472" y="512" type="line"/>
      <point x="460" y="512" type="line"/>
      <point x="460" y="514"/>
      <point x="460" y="514"/>
      <point x="460" y="516" type="curve"/>
      <point x="470" y="743"/>
      <point x="596" y="866"/>
      <point x="890" y="866" type="curve" smooth="yes"/>
      <point x="1165" y="866"/>
      <point x="1280" y="764"/>
      <point x="1280" y="517" type="curve" smooth="yes"/>
      <point x="1280" y="512" type="line" smooth="yes"/>
      <point x="1280" y="153"/>
      <point x="1440" y="-26"/>
      <point x="1843" y="-26" type="curve" smooth="yes"/>
      <point x="2258" y="-26"/>
      <point x="2404" y="169"/>
      <point x="2404" y="560" type="curve" smooth="yes"/>
      <point x="2404" y="568" type="line" smooth="yes"/>
      <point x="2404" y="943"/>
      <point x="2276" y="1162"/>
      <point x="1853" y="1162" type="curve" smooth="yes"/>
      <point x="1771" y="1162"/>
      <point x="1711" y="1155"/>
      <point x="1647" y="1140" type="curve"/>
      <point x="2003" y="1038" type="line"/>
      <point x="1999" y="1072"/>
      <point x="1997" y="1106"/>
      <point x="1997" y="1166" type="curve" smooth="yes"/>
      <point x="1997" y="1378"/>
      <point x="2121" y="1484"/>
      <point x="2318" y="1484" type="curve" smooth="yes"/>
      <point x="2550" y="1484"/>
      <point x="2640" y="1363"/>
      <point x="2640" y="1084" type="curve" smooth="yes"/>
      <point x="2640" y="0" type="line"/>
      <point x="3015" y="0" type="line"/>
      <point x="3015" y="1074" type="line" smooth="yes"/>
      <point x="3015" y="1567"/>
      <point x="2805" y="1790"/>
      <point x="2327" y="1790" type="curve" smooth="yes"/>
      <point x="1888" y="1790"/>
      <point x="1634" y="1560"/>
      <point x="1634" y="1132" type="curve" smooth="yes"/>
      <point x="1634" y="1034"/>
      <point x="1645" y="938"/>
      <point x="1661" y="866" type="curve"/>
      <point x="1693" y="871"/>
      <point x="1715" y="873"/>
      <point x="1755" y="873" type="curve" smooth="yes"/>
      <point x="1959" y="873"/>
      <point x="2022" y="774"/>
      <point x="2022" y="563" type="curve" smooth="yes"/>
      <point x="2022" y="556" type="line" smooth="yes"/>
      <point x="2022" y="368"/>
      <point x="1980" y="278"/>
      <point x="1843" y="278" type="curve" smooth="yes"/>
      <point x="1704" y="278"/>
      <point x="1655" y="354"/>
      <point x="1655" y="537" type="curve" smooth="yes"/>
      <point x="1655" y="544" type="line" smooth="yes"/>
      <point x="1655" y="964"/>
      <point x="1436" y="1172"/>
    </contour>
  </outline>
</glyph>
<glyph name="LaMatraU.tm" format="2">
  <advance width="3189"/>
  <note>
LaMatraU.tm
</note>
  <anchor x="1427" y="1218" name="top"/>
  <outline>
    <contour>
      <point x="2668" y="1137" type="line"/>
      <point x="2668" y="-389" type="line"/>
      <point x="3043" y="-389" type="line"/>
      <point x="3043" y="1137" type="line"/>
    </contour>
    <contour>
      <point x="1054" y="-928" type="curve" smooth="yes"/>
      <point x="1654" y="-928"/>
      <point x="1971" y="-691"/>
      <point x="2003" y="-302" type="curve"/>
      <point x="2010" y="-223" type="line"/>
      <point x="2021" y="-141"/>
      <point x="2029" y="-44"/>
      <point x="2030" y="53" type="curve"/>
      <point x="1639" y="53" type="line"/>
      <point x="1641" y="-42"/>
      <point x="1634" y="-132"/>
      <point x="1624" y="-208" type="curve"/>
      <point x="1614" y="-293" type="line"/>
      <point x="1598" y="-495"/>
      <point x="1422" y="-629"/>
      <point x="1054" y="-629" type="curve" smooth="yes"/>
      <point x="706" y="-629"/>
      <point x="529" y="-510"/>
      <point x="512" y="-389" type="curve"/>
      <point x="3043" y="-389" type="line"/>
      <point x="3043" y="-114" type="line"/>
      <point x="44" y="-114" type="line"/>
      <point x="54" y="-629"/>
      <point x="396" y="-928"/>
    </contour>
    <component base="La.tm"/>
  </outline>
</glyph>
<glyph name="LaMatraU_Simple.tm" format="2">
  <advance width="3188"/>
  <note>
LaMatraU.tm
</note>
  <anchor x="1427" y="1218" name="top"/>
  <outline>
    <contour>
      <point x="3042" y="-139" type="line"/>
      <point x="30" y="-139" type="line"/>
      <point x="81" y="-444" type="line"/>
      <point x="3042" y="-444" type="line"/>
    </contour>
    <contour>
      <point x="1639" y="79" type="line"/>
      <point x="1639" y="-268" type="line"/>
      <point x="2030" y="-268" type="line"/>
      <point x="2030" y="79" type="line"/>
    </contour>
    <contour>
      <point x="2667" y="1137" type="line"/>
      <point x="2667" y="-444" type="line"/>
      <point x="3042" y="-444" type="line"/>
      <point x="3042" y="1137" type="line"/>
    </contour>
    <component base="La.tm"/>
  </outline>
</glyph>
<glyph name="LlaMatraU.tm" format="2">
  <advance width="3821"/>
  <note>
LlaMatraU.tm
</note>
  <outline>
    <contour>
      <point x="3367" y="716" type="curve" smooth="yes"/>
      <point x="3175" y="716"/>
      <point x="3069" y="621"/>
      <point x="3046" y="488" type="curve"/>
      <point x="2992" y="488" type="line"/>
      <point x="2992" y="312" type="line"/>
      <point x="3017" y="312" type="line"/>
      <point x="3045" y="370"/>
      <point x="3108" y="410"/>
      <point x="3198" y="410" type="curve" smooth="yes"/>
      <point x="3316" y="410"/>
      <point x="3365" y="343"/>
      <point x="3365" y="206" type="curve"/>
      <point x="3365" y="206" type="line" smooth="yes"/>
      <point x="3365" y="-172"/>
      <point x="3034" y="-370"/>
      <point x="2122" y="-370" type="curve" smooth="yes"/>
      <point x="2037" y="-370" type="line" smooth="yes"/>
      <point x="926" y="-370"/>
      <point x="500" y="-107"/>
      <point x="500" y="540" type="curve" smooth="yes"/>
      <point x="500" y="776"/>
      <point x="535" y="942"/>
      <point x="618" y="1137" type="curve"/>
      <point x="227" y="1137" type="line"/>
      <point x="165" y="996"/>
      <point x="116" y="794"/>
      <point x="116" y="537" type="curve" smooth="yes"/>
      <point x="116" y="-299"/>
      <point x="702" y="-679"/>
      <point x="2048" y="-679" type="curve" smooth="yes"/>
      <point x="2116" y="-679" type="line" smooth="yes"/>
      <point x="3275" y="-679"/>
      <point x="3747" y="-378"/>
      <point x="3747" y="224" type="curve" smooth="yes"/>
      <point x="3747" y="224" type="line" smooth="yes"/>
      <point x="3747" y="546"/>
      <point x="3629" y="716"/>
    </contour>
    <contour>
      <point x="2661" y="1052" type="line"/>
      <point x="2661" y="0" type="line"/>
      <point x="3038" y="0" type="line"/>
      <point x="3038" y="1052" type="line"/>
    </contour>
    <contour>
      <point x="1510" y="1172" type="curve" smooth="yes"/>
      <point x="1002" y="1172"/>
      <point x="762" y="912"/>
      <point x="762" y="507" type="curve" smooth="yes"/>
      <point x="762" y="495" type="line" smooth="yes"/>
      <point x="762" y="192"/>
      <point x="911" y="-26"/>
      <point x="1291" y="-26" type="curve" smooth="yes"/>
      <point x="1640" y="-26"/>
      <point x="1763" y="141"/>
      <point x="1763" y="377" type="curve" smooth="yes"/>
      <point x="1763" y="377" type="line" smooth="yes"/>
      <point x="1763" y="598"/>
      <point x="1652" y="716"/>
      <point x="1436" y="716" type="curve" smooth="yes"/>
      <point x="1245" y="716"/>
      <point x="1145" y="627"/>
      <point x="1124" y="512" type="curve"/>
      <point x="1111" y="512" type="line"/>
      <point x="1115" y="391" type="line"/>
      <point x="1138" y="419"/>
      <point x="1195" y="445"/>
      <point x="1270" y="445" type="curve" smooth="yes"/>
      <point x="1364" y="445"/>
      <point x="1404" y="412"/>
      <point x="1404" y="350" type="curve" smooth="yes"/>
      <point x="1404" y="350" type="line" smooth="yes"/>
      <point x="1404" y="296"/>
      <point x="1367" y="255"/>
      <point x="1279" y="255" type="curve" smooth="yes"/>
      <point x="1170" y="255"/>
      <point x="1126" y="304"/>
      <point x="1126" y="389" type="curve"/>
      <point x="1126" y="512" type="line"/>
      <point x="1114" y="512" type="line"/>
      <point x="1114" y="514"/>
      <point x="1114" y="514"/>
      <point x="1114" y="516" type="curve"/>
      <point x="1124" y="743"/>
      <point x="1250" y="866"/>
      <point x="1543" y="866" type="curve" smooth="yes"/>
      <point x="1854" y="866"/>
      <point x="1970" y="729"/>
      <point x="1970" y="424" type="curve" smooth="yes"/>
      <point x="1970" y="0" type="line"/>
      <point x="2347" y="0" type="line"/>
      <point x="2347" y="845" type="line"/>
      <point x="3111" y="845" type="line"/>
      <point x="3111" y="1137" type="line"/>
      <point x="2091" y="1137" type="line"/>
      <point x="2091" y="871" type="line"/>
      <point x="2082" y="871" type="line"/>
      <point x="2020" y="1054"/>
      <point x="1853" y="1172"/>
    </contour>
    <component base="RaBeak_Nonexporting" xOffset="2935"/>
  </outline>
</glyph>
<glyph name="LllaMatraI.tm" format="2">
  <advance width="2771"/>
  <note>
LllaMatraI.tm
</note>
  <anchor x="1121" y="1218" name="top"/>
  <outline>
    <contour>
      <point x="965" y="-789" type="curve" smooth="yes"/>
      <point x="1285" y="-789"/>
      <point x="1409" y="-681"/>
      <point x="1526" y="-500" type="curve" smooth="yes"/>
      <point x="1539" y="-480" type="line" smooth="yes"/>
      <point x="1575" y="-424"/>
      <point x="1590" y="-408"/>
      <point x="1661" y="-408" type="curve" smooth="yes"/>
      <point x="1710" y="-408" type="line"/>
      <point x="1758" y="-111" type="line"/>
      <point x="1415" y="-111" type="line" smooth="yes"/>
      <point x="1293" y="-111"/>
      <point x="1256" y="-81"/>
      <point x="1256" y="7" type="curve" smooth="yes"/>
      <point x="1256" y="118" type="line"/>
      <point x="881" y="118" type="line"/>
      <point x="881" y="-11" type="line" smooth="yes"/>
      <point x="881" y="-222"/>
      <point x="950" y="-322"/>
      <point x="1214" y="-351" type="curve"/>
      <point x="1214" y="-358" type="line"/>
      <point x="1189" y="-363"/>
      <point x="1173" y="-374"/>
      <point x="1154" y="-395" type="curve" smooth="yes"/>
      <point x="1145" y="-405" type="line" smooth="yes"/>
      <point x="1102" y="-453"/>
      <point x="1063" y="-495"/>
      <point x="965" y="-495" type="curve" smooth="yes"/>
      <point x="833" y="-495"/>
      <point x="769" y="-423"/>
      <point x="769" y="-303" type="curve" smooth="yes"/>
      <point x="769" y="-271"/>
      <point x="772" y="-242"/>
      <point x="779" y="-213" type="curve"/>
      <point x="409" y="-213" type="line"/>
      <point x="404" y="-239"/>
      <point x="401" y="-271"/>
      <point x="401" y="-301" type="curve" smooth="yes"/>
      <point x="401" y="-597"/>
      <point x="585" y="-789"/>
    </contour>
    <component base="MaMatraI.tm"/>
  </outline>
</glyph>
<glyph name="LllaMatraI_Simple.tm" format="2">
  <advance width="2771"/>
  <note>
LllaMatraI.tm
</note>
  <anchor x="1121" y="1218" name="top"/>
  <outline>
    <contour>
      <point x="881" y="158" type="line"/>
      <point x="881" y="-5" type="line" smooth="yes"/>
      <point x="881" y="-106"/>
      <point x="864" y="-139"/>
      <point x="758" y="-139" type="curve" smooth="yes"/>
      <point x="18" y="-139" type="line"/>
      <point x="69" y="-444" type="line"/>
      <point x="786" y="-444" type="line"/>
      <point x="998" y="-444"/>
      <point x="1070" y="-382"/>
      <point x="1086" y="-199" type="curve"/>
      <point x="1096" y="-199" type="line"/>
      <point x="1124" y="-382"/>
      <point x="1182" y="-444"/>
      <point x="1399" y="-444" type="curve" smooth="yes"/>
      <point x="1763" y="-444" type="line"/>
      <point x="1811" y="-148" type="line"/>
      <point x="1415" y="-148" type="line" smooth="yes"/>
      <point x="1293" y="-148"/>
      <point x="1256" y="-107"/>
      <point x="1256" y="12" type="curve" smooth="yes"/>
      <point x="1256" y="158" type="line"/>
    </contour>
    <component base="MaMatraI.tm"/>
  </outline>
</glyph>
<glyph name="LllaMatraU_Simple.tm" format="2">
  <advance width="2873"/>
  <note>
LllaMatraU.tm
</note>
  <anchor x="1880" y="1218" name="top"/>
  <outline>
    <contour>
      <point x="136" y="1137" type="line"/>
      <point x="136" y="412" type="line"/>
      <point x="136" y="-336"/>
      <point x="535" y="-702"/>
      <point x="1358" y="-702" type="curve" smooth="yes"/>
      <point x="1736" y="-702"/>
      <point x="2002" y="-598"/>
      <point x="2210" y="-482" type="curve" smooth="yes"/>
      <point x="2228" y="-472" type="line" smooth="yes"/>
      <point x="2280" y="-443"/>
      <point x="2316" y="-426"/>
      <point x="2365" y="-426" type="curve" smooth="yes"/>
      <point x="2452" y="-426" type="line"/>
      <point x="2499" y="-134" type="line"/>
      <point x="2174" y="-134" type="line" smooth="yes"/>
      <point x="2052" y="-134"/>
      <point x="2015" y="-92"/>
      <point x="2015" y="30" type="curve"/>
      <point x="2015" y="118" type="line"/>
      <point x="1640" y="118" type="line"/>
      <point x="1640" y="12" type="line" smooth="yes"/>
      <point x="1640" y="-88"/>
      <point x="1716" y="-225"/>
      <point x="1938" y="-259" type="curve"/>
      <point x="1938" y="-262" type="line"/>
      <point x="1913" y="-268"/>
      <point x="1878" y="-280"/>
      <point x="1848" y="-292" type="curve" smooth="yes"/>
      <point x="1836" y="-297" type="line" smooth="yes"/>
      <point x="1730" y="-341"/>
      <point x="1585" y="-389"/>
      <point x="1358" y="-389" type="curve" smooth="yes"/>
      <point x="772" y="-389"/>
      <point x="518" y="-128"/>
      <point x="518" y="415" type="curve"/>
      <point x="518" y="1137" type="line"/>
    </contour>
    <component base="Ma.tm" xOffset="759"/>
  </outline>
</glyph>
<glyph name="LllaMatraUu.tm" format="2">
  <advance width="3231"/>
  <note>
LllaMatraUu.tm
</note>
  <anchor x="2238" y="1218" name="top"/>
  <outline>
    <contour>
      <point x="1551" y="-414" type="curve" smooth="yes"/>
      <point x="825" y="-414"/>
      <point x="468" y="-109"/>
      <point x="468" y="532" type="curve" smooth="yes"/>
      <point x="468" y="543"/>
      <point x="468" y="553"/>
      <point x="469" y="567" type="curve"/>
      <point x="470" y="586" type="line"/>
      <point x="474" y="785"/>
      <point x="532" y="876"/>
      <point x="641" y="876" type="curve" smooth="yes"/>
      <point x="727" y="876"/>
      <point x="767" y="829"/>
      <point x="767" y="743" type="curve" smooth="yes"/>
      <point x="767" y="743" type="line" smooth="yes"/>
      <point x="767" y="648"/>
      <point x="727" y="600"/>
      <point x="614" y="600" type="curve" smooth="yes"/>
      <point x="542" y="600"/>
      <point x="477" y="620"/>
      <point x="454" y="637" type="curve"/>
      <point x="445" y="637" type="line"/>
      <point x="445" y="567" type="line"/>
      <point x="479" y="567" type="line"/>
      <point x="574" y="354" type="line"/>
      <point x="613" y="342"/>
      <point x="671" y="335"/>
      <point x="734" y="335" type="curve" smooth="yes"/>
      <point x="1010" y="335"/>
      <point x="1134" y="487"/>
      <point x="1134" y="736" type="curve" smooth="yes"/>
      <point x="1134" y="736" type="line" smooth="yes"/>
      <point x="1134" y="996"/>
      <point x="994" y="1172"/>
      <point x="660" y="1172" type="curve" smooth="yes"/>
      <point x="282" y="1172"/>
      <point x="100" y="956"/>
      <point x="100" y="500" type="curve" smooth="yes"/>
      <point x="100" y="468" type="line" smooth="yes"/>
      <point x="100" y="-324"/>
      <point x="593" y="-727"/>
      <point x="1551" y="-727" type="curve" smooth="yes"/>
      <point x="2002" y="-727"/>
      <point x="2329" y="-622"/>
      <point x="2568" y="-482" type="curve" smooth="yes"/>
      <point x="2585" y="-472" type="line" smooth="yes"/>
      <point x="2636" y="-442"/>
      <point x="2673" y="-426"/>
      <point x="2723" y="-426" type="curve" smooth="yes"/>
      <point x="2809" y="-426" type="line"/>
      <point x="2856" y="-134" type="line"/>
      <point x="2531" y="-134" type="line" smooth="yes"/>
      <point x="2409" y="-134"/>
      <point x="2372" y="-92"/>
      <point x="2372" y="30" type="curve"/>
      <point x="2372" y="118" type="line"/>
      <point x="1998" y="118" type="line"/>
      <point x="1998" y="12" type="line" smooth="yes"/>
      <point x="1998" y="-88"/>
      <point x="2073" y="-225"/>
      <point x="2295" y="-259" type="curve"/>
      <point x="2295" y="-262" type="line"/>
      <point x="2269" y="-268"/>
      <point x="2242" y="-276"/>
      <point x="2205" y="-292" type="curve" smooth="yes"/>
      <point x="2193" y="-297" type="line" smooth="yes"/>
      <point x="2051" y="-356"/>
      <point x="1857" y="-414"/>
    </contour>
    <component base="Ma.tm" xOffset="1117"/>
  </outline>
</glyph>
<glyph name="MaMatraI.tm" format="2">
  <advance width="2771"/>
  <note>
MaMatraI.tm
</note>
  <anchor x="1121" y="1218" name="top"/>
  <outline>
    <contour>
      <point x="1988" y="1790" type="curve" smooth="yes"/>
      <point x="1596" y="1790"/>
      <point x="1366" y="1604"/>
      <point x="1366" y="1281" type="curve" smooth="yes"/>
      <point x="1366" y="1281" type="line" smooth="yes"/>
      <point x="1366" y="1206"/>
      <point x="1388" y="1108"/>
      <point x="1419" y="1049" type="curve"/>
      <point x="1770" y="1049" type="line"/>
      <point x="1746" y="1092"/>
      <point x="1732" y="1167"/>
      <point x="1732" y="1235" type="curve" smooth="yes"/>
      <point x="1732" y="1235" type="line" smooth="yes"/>
      <point x="1732" y="1400"/>
      <point x="1827" y="1484"/>
      <point x="1988" y="1484" type="curve" smooth="yes"/>
      <point x="2174" y="1484"/>
      <point x="2250" y="1393"/>
      <point x="2250" y="1173" type="curve" smooth="yes"/>
      <point x="2250" y="0" type="line"/>
      <point x="2625" y="0" type="line"/>
      <point x="2625" y="1150" type="line" smooth="yes"/>
      <point x="2625" y="1594"/>
      <point x="2442" y="1790"/>
    </contour>
    <component base="Ma.tm"/>
  </outline>
</glyph>
<glyph name="MaMatraIi.tm" format="2">
  <advance width="2114"/>
  <note>
MaMatraIi.tm
</note>
  <anchor x="1121" y="1218" name="top"/>
  <outline>
    <contour>
      <point x="1746" y="1938" type="curve" smooth="yes"/>
      <point x="1328" y="1938"/>
      <point x="1114" y="1758"/>
      <point x="1114" y="1444" type="curve" smooth="yes"/>
      <point x="1114" y="1444" type="line" smooth="yes"/>
      <point x="1114" y="1288"/>
      <point x="1158" y="1184"/>
      <point x="1209" y="1119" type="curve"/>
      <point x="1570" y="1109" type="line"/>
      <point x="1510" y="1181"/>
      <point x="1461" y="1294"/>
      <point x="1461" y="1417" type="curve" smooth="yes"/>
      <point x="1461" y="1417" type="line" smooth="yes"/>
      <point x="1461" y="1587"/>
      <point x="1560" y="1677"/>
      <point x="1718" y="1684" type="curve"/>
      <point x="1718" y="1670" type="line"/>
      <point x="1749" y="1677"/>
      <point x="1790" y="1681"/>
      <point x="1830" y="1681" type="curve" smooth="yes"/>
      <point x="1945" y="1681"/>
      <point x="1985" y="1637"/>
      <point x="1985" y="1565" type="curve" smooth="yes"/>
      <point x="1985" y="1565" type="line" smooth="yes"/>
      <point x="1985" y="1500"/>
      <point x="1957" y="1464"/>
      <point x="1899" y="1464" type="curve" smooth="yes"/>
      <point x="1829" y="1464"/>
      <point x="1799" y="1505"/>
      <point x="1799" y="1580" type="curve" smooth="yes"/>
      <point x="1799" y="1580" type="line" smooth="yes"/>
      <point x="1799" y="1621"/>
      <point x="1806" y="1651"/>
      <point x="1816" y="1683" type="curve"/>
      <point x="1718" y="1695" type="line"/>
      <point x="1718" y="1675" type="line"/>
      <point x="1628" y="1663"/>
      <point x="1545" y="1610"/>
      <point x="1543" y="1484" type="curve" smooth="yes"/>
      <point x="1543" y="1484" type="line" smooth="yes"/>
      <point x="1543" y="1334"/>
      <point x="1653" y="1227"/>
      <point x="1902" y="1227" type="curve" smooth="yes"/>
      <point x="2159" y="1227"/>
      <point x="2293" y="1348"/>
      <point x="2293" y="1568" type="curve" smooth="yes"/>
      <point x="2293" y="1568" type="line" smooth="yes"/>
      <point x="2293" y="1799"/>
      <point x="2107" y="1938"/>
    </contour>
    <component base="Ma.tm"/>
  </outline>
</glyph>
<glyph name="MaMatraIi_SimpleIi.tm" format="2">
  <advance width="2114"/>
  <note>
MaMatraIi.tm
</note>
  <anchor x="1121" y="1218" name="top"/>
  <outline>
    <contour>
      <point x="1617" y="1869" type="curve" smooth="yes"/>
      <point x="1239" y="1869"/>
      <point x="1114" y="1710"/>
      <point x="1114" y="1445" type="curve" smooth="yes"/>
      <point x="1114" y="1445" type="line" smooth="yes"/>
      <point x="1114" y="1295"/>
      <point x="1152" y="1190"/>
      <point x="1195" y="1123" type="curve"/>
      <point x="1549" y="1113" type="line"/>
      <point x="1488" y="1188"/>
      <point x="1451" y="1301"/>
      <point x="1451" y="1421" type="curve" smooth="yes"/>
      <point x="1451" y="1424" type="line"/>
      <point x="1451" y="1470" type="line" smooth="yes"/>
      <point x="1451" y="1577"/>
      <point x="1495" y="1621"/>
      <point x="1603" y="1621" type="curve" smooth="yes"/>
      <point x="1692" y="1621"/>
      <point x="1731" y="1588"/>
      <point x="1731" y="1529" type="curve" smooth="yes"/>
      <point x="1731" y="1529" type="line" smooth="yes"/>
      <point x="1731" y="1470"/>
      <point x="1700" y="1438"/>
      <point x="1612" y="1438" type="curve" smooth="yes"/>
      <point x="1527" y="1438"/>
      <point x="1487" y="1456"/>
      <point x="1446" y="1471" type="curve"/>
      <point x="1443" y="1471" type="line"/>
      <point x="1443" y="1419" type="line"/>
      <point x="1458" y="1419" type="line"/>
      <point x="1546" y="1241" type="line"/>
      <point x="1594" y="1227"/>
      <point x="1657" y="1218"/>
      <point x="1731" y="1218" type="curve" smooth="yes"/>
      <point x="1960" y="1218"/>
      <point x="2064" y="1320"/>
      <point x="2064" y="1529" type="curve" smooth="yes"/>
      <point x="2064" y="1529" type="line" smooth="yes"/>
      <point x="2064" y="1744"/>
      <point x="1934" y="1869"/>
    </contour>
    <component base="Ma.tm"/>
  </outline>
</glyph>
<glyph name="MaMatraU.tm" format="2">
  <advance width="2852"/>
  <note>
MaMatraU.tm
</note>
  <anchor x="1859" y="1218" name="top"/>
  <outline>
    <contour>
      <point x="273" y="1137" type="line"/>
      <point x="181" y="972"/>
      <point x="114" y="682"/>
      <point x="114" y="396" type="curve" smooth="yes"/>
      <point x="114" y="-266"/>
      <point x="427" y="-614"/>
      <point x="1109" y="-614" type="curve" smooth="yes"/>
      <point x="1116" y="-614" type="line" smooth="yes"/>
      <point x="1667" y="-614"/>
      <point x="1958" y="-377"/>
      <point x="1991" y="33" type="curve"/>
      <point x="1998" y="113" type="line"/>
      <point x="1618" y="121" type="line"/>
      <point x="1611" y="48" type="line"/>
      <point x="1585" y="-166"/>
      <point x="1443" y="-301"/>
      <point x="1114" y="-301" type="curve" smooth="yes"/>
      <point x="1109" y="-301" type="line" smooth="yes"/>
      <point x="669" y="-301"/>
      <point x="496" y="-57"/>
      <point x="496" y="399" type="curve" smooth="yes"/>
      <point x="496" y="661"/>
      <point x="555" y="923"/>
      <point x="667" y="1137" type="curve"/>
    </contour>
    <component base="Ma.tm" xOffset="738"/>
  </outline>
</glyph>
<glyph name="MaMatraUu.tm" format="2">
  <advance width="3231"/>
  <note>
MaMatraUu.tm
</note>
  <anchor x="2238" y="1218" name="top"/>
  <outline>
    <contour>
      <point x="660" y="1172" type="curve" smooth="yes"/>
      <point x="282" y="1172"/>
      <point x="100" y="956"/>
      <point x="100" y="500" type="curve" smooth="yes"/>
      <point x="100" y="468" type="line" smooth="yes"/>
      <point x="100" y="-322"/>
      <point x="500" y="-695"/>
      <point x="1312" y="-695" type="curve" smooth="yes"/>
      <point x="1319" y="-695" type="line" smooth="yes"/>
      <point x="1972" y="-695"/>
      <point x="2321" y="-433"/>
      <point x="2363" y="33" type="curve"/>
      <point x="2370" y="113" type="line"/>
      <point x="1990" y="121" type="line"/>
      <point x="1982" y="48" type="line"/>
      <point x="1947" y="-222"/>
      <point x="1752" y="-382"/>
      <point x="1317" y="-382" type="curve" smooth="yes"/>
      <point x="1312" y="-382" type="line" smooth="yes"/>
      <point x="723" y="-382"/>
      <point x="468" y="-95"/>
      <point x="468" y="532" type="curve"/>
      <point x="468" y="542"/>
      <point x="468" y="552"/>
      <point x="469" y="567" type="curve"/>
      <point x="470" y="586" type="line"/>
      <point x="474" y="785"/>
      <point x="532" y="876"/>
      <point x="641" y="876" type="curve" smooth="yes"/>
      <point x="727" y="876"/>
      <point x="767" y="829"/>
      <point x="767" y="743" type="curve" smooth="yes"/>
      <point x="767" y="743" type="line" smooth="yes"/>
      <point x="767" y="648"/>
      <point x="727" y="600"/>
      <point x="614" y="600" type="curve" smooth="yes"/>
      <point x="542" y="600"/>
      <point x="477" y="620"/>
      <point x="454" y="637" type="curve"/>
      <point x="445" y="637" type="line"/>
      <point x="445" y="567" type="line"/>
      <point x="479" y="567" type="line"/>
      <point x="574" y="354" type="line"/>
      <point x="613" y="342"/>
      <point x="671" y="335"/>
      <point x="734" y="335" type="curve" smooth="yes"/>
      <point x="1010" y="335"/>
      <point x="1134" y="487"/>
      <point x="1134" y="736" type="curve" smooth="yes"/>
      <point x="1134" y="736" type="line" smooth="yes"/>
      <point x="1134" y="996"/>
      <point x="994" y="1172"/>
    </contour>
    <component base="Ma.tm" xOffset="1117"/>
  </outline>
</glyph>
<glyph name="MatraAiComponent_Nonexporting" format="2">
  <advance width="1607"/>
  <outline>
    <contour>
      <point x="711" y="1621" type="curve" smooth="yes"/>
      <point x="315" y="1621"/>
      <point x="104" y="1470"/>
      <point x="104" y="1228" type="curve" smooth="yes"/>
      <point x="104" y="1228" type="line" smooth="yes"/>
      <point x="104" y="996"/>
      <point x="259" y="861"/>
      <point x="539" y="861" type="curve" smooth="yes"/>
      <point x="803" y="861"/>
      <point x="920" y="980"/>
      <point x="920" y="1146" type="curve" smooth="yes"/>
      <point x="920" y="1146" type="line" smooth="yes"/>
      <point x="919" y="1278"/>
      <point x="829" y="1335"/>
      <point x="732" y="1347" type="curve"/>
      <point x="732" y="1364" type="line"/>
      <point x="612" y="1362" type="line"/>
      <point x="637" y="1331"/>
      <point x="651" y="1281"/>
      <point x="651" y="1234" type="curve" smooth="yes"/>
      <point x="651" y="1234" type="line" smooth="yes"/>
      <point x="651" y="1156"/>
      <point x="618" y="1116"/>
      <point x="544" y="1116" type="curve" smooth="yes"/>
      <point x="468" y="1116"/>
      <point x="429" y="1156"/>
      <point x="429" y="1225" type="curve" smooth="yes"/>
      <point x="429" y="1225" type="line" smooth="yes"/>
      <point x="429" y="1302"/>
      <point x="484" y="1353"/>
      <point x="620" y="1353" type="curve" smooth="yes"/>
      <point x="660" y="1353"/>
      <point x="700" y="1350"/>
      <point x="732" y="1343" type="curve"/>
      <point x="732" y="1356" type="line"/>
      <point x="945" y="1349"/>
      <point x="1060" y="1295"/>
      <point x="1060" y="1118" type="curve"/>
      <point x="1060" y="1118" type="line"/>
      <point x="1060" y="940"/>
      <point x="961" y="829"/>
      <point x="706" y="794" type="curve" smooth="yes"/>
      <point x="486" y="764" type="line" smooth="yes"/>
      <point x="199" y="725"/>
      <point x="70" y="628"/>
      <point x="70" y="412" type="curve" smooth="yes"/>
      <point x="70" y="407" type="line" smooth="yes"/>
      <point x="70" y="118"/>
      <point x="287" y="-26"/>
      <point x="781" y="-26" type="curve" smooth="yes"/>
      <point x="1088" y="-26"/>
      <point x="1360" y="35"/>
      <point x="1569" y="124" type="curve"/>
      <point x="1569" y="430" type="line"/>
      <point x="1358" y="337"/>
      <point x="1081" y="273"/>
      <point x="783" y="273" type="curve" smooth="yes"/>
      <point x="542" y="273"/>
      <point x="440" y="317"/>
      <point x="440" y="401" type="curve" smooth="yes"/>
      <point x="440" y="407" type="line" smooth="yes"/>
      <point x="440" y="465"/>
      <point x="482" y="487"/>
      <point x="600" y="505" type="curve" smooth="yes"/>
      <point x="825" y="539" type="line" smooth="yes"/>
      <point x="1251" y="603"/>
      <point x="1406" y="801"/>
      <point x="1406" y="1112" type="curve"/>
      <point x="1406" y="1112" type="line"/>
      <point x="1406" y="1443"/>
      <point x="1184" y="1621"/>
    </contour>
  </outline>
</glyph>
<glyph name="MatraE_Simple.tm" format="2">
  <advance width="1883"/>
  <note>
MatraE.tm
</note>
  <outline>
    <contour>
      <point x="943" y="1311" type="curve" smooth="yes"/>
      <point x="402" y="1311"/>
      <point x="112" y="1031"/>
      <point x="112" y="567" type="curve" smooth="yes"/>
      <point x="112" y="555" type="line" smooth="yes"/>
      <point x="112" y="217"/>
      <point x="267" y="-26"/>
      <point x="661" y="-26" type="curve" smooth="yes"/>
      <point x="1024" y="-26"/>
      <point x="1152" y="145"/>
      <point x="1152" y="387" type="curve" smooth="yes"/>
      <point x="1152" y="387" type="line" smooth="yes"/>
      <point x="1152" y="616"/>
      <point x="1034" y="739"/>
      <point x="806" y="739" type="curve" smooth="yes"/>
      <point x="603" y="739"/>
      <point x="496" y="646"/>
      <point x="474" y="526" type="curve"/>
      <point x="461" y="526" type="line"/>
      <point x="465" y="401" type="line"/>
      <point x="492" y="436"/>
      <point x="558" y="468"/>
      <point x="645" y="468" type="curve" smooth="yes"/>
      <point x="749" y="468"/>
      <point x="793" y="430"/>
      <point x="793" y="360" type="curve" smooth="yes"/>
      <point x="793" y="360" type="line" smooth="yes"/>
      <point x="793" y="300"/>
      <point x="752" y="255"/>
      <point x="654" y="255" type="curve" smooth="yes"/>
      <point x="533" y="255"/>
      <point x="476" y="326"/>
      <point x="476" y="449" type="curve"/>
      <point x="476" y="526" type="line"/>
      <point x="466" y="526" type="line"/>
      <point x="466" y="547"/>
      <point x="466" y="547"/>
      <point x="466" y="567" type="curve" smooth="yes"/>
      <point x="466" y="831"/>
      <point x="635" y="998"/>
      <point x="932" y="998" type="curve" smooth="yes"/>
      <point x="1242" y="998"/>
      <point x="1374" y="855"/>
      <point x="1374" y="560" type="curve" smooth="yes"/>
      <point x="1374" y="0" type="line"/>
      <point x="1751" y="0" type="line"/>
      <point x="1751" y="586" type="line" smooth="yes"/>
      <point x="1751" y="1044"/>
      <point x="1525" y="1311"/>
    </contour>
  </outline>
</glyph>
<glyph name="MatraEe_Unfused.tm" format="2">
  <advance width="1709"/>
  <note>
MatraEe.tm
</note>
  <outline>
    <contour>
      <point x="88" y="771" type="curve" smooth="yes"/>
      <point x="88" y="771" type="line"/>
      <point x="88" y="253"/>
      <point x="425" y="-26"/>
      <point x="977" y="-26" type="curve" smooth="yes"/>
      <point x="1451" y="-26"/>
      <point x="1637" y="167"/>
      <point x="1637" y="436" type="curve" smooth="yes"/>
      <point x="1637" y="436" type="line" smooth="yes"/>
      <point x="1637" y="685"/>
      <point x="1467" y="813"/>
      <point x="1164" y="813" type="curve" smooth="yes"/>
      <point x="860" y="813"/>
      <point x="697" y="683"/>
      <point x="697" y="498" type="curve" smooth="yes"/>
      <point x="697" y="498" type="line" smooth="yes"/>
      <point x="697" y="377"/>
      <point x="768" y="288"/>
      <point x="873" y="264" type="curve"/>
      <point x="873" y="243" type="line"/>
      <point x="1079" y="245" type="line"/>
      <point x="1046" y="282"/>
      <point x="1012" y="348"/>
      <point x="1012" y="421" type="curve" smooth="yes"/>
      <point x="1012" y="421" type="line" smooth="yes"/>
      <point x="1012" y="510"/>
      <point x="1058" y="565"/>
      <point x="1148" y="565" type="curve" smooth="yes"/>
      <point x="1239" y="565"/>
      <point x="1275" y="509"/>
      <point x="1275" y="426" type="curve" smooth="yes"/>
      <point x="1275" y="426" type="line" smooth="yes"/>
      <point x="1275" y="331"/>
      <point x="1213" y="259"/>
      <point x="1041" y="259" type="curve" smooth="yes"/>
      <point x="992" y="259"/>
      <point x="913" y="262"/>
      <point x="873" y="266" type="curve"/>
      <point x="873" y="254" type="line"/>
      <point x="581" y="282"/>
      <point x="449" y="471"/>
      <point x="449" y="771" type="curve"/>
      <point x="449" y="771" type="line" smooth="yes"/>
      <point x="449" y="1072"/>
      <point x="581" y="1261"/>
      <point x="873" y="1289" type="curve"/>
      <point x="873" y="1277" type="line"/>
      <point x="913" y="1281"/>
      <point x="992" y="1284"/>
      <point x="1041" y="1284" type="curve" smooth="yes"/>
      <point x="1213" y="1284"/>
      <point x="1275" y="1212"/>
      <point x="1275" y="1117" type="curve" smooth="yes"/>
      <point x="1275" y="1117" type="line" smooth="yes"/>
      <point x="1275" y="1034"/>
      <point x="1239" y="978"/>
      <point x="1148" y="978" type="curve" smooth="yes"/>
      <point x="1058" y="978"/>
      <point x="1012" y="1033"/>
      <point x="1012" y="1122" type="curve" smooth="yes"/>
      <point x="1012" y="1122" type="line" smooth="yes"/>
      <point x="1012" y="1195"/>
      <point x="1046" y="1261"/>
      <point x="1079" y="1298" type="curve"/>
      <point x="873" y="1300" type="line"/>
      <point x="873" y="1279" type="line"/>
      <point x="768" y="1255"/>
      <point x="697" y="1166"/>
      <point x="697" y="1045" type="curve" smooth="yes"/>
      <point x="697" y="1045" type="line" smooth="yes"/>
      <point x="697" y="860"/>
      <point x="860" y="730"/>
      <point x="1164" y="730" type="curve" smooth="yes"/>
      <point x="1467" y="730"/>
      <point x="1637" y="858"/>
      <point x="1637" y="1107" type="curve" smooth="yes"/>
      <point x="1637" y="1107" type="line" smooth="yes"/>
      <point x="1637" y="1376"/>
      <point x="1451" y="1569"/>
      <point x="977" y="1569" type="curve" smooth="yes"/>
      <point x="425" y="1569"/>
      <point x="88" y="1290"/>
    </contour>
  </outline>
</glyph>
<glyph name="MatraIDflt_Fly.tm" format="2">
  <note>
MatraIDflt.tm
</note>
  <outline>
    <contour>
      <point x="855" y="1646" type="line"/>
      <point x="345" y="1646" type="line" smooth="yes"/>
      <point x="113" y="1646"/>
      <point x="0" y="1575"/>
      <point x="0" y="1415" type="curve" smooth="yes"/>
      <point x="0" y="1323"/>
      <point x="31" y="1240"/>
      <point x="109" y="1123" type="curve"/>
      <point x="478" y="1123" type="line"/>
      <point x="429" y="1189"/>
      <point x="402" y="1240"/>
      <point x="402" y="1281" type="curve" smooth="yes"/>
      <point x="402" y="1327"/>
      <point x="429" y="1345"/>
      <point x="490" y="1345" type="curve" smooth="yes"/>
      <point x="899" y="1345" type="line"/>
    </contour>
  </outline>
</glyph>
<glyph name="MatraIiDflt_SimpleIi.tm" format="2">
  <note>
MatraIiDflt.tm
</note>
  <outline>
    <contour>
      <point x="503" y="1869" type="curve" smooth="yes"/>
      <point x="125" y="1869"/>
      <point x="0" y="1710"/>
      <point x="0" y="1445" type="curve" smooth="yes"/>
      <point x="0" y="1445" type="line" smooth="yes"/>
      <point x="0" y="1295"/>
      <point x="38" y="1190"/>
      <point x="81" y="1123" type="curve"/>
      <point x="425" y="1123" type="line"/>
      <point x="377" y="1196"/>
      <point x="337" y="1305"/>
      <point x="337" y="1421" type="curve" smooth="yes"/>
      <point x="337" y="1424" type="line"/>
      <point x="337" y="1470" type="line" smooth="yes"/>
      <point x="337" y="1577"/>
      <point x="381" y="1621"/>
      <point x="489" y="1621" type="curve" smooth="yes"/>
      <point x="578" y="1621"/>
      <point x="617" y="1588"/>
      <point x="617" y="1529" type="curve" smooth="yes"/>
      <point x="617" y="1529" type="line" smooth="yes"/>
      <point x="617" y="1470"/>
      <point x="586" y="1438"/>
      <point x="498" y="1438" type="curve" smooth="yes"/>
      <point x="413" y="1438"/>
      <point x="373" y="1456"/>
      <point x="332" y="1471" type="curve"/>
      <point x="329" y="1471" type="line"/>
      <point x="329" y="1419" type="line"/>
      <point x="344" y="1419" type="line"/>
      <point x="432" y="1241" type="line"/>
      <point x="480" y="1227"/>
      <point x="543" y="1218"/>
      <point x="617" y="1218" type="curve" smooth="yes"/>
      <point x="846" y="1218"/>
      <point x="950" y="1320"/>
      <point x="950" y="1529" type="curve" smooth="yes"/>
      <point x="950" y="1529" type="line" smooth="yes"/>
      <point x="950" y="1744"/>
      <point x="820" y="1869"/>
    </contour>
  </outline>
</glyph>
<glyph name="NaMatraI.tm" format="2">
  <advance width="2007"/>
  <note>
NaMatraI.tm
</note>
  <outline>
    <contour>
      <point x="809" y="1054" type="line"/>
      <point x="809" y="0" type="line"/>
      <point x="1184" y="0" type="line"/>
      <point x="1184" y="1054" type="line"/>
    </contour>
    <contour>
      <point x="1522" y="716" type="curve" smooth="yes"/>
      <point x="1327" y="716"/>
      <point x="1218" y="621"/>
      <point x="1195" y="488" type="curve"/>
      <point x="1140" y="488" type="line"/>
      <point x="1140" y="312" type="line"/>
      <point x="1165" y="312" type="line"/>
      <point x="1193" y="370"/>
      <point x="1262" y="410"/>
      <point x="1353" y="410" type="curve" smooth="yes"/>
      <point x="1473" y="410"/>
      <point x="1524" y="340"/>
      <point x="1524" y="197" type="curve" smooth="yes"/>
      <point x="1524" y="194" type="line" smooth="yes"/>
      <point x="1524" y="-46"/>
      <point x="1416" y="-139"/>
      <point x="1084" y="-139" type="curve" smooth="yes"/>
      <point x="484" y="-139" type="line"/>
      <point x="535" y="-444" type="line"/>
      <point x="1101" y="-444" type="line" smooth="yes"/>
      <point x="1696" y="-444"/>
      <point x="1913" y="-231"/>
      <point x="1913" y="213" type="curve" smooth="yes"/>
      <point x="1913" y="220" type="line" smooth="yes"/>
      <point x="1913" y="544"/>
      <point x="1793" y="716"/>
    </contour>
    <contour>
      <point x="1270" y="1137" type="line"/>
      <point x="146" y="1137" type="line"/>
      <point x="146" y="0" type="line"/>
      <point x="521" y="0" type="line"/>
      <point x="521" y="845" type="line"/>
      <point x="1270" y="845" type="line"/>
    </contour>
    <contour>
      <point x="1345" y="1790" type="curve" smooth="yes"/>
      <point x="992" y="1790"/>
      <point x="793" y="1616"/>
      <point x="793" y="1318" type="curve" smooth="yes"/>
      <point x="793" y="1318" type="line" smooth="yes"/>
      <point x="793" y="1251"/>
      <point x="808" y="1173"/>
      <point x="831" y="1123" type="curve"/>
      <point x="1183" y="1123" type="line"/>
      <point x="1169" y="1163"/>
      <point x="1159" y="1223"/>
      <point x="1159" y="1283" type="curve" smooth="yes"/>
      <point x="1159" y="1283" type="line" smooth="yes"/>
      <point x="1159" y="1421"/>
      <point x="1223" y="1490"/>
      <point x="1345" y="1490" type="curve" smooth="yes"/>
      <point x="1487" y="1490"/>
      <point x="1533" y="1410"/>
      <point x="1533" y="1214" type="curve" smooth="yes"/>
      <point x="1533" y="789" type="line"/>
      <point x="1897" y="789" type="line"/>
      <point x="1897" y="1192" type="line" smooth="yes"/>
      <point x="1897" y="1609"/>
      <point x="1746" y="1790"/>
    </contour>
    <component base="Tail_NonExporting" xOffset="-132"/>
    <component base="RaBeak_Nonexporting" xOffset="841"/>
  </outline>
</glyph>
<glyph name="NaMatraI_Simple.tm" format="2">
  <advance width="2007"/>
  <note>
NaMatraI.tm
</note>
  <outline>
    <contour>
      <point x="810" y="1052" type="line"/>
      <point x="810" y="0" type="line"/>
      <point x="1185" y="0" type="line"/>
      <point x="1185" y="1052" type="line"/>
    </contour>
    <contour>
      <point x="1523" y="716" type="curve" smooth="yes"/>
      <point x="1327" y="716"/>
      <point x="1218" y="621"/>
      <point x="1195" y="488" type="curve"/>
      <point x="1141" y="488" type="line"/>
      <point x="1141" y="312" type="line"/>
      <point x="1165" y="312" type="line"/>
      <point x="1193" y="370"/>
      <point x="1262" y="410"/>
      <point x="1354" y="410" type="curve" smooth="yes"/>
      <point x="1473" y="410"/>
      <point x="1524" y="340"/>
      <point x="1524" y="197" type="curve" smooth="yes"/>
      <point x="1524" y="194" type="line" smooth="yes"/>
      <point x="1524" y="-46"/>
      <point x="1417" y="-139"/>
      <point x="1084" y="-139" type="curve" smooth="yes"/>
      <point x="18" y="-139" type="line"/>
      <point x="69" y="-444" type="line"/>
      <point x="1102" y="-444" type="line" smooth="yes"/>
      <point x="1697" y="-444"/>
      <point x="1913" y="-231"/>
      <point x="1913" y="213" type="curve" smooth="yes"/>
      <point x="1913" y="220" type="line" smooth="yes"/>
      <point x="1913" y="544"/>
      <point x="1794" y="716"/>
    </contour>
    <contour>
      <point x="1245" y="1137" type="line"/>
      <point x="146" y="1137" type="line"/>
      <point x="146" y="0" type="line"/>
      <point x="521" y="0" type="line"/>
      <point x="521" y="845" type="line"/>
      <point x="1245" y="845" type="line"/>
    </contour>
    <contour>
      <point x="1345" y="1790" type="curve" smooth="yes"/>
      <point x="992" y="1790"/>
      <point x="793" y="1616"/>
      <point x="793" y="1318" type="curve" smooth="yes"/>
      <point x="793" y="1318" type="line" smooth="yes"/>
      <point x="793" y="1251"/>
      <point x="808" y="1173"/>
      <point x="831" y="1123" type="curve"/>
      <point x="1183" y="1123" type="line"/>
      <point x="1169" y="1163"/>
      <point x="1159" y="1223"/>
      <point x="1159" y="1283" type="curve" smooth="yes"/>
      <point x="1159" y="1283" type="line" smooth="yes"/>
      <point x="1159" y="1421"/>
      <point x="1223" y="1490"/>
      <point x="1345" y="1490" type="curve" smooth="yes"/>
      <point x="1487" y="1490"/>
      <point x="1533" y="1410"/>
      <point x="1533" y="1214" type="curve" smooth="yes"/>
      <point x="1533" y="789" type="line"/>
      <point x="1897" y="789" type="line"/>
      <point x="1897" y="1192" type="line" smooth="yes"/>
      <point x="1897" y="1609"/>
      <point x="1746" y="1790"/>
    </contour>
    <component base="RaBeak_Nonexporting" xOffset="841"/>
  </outline>
</glyph>
<glyph name="NaMatraU.tm" format="2">
  <advance width="2692"/>
  <note>
NaMatraU.tm
</note>
  <outline>
    <contour>
      <point x="839" y="1054" type="line"/>
      <point x="839" y="0" type="line"/>
      <point x="1214" y="0" type="line"/>
      <point x="1214" y="1054" type="line"/>
    </contour>
    <contour>
      <point x="1533" y="716" type="curve" smooth="yes"/>
      <point x="1359" y="716"/>
      <point x="1247" y="621"/>
      <point x="1225" y="488" type="curve"/>
      <point x="1170" y="488" type="line"/>
      <point x="1170" y="312" type="line"/>
      <point x="1195" y="312" type="line"/>
      <point x="1220" y="370"/>
      <point x="1291" y="410"/>
      <point x="1364" y="410" type="curve" smooth="yes"/>
      <point x="1500" y="410"/>
      <point x="1540" y="313"/>
      <point x="1540" y="115" type="curve" smooth="yes"/>
      <point x="1540" y="108" type="line" smooth="yes"/>
      <point x="1540" y="-10"/>
      <point x="1530" y="-126"/>
      <point x="1515" y="-219" type="curve"/>
      <point x="1504" y="-287" type="line"/>
      <point x="1470" y="-493"/>
      <point x="1304" y="-597"/>
      <point x="981" y="-597" type="curve" smooth="yes"/>
      <point x="677" y="-597"/>
      <point x="506" y="-510"/>
      <point x="475" y="-389" type="curve"/>
      <point x="2546" y="-389" type="line"/>
      <point x="2546" y="-114" type="line"/>
      <point x="10" y="-114" type="line"/>
      <point x="38" y="-603"/>
      <point x="356" y="-886"/>
      <point x="981" y="-886" type="curve" smooth="yes"/>
      <point x="1551" y="-886"/>
      <point x="1823" y="-651"/>
      <point x="1885" y="-314" type="curve"/>
      <point x="1897" y="-216" type="line"/>
      <point x="1911" y="-121"/>
      <point x="1922" y="2"/>
      <point x="1922" y="126" type="curve" smooth="yes"/>
      <point x="1922" y="137" type="line" smooth="yes"/>
      <point x="1922" y="516"/>
      <point x="1815" y="716"/>
    </contour>
    <contour>
      <point x="2168" y="1137" type="line"/>
      <point x="2168" y="-389" type="line"/>
      <point x="2546" y="-389" type="line"/>
      <point x="2546" y="1137" type="line"/>
    </contour>
    <contour>
      <point x="1277" y="1137" type="line"/>
      <point x="146" y="1137" type="line"/>
      <point x="146" y="0" type="line"/>
      <point x="521" y="0" type="line"/>
      <point x="521" y="845" type="line"/>
      <point x="1277" y="845" type="line"/>
    </contour>
    <component base="RaBeak_Nonexporting" xOffset="1096"/>
  </outline>
</glyph>
<glyph name="NaMatraU_Simple.tm" format="2">
  <advance width="2703"/>
  <note>
NaMatraU.tm
</note>
  <outline>
    <contour>
      <point x="839" y="1054" type="line"/>
      <point x="839" y="0" type="line"/>
      <point x="1214" y="0" type="line"/>
      <point x="1214" y="1054" type="line"/>
    </contour>
    <contour>
      <point x="1569" y="716" type="curve" smooth="yes"/>
      <point x="1367" y="716"/>
      <point x="1252" y="621"/>
      <point x="1224" y="488" type="curve"/>
      <point x="1170" y="488" type="line"/>
      <point x="1170" y="312" type="line"/>
      <point x="1194" y="312" type="line"/>
      <point x="1222" y="370"/>
      <point x="1291" y="410"/>
      <point x="1383" y="410" type="curve" smooth="yes"/>
      <point x="1502" y="410"/>
      <point x="1553" y="336"/>
      <point x="1553" y="187" type="curve" smooth="yes"/>
      <point x="1553" y="183" type="line" smooth="yes"/>
      <point x="1553" y="-46"/>
      <point x="1441" y="-139"/>
      <point x="1138" y="-139" type="curve" smooth="yes"/>
      <point x="18" y="-139" type="line"/>
      <point x="69" y="-444" type="line"/>
      <point x="2557" y="-444" type="line"/>
      <point x="2557" y="-139" type="line"/>
      <point x="1791" y="-139" type="line"/>
      <point x="1791" y="-127" type="line"/>
      <point x="1891" y="-55"/>
      <point x="1942" y="84"/>
      <point x="1942" y="259" type="curve" smooth="yes"/>
      <point x="1942" y="266" type="line" smooth="yes"/>
      <point x="1942" y="551"/>
      <point x="1824" y="716"/>
    </contour>
    <contour>
      <point x="2182" y="1137" type="line"/>
      <point x="2182" y="-444" type="line"/>
      <point x="2557" y="-444" type="line"/>
      <point x="2557" y="1137" type="line"/>
    </contour>
    <contour>
      <point x="1320" y="1137" type="line"/>
      <point x="146" y="1137" type="line"/>
      <point x="146" y="0" type="line"/>
      <point x="521" y="0" type="line"/>
      <point x="521" y="845" type="line"/>
      <point x="1320" y="845" type="line"/>
    </contour>
    <component base="RaBeak_Nonexporting" xOffset="1092"/>
  </outline>
</glyph>
<glyph name="Na_Simple.tm" format="2">
  <advance width="2016"/>
  <note>
Na.tm
</note>
  <anchor x="1027" y="1218" name="top"/>
  <outline>
    <contour>
      <point x="839" y="1054" type="line"/>
      <point x="839" y="0" type="line"/>
      <point x="1214" y="0" type="line"/>
      <point x="1214" y="1054" type="line"/>
    </contour>
    <contour>
      <point x="1552" y="716" type="curve" smooth="yes"/>
      <point x="1356" y="716"/>
      <point x="1247" y="621"/>
      <point x="1224" y="488" type="curve"/>
      <point x="1170" y="488" type="line"/>
      <point x="1170" y="312" type="line"/>
      <point x="1194" y="312" type="line"/>
      <point x="1222" y="370"/>
      <point x="1291" y="410"/>
      <point x="1383" y="410" type="curve" smooth="yes"/>
      <point x="1502" y="410"/>
      <point x="1553" y="340"/>
      <point x="1553" y="197" type="curve" smooth="yes"/>
      <point x="1553" y="194" type="line" smooth="yes"/>
      <point x="1553" y="-46"/>
      <point x="1446" y="-139"/>
      <point x="1113" y="-139" type="curve" smooth="yes"/>
      <point x="18" y="-139" type="line"/>
      <point x="69" y="-444" type="line"/>
      <point x="1131" y="-444" type="line" smooth="yes"/>
      <point x="1726" y="-444"/>
      <point x="1942" y="-231"/>
      <point x="1942" y="213" type="curve" smooth="yes"/>
      <point x="1942" y="220" type="line" smooth="yes"/>
      <point x="1942" y="544"/>
      <point x="1823" y="716"/>
    </contour>
    <contour>
      <point x="1281" y="1137" type="line"/>
      <point x="146" y="1137" type="line"/>
      <point x="146" y="0" type="line"/>
      <point x="521" y="0" type="line"/>
      <point x="521" y="845" type="line"/>
      <point x="1281" y="845" type="line"/>
    </contour>
    <component base="RaBeak_Nonexporting" xOffset="1095"/>
  </outline>
</glyph>
<glyph name="NgaMatraI.tm" format="2">
  <advance width="3565"/>
  <note>
NgaMatraI.tm
</note>
  <outline>
    <contour>
      <point x="864" y="1038" type="line"/>
      <point x="864" y="0" type="line"/>
      <point x="1239" y="0" type="line"/>
      <point x="1239" y="1038" type="line"/>
    </contour>
    <contour>
      <point x="1609" y="743" type="curve" smooth="yes"/>
      <point x="1362" y="743"/>
      <point x="1262" y="627"/>
      <point x="1248" y="491" type="curve"/>
      <point x="1216" y="491" type="line"/>
      <point x="1216" y="356" type="line"/>
      <point x="1225" y="356" type="line"/>
      <point x="1259" y="401"/>
      <point x="1327" y="440"/>
      <point x="1410" y="440" type="curve" smooth="yes"/>
      <point x="1535" y="440"/>
      <point x="1575" y="373"/>
      <point x="1575" y="255" type="curve" smooth="yes"/>
      <point x="1575" y="255" type="line" smooth="yes"/>
      <point x="1575" y="146"/>
      <point x="1549" y="79"/>
      <point x="1494" y="19" type="curve"/>
      <point x="1494" y="0" type="line"/>
      <point x="2522" y="0" type="line"/>
      <point x="2522" y="285" type="line"/>
      <point x="1757" y="285" type="line"/>
      <point x="1885" y="215" type="line"/>
      <point x="1913" y="268"/>
      <point x="1936" y="343"/>
      <point x="1936" y="440" type="curve" smooth="yes"/>
      <point x="1936" y="445" type="line" smooth="yes"/>
      <point x="1936" y="632"/>
      <point x="1832" y="743"/>
    </contour>
    <contour>
      <point x="2387" y="1137" type="line"/>
      <point x="2387" y="0" type="line"/>
      <point x="2762" y="0" type="line"/>
      <point x="2762" y="1137" type="line"/>
    </contour>
    <contour>
      <point x="2583" y="1790" type="curve" smooth="yes"/>
      <point x="2067" y="1790"/>
      <point x="1780" y="1565"/>
      <point x="1780" y="1184" type="curve" smooth="yes"/>
      <point x="1780" y="1184" type="line" smooth="yes"/>
      <point x="1780" y="800"/>
      <point x="2035" y="627"/>
      <point x="2420" y="627" type="curve"/>
      <point x="2420" y="924" type="line"/>
      <point x="2246" y="931"/>
      <point x="2146" y="1014"/>
      <point x="2146" y="1184" type="curve" smooth="yes"/>
      <point x="2146" y="1184" type="line" smooth="yes"/>
      <point x="2146" y="1384"/>
      <point x="2316" y="1484"/>
      <point x="2583" y="1484" type="curve" smooth="yes"/>
      <point x="2918" y="1484"/>
      <point x="3044" y="1373"/>
      <point x="3044" y="1074" type="curve" smooth="yes"/>
      <point x="3044" y="0" type="line"/>
      <point x="3419" y="0" type="line"/>
      <point x="3419" y="1051" type="line" smooth="yes"/>
      <point x="3419" y="1565"/>
      <point x="3176" y="1790"/>
    </contour>
    <contour>
      <point x="1273" y="1137" type="line"/>
      <point x="146" y="1137" type="line"/>
      <point x="146" y="0" type="line"/>
      <point x="521" y="0" type="line"/>
      <point x="521" y="845" type="line"/>
      <point x="1273" y="845" type="line"/>
    </contour>
    <component base="RaBeak_Nonexporting" xOffset="1097"/>
  </outline>
</glyph>
<glyph name="NgaMatraI_Fly.tm" format="2">
  <advance width="2798"/>
  <outline>
    <contour>
      <point x="854" y="1037" type="line"/>
      <point x="854" y="0" type="line"/>
      <point x="1229" y="0" type="line"/>
      <point x="1229" y="1037" type="line"/>
    </contour>
    <contour>
      <point x="2277" y="1137" type="line"/>
      <point x="2277" y="0" type="line"/>
      <point x="2652" y="0" type="line"/>
      <point x="2652" y="1137" type="line"/>
    </contour>
    <contour>
      <point x="1278" y="1137" type="line"/>
      <point x="146" y="1137" type="line"/>
      <point x="146" y="0" type="line"/>
      <point x="521" y="0" type="line"/>
      <point x="521" y="845" type="line"/>
      <point x="1278" y="845" type="line"/>
    </contour>
    <contour>
      <point x="2676" y="1646" type="line"/>
      <point x="2000" y="1646" type="line" smooth="yes"/>
      <point x="1749" y="1646"/>
      <point x="1627" y="1556"/>
      <point x="1627" y="1352" type="curve" smooth="yes"/>
      <point x="1627" y="1211"/>
      <point x="1705" y="1010"/>
      <point x="1770" y="901" type="curve" smooth="yes"/>
      <point x="1868" y="737"/>
      <point x="1922" y="696"/>
      <point x="2139" y="696" type="curve" smooth="yes"/>
      <point x="2287" y="696" type="line"/>
      <point x="2287" y="993" type="line"/>
      <point x="2212" y="993" type="line" smooth="yes"/>
      <point x="2152" y="993"/>
      <point x="2129" y="1005"/>
      <point x="2101" y="1052" type="curve" smooth="yes"/>
      <point x="2055" y="1128"/>
      <point x="2020" y="1220"/>
      <point x="2020" y="1271" type="curve" smooth="yes"/>
      <point x="2020" y="1324"/>
      <point x="2050" y="1345"/>
      <point x="2118" y="1345" type="curve" smooth="yes"/>
      <point x="2720" y="1345" type="line"/>
    </contour>
    <contour>
      <point x="1599" y="743" type="curve" smooth="yes"/>
      <point x="1352" y="743"/>
      <point x="1252" y="627"/>
      <point x="1238" y="491" type="curve"/>
      <point x="1206" y="491" type="line"/>
      <point x="1206" y="356" type="line"/>
      <point x="1215" y="356" type="line"/>
      <point x="1249" y="401"/>
      <point x="1317" y="440"/>
      <point x="1400" y="440" type="curve" smooth="yes"/>
      <point x="1525" y="440"/>
      <point x="1565" y="373"/>
      <point x="1565" y="255" type="curve" smooth="yes"/>
      <point x="1565" y="255" type="line" smooth="yes"/>
      <point x="1565" y="146"/>
      <point x="1539" y="79"/>
      <point x="1484" y="19" type="curve"/>
      <point x="1484" y="0" type="line"/>
      <point x="2324" y="0" type="line"/>
      <point x="2324" y="285" type="line"/>
      <point x="1747" y="285" type="line"/>
      <point x="1875" y="215" type="line"/>
      <point x="1903" y="268"/>
      <point x="1926" y="343"/>
      <point x="1926" y="440" type="curve" smooth="yes"/>
      <point x="1926" y="445" type="line" smooth="yes"/>
      <point x="1926" y="632"/>
      <point x="1822" y="743"/>
    </contour>
    <component base="RaBeak_Nonexporting" xOffset="1007"/>
  </outline>
</glyph>
<glyph name="NgaMatraI_SimpleFly.tm" format="2">
  <advance width="2662"/>
  <note>
NgaMatraI.tm
</note>
  <outline>
    <contour>
      <point x="2646" y="1646" type="line"/>
      <point x="2066" y="1646" type="line" smooth="yes"/>
      <point x="1833" y="1646"/>
      <point x="1721" y="1565"/>
      <point x="1721" y="1382" type="curve" smooth="yes"/>
      <point x="1721" y="1264"/>
      <point x="1784" y="1114"/>
      <point x="1839" y="1017" type="curve" smooth="yes"/>
      <point x="1914" y="884"/>
      <point x="1974" y="850"/>
      <point x="2143" y="850" type="curve"/>
      <point x="2289" y="850" type="line"/>
      <point x="2279" y="1137" type="line"/>
      <point x="2222" y="1137" type="line" smooth="yes"/>
      <point x="2185" y="1137"/>
      <point x="2170" y="1144"/>
      <point x="2150" y="1177" type="curve" smooth="yes"/>
      <point x="2127" y="1218"/>
      <point x="2113" y="1258"/>
      <point x="2113" y="1283" type="curve" smooth="yes"/>
      <point x="2113" y="1327"/>
      <point x="2140" y="1345"/>
      <point x="2201" y="1345" type="curve" smooth="yes"/>
      <point x="2690" y="1345" type="line"/>
    </contour>
    <contour>
      <point x="854" y="1038" type="line"/>
      <point x="854" y="0" type="line"/>
      <point x="1229" y="0" type="line"/>
      <point x="1229" y="1038" type="line"/>
    </contour>
    <contour>
      <point x="1599" y="743" type="curve" smooth="yes"/>
      <point x="1352" y="743"/>
      <point x="1252" y="627"/>
      <point x="1238" y="491" type="curve"/>
      <point x="1206" y="491" type="line"/>
      <point x="1206" y="356" type="line"/>
      <point x="1215" y="356" type="line"/>
      <point x="1249" y="401"/>
      <point x="1317" y="440"/>
      <point x="1400" y="440" type="curve" smooth="yes"/>
      <point x="1525" y="440"/>
      <point x="1565" y="373"/>
      <point x="1565" y="255" type="curve" smooth="yes"/>
      <point x="1565" y="255" type="line" smooth="yes"/>
      <point x="1565" y="146"/>
      <point x="1539" y="79"/>
      <point x="1484" y="19" type="curve"/>
      <point x="1484" y="0" type="line"/>
      <point x="2160" y="0" type="line"/>
      <point x="2160" y="285" type="line"/>
      <point x="1747" y="285" type="line"/>
      <point x="1875" y="215" type="line"/>
      <point x="1903" y="268"/>
      <point x="1926" y="343"/>
      <point x="1926" y="440" type="curve" smooth="yes"/>
      <point x="1926" y="445" type="line" smooth="yes"/>
      <point x="1926" y="632"/>
      <point x="1822" y="743"/>
    </contour>
    <contour>
      <point x="2142" y="1137" type="line"/>
      <point x="2142" y="0" type="line"/>
      <point x="2516" y="0" type="line"/>
      <point x="2516" y="1137" type="line"/>
    </contour>
    <contour>
      <point x="1289" y="1137" type="line"/>
      <point x="146" y="1137" type="line"/>
      <point x="146" y="0" type="line"/>
      <point x="521" y="0" type="line"/>
      <point x="521" y="845" type="line"/>
      <point x="1289" y="845" type="line"/>
    </contour>
    <component base="RaBeak_Nonexporting" xOffset="1105"/>
  </outline>
</glyph>
<glyph name="NgaMatraI_SimpleI.tm" format="2">
  <advance width="3343"/>
  <note>
NgaMatraI.tm
</note>
  <outline>
    <contour>
      <point x="854" y="1038" type="line"/>
      <point x="854" y="0" type="line"/>
      <point x="1229" y="0" type="line"/>
      <point x="1229" y="1038" type="line"/>
    </contour>
    <contour>
      <point x="1599" y="743" type="curve" smooth="yes"/>
      <point x="1352" y="743"/>
      <point x="1252" y="627"/>
      <point x="1238" y="491" type="curve"/>
      <point x="1206" y="491" type="line"/>
      <point x="1206" y="356" type="line"/>
      <point x="1215" y="356" type="line"/>
      <point x="1249" y="401"/>
      <point x="1317" y="440"/>
      <point x="1400" y="440" type="curve" smooth="yes"/>
      <point x="1525" y="440"/>
      <point x="1565" y="373"/>
      <point x="1565" y="255" type="curve" smooth="yes"/>
      <point x="1565" y="255" type="line" smooth="yes"/>
      <point x="1565" y="146"/>
      <point x="1539" y="79"/>
      <point x="1484" y="19" type="curve"/>
      <point x="1484" y="0" type="line"/>
      <point x="2336" y="0" type="line"/>
      <point x="2336" y="285" type="line"/>
      <point x="1747" y="285" type="line"/>
      <point x="1875" y="215" type="line"/>
      <point x="1903" y="268"/>
      <point x="1926" y="343"/>
      <point x="1926" y="440" type="curve" smooth="yes"/>
      <point x="1926" y="445" type="line" smooth="yes"/>
      <point x="1926" y="632"/>
      <point x="1822" y="743"/>
    </contour>
    <contour>
      <point x="2201" y="1137" type="line"/>
      <point x="2201" y="0" type="line"/>
      <point x="2576" y="0" type="line"/>
      <point x="2576" y="1137" type="line"/>
    </contour>
    <contour>
      <point x="1282" y="1137" type="line"/>
      <point x="146" y="1137" type="line"/>
      <point x="146" y="0" type="line"/>
      <point x="521" y="0" type="line"/>
      <point x="521" y="845" type="line"/>
      <point x="1282" y="845" type="line"/>
    </contour>
    <contour>
      <point x="2467" y="1790" type="curve" smooth="yes"/>
      <point x="2037" y="1790"/>
      <point x="1787" y="1609"/>
      <point x="1787" y="1308" type="curve" smooth="yes"/>
      <point x="1787" y="1306" type="line" smooth="yes"/>
      <point x="1787" y="1003"/>
      <point x="1998" y="864"/>
      <point x="2343" y="864" type="curve"/>
      <point x="2417" y="1137" type="line"/>
      <point x="2229" y="1137"/>
      <point x="2153" y="1193"/>
      <point x="2153" y="1299" type="curve" smooth="yes"/>
      <point x="2153" y="1301" type="line" smooth="yes"/>
      <point x="2153" y="1426"/>
      <point x="2273" y="1484"/>
      <point x="2467" y="1484" type="curve" smooth="yes"/>
      <point x="2727" y="1484"/>
      <point x="2822" y="1408"/>
      <point x="2822" y="1197" type="curve" smooth="yes"/>
      <point x="2822" y="0" type="line"/>
      <point x="3197" y="0" type="line"/>
      <point x="3197" y="1174" type="line" smooth="yes"/>
      <point x="3197" y="1605"/>
      <point x="2987" y="1790"/>
    </contour>
    <component base="RaBeak_Nonexporting" xOffset="1158"/>
  </outline>
</glyph>
